<svg id="f96f9ab4-49b5-4c67-bb90-72c180cafa8e" data-name="Слой 1" xmlns="http://www.w3.org/2000/svg" xmlns:xlink="http://www.w3.org/1999/xlink" viewBox="0 0 263 500"><defs><style>.a2ab271b-8bc1-4c80-9aeb-d8a57950481d,.a4e2cfb6-c394-4a39-8deb-9a623a0abcf8,.ab4cbfb2-3047-4dfa-919b-d97d809dc028,.b03ce628-4373-40f2-b954-0e3cb3cc7ef4{fill:#fff;}.a2ab271b-8bc1-4c80-9aeb-d8a57950481d,.a6423d68-10eb-456d-a459-8fe8ab454408,.a8e8d5c9-8d4b-4360-8287-e4bfdc24b542,.acdc173b-956a-4035-988a-d08990c9187f,.b22e9aed-df2c-4ef0-bbce-e8b0883a8099,.b319a5d7-cf96-4f48-8f37-a97fad1ccbec,.bb1f6dc6-7290-43df-a0ea-6811e31e6ba3{fill-rule:evenodd;}.fcca7679-79cd-420b-aa7d-7a714e6ecf49{fill:none;}.b319a5d7-cf96-4f48-8f37-a97fad1ccbec{fill:#213648;}.acdc173b-956a-4035-988a-d08990c9187f{fill-opacity:0.65;opacity:0.59556;fill:url(#fca4710d-5201-4693-92e9-adf3f99832e1);}.ab4cbfb2-3047-4dfa-919b-d97d809dc028,.acdc173b-956a-4035-988a-d08990c9187f,.b03ce628-4373-40f2-b954-0e3cb3cc7ef4,.b22e9aed-df2c-4ef0-bbce-e8b0883a8099,.ba03c4bf-a358-4633-83a4-9c54fb9695d8,.bb1f6dc6-7290-43df-a0ea-6811e31e6ba3{isolation:isolate;}.b22e9aed-df2c-4ef0-bbce-e8b0883a8099,.bb1f6dc6-7290-43df-a0ea-6811e31e6ba3{opacity:0.75;}.bb1f6dc6-7290-43df-a0ea-6811e31e6ba3{fill:url(#a9dabe91-e09b-4e10-ab3a-b1c9336390f3);}.b22e9aed-df2c-4ef0-bbce-e8b0883a8099{fill:url(#f0383f3f-954f-4d15-b9d8-545826133ee4);}.a6423d68-10eb-456d-a459-8fe8ab454408{fill:#2e423c;}.a8e8d5c9-8d4b-4360-8287-e4bfdc24b542{fill:#edf3f8;}.b67cf3a8-9c07-4215-8e2a-32c35b733e3f{mask:url(#ae99320b-a76c-40a8-925f-77e045f42c60);}.f4ebd915-cb89-485a-b5aa-eafc9f928c18{fill:#fbfcfe;}.ba03c4bf-a358-4633-83a4-9c54fb9695d8,.e2350cd7-dcaa-406f-ab24-d254b28d383e{fill:#36536b;}.ba03c4bf-a358-4633-83a4-9c54fb9695d8{opacity:0.7;}.aa46cbb4-85a0-4ce0-bd6d-1c6054e0cb54{clip-path:url(#a3590d05-15bd-459a-b083-304ba15b113e);}.a1f8296f-2324-4620-b144-f94a72d00c37{fill:#ba4270;}.b03ce628-4373-40f2-b954-0e3cb3cc7ef4{opacity:0.5;}.ab4cbfb2-3047-4dfa-919b-d97d809dc028{opacity:0.25;}</style><linearGradient id="fca4710d-5201-4693-92e9-adf3f99832e1" x1="131.58607" y1="502" x2="131.58607" y2="489.7007" gradientTransform="matrix(1, 0, 0, -1, 0, 502)" gradientUnits="userSpaceOnUse"><stop offset="0" stop-color="#454545"/><stop offset="0.22628" stop-color="#999"/><stop offset="1" stop-color="#fff"/></linearGradient><linearGradient id="a9dabe91-e09b-4e10-ab3a-b1c9336390f3" x1="260.59843" y1="253.67044" x2="251.11941" y2="253.67044" gradientTransform="matrix(1, 0, 0, -1, 0, 502)" gradientUnits="userSpaceOnUse"><stop offset="0" stop-color="#fff" stop-opacity="0.01"/><stop offset="0.22218" stop-color="#bababa"/><stop offset="0.54678" stop-color="#fff" stop-opacity="0.01"/><stop offset="1" stop-color="#fff" stop-opacity="0.01"/></linearGradient><linearGradient id="f0383f3f-954f-4d15-b9d8-545826133ee4" x1="2.57289" y1="253.67044" x2="12.06694" y2="253.67044" xlink:href="#a9dabe91-e09b-4e10-ab3a-b1c9336390f3"/><mask id="ae99320b-a76c-40a8-925f-77e045f42c60" x="15.10292" y="12.41966" width="233.44382" height="487.58034" maskUnits="userSpaceOnUse"><g id="ae1425a0-1bba-4233-af2f-2251df4eba95" data-name="mask0 0 4969"><path class="a2ab271b-8bc1-4c80-9aeb-d8a57950481d" d="M108.883,12.41966H34.33507c-11.12565,0-19.23215,7.5482-19.23215,17.40659v421.547c0,12.8543,12.52611,24.24254,26.68994,24.24254H221.467c13.644,0,26.69076-11.47705,26.69076-24.24254V30.96567c0-11.816-8.80675-18.47575-19.23258-18.546h-75.73a14.34128,14.34128,0,0,0-7.68762,7.5482c-2.19919,5.37076-6.62259,9.6522-11.4658,9.6522h-5.6257c-2.30238,0-8.36389-2.22525-11.43374-9.6522C113.91357,12.54082,109.17055,12.46647,108.883,12.41966Z"/></g></mask><clipPath id="a3590d05-15bd-459a-b083-304ba15b113e"><rect class="fcca7679-79cd-420b-aa7d-7a714e6ecf49" x="30.05714" y="92.81437" width="204.38857" height="55.88822"/></clipPath></defs><path class="b319a5d7-cf96-4f48-8f37-a97fad1ccbec" d="M35.84425.56836H227.4414c18.37594,0,33.27126,14.20689,33.27126,31.732V466.70161c0,17.52494-14.89532,31.73255-33.27126,31.73255H35.84425c-18.37524,0-33.27136-14.20761-33.27136-31.73255V32.3004C2.57289,14.77525,17.469.56836,35.84425.56836Z"/><path class="acdc173b-956a-4035-988a-d08990c9187f" d="M228.1828,0H34.98922Q21.45975.82185,10.03388,12.2993C14.93259,8.03982,23.67,2.33992,35.22166,2.33992h192.7287c11.551,0,20.28858,5.6999,25.1879,9.95938Q241.712.82175,228.1828,0Z"/><path class="bb1f6dc6-7290-43df-a0ea-6811e31e6ba3" d="M255.48471,461.74753V34.912c0-11.45239-4.225-15.686-6.74583-18.40449s-2.628-4.10508.99389-2.05259,10.86566,8.03064,10.86566,20.45708V461.74753c0,12.42613-7.24378,18.40417-10.86566,20.45707-3.62187,2.05186-3.51467.66566-.99389-2.0529S255.48471,473.1996,255.48471,461.74753Z"/><path class="b22e9aed-df2c-4ef0-bbce-e8b0883a8099" d="M7.68661,461.74753V34.912c0-11.45239,4.22543-15.686,6.74612-18.40449s2.628-4.10508-.99378-2.05259S2.57289,22.48553,2.57289,34.912V461.74753c0,12.42613,7.24417,18.40417,10.86606,20.45707,3.62178,2.05186,3.51448.66566.99378-2.0529S7.68661,473.1996,7.68661,461.74753Z"/><path class="a6423d68-10eb-456d-a459-8fe8ab454408" d="M0,103.35031a1.99962,1.99962,0,0,1,2.00381-1.996h.96634a1.99962,1.99962,0,0,1,2.00381,1.996v60.22953a1.99963,1.99963,0,0,1-2.00381,1.996H2.00381A1.99963,1.99963,0,0,1,0,163.57984Z"/><path class="a6423d68-10eb-456d-a459-8fe8ab454408" d="M258.02555,155.73154a2.00064,2.00064,0,0,1,2.00381-1.996h.96683A2,2,0,0,1,263,155.73154V198.5958a1.99935,1.99935,0,0,1-2.00381,1.996h-.96683a2,2,0,0,1-2.00381-1.996Z"/><path class="a8e8d5c9-8d4b-4360-8287-e4bfdc24b542" d="M108.883,12.41966H34.33507c-11.12565,0-19.23215,7.5482-19.23215,17.40659v421.547c0,12.8543,12.52611,24.24254,26.68994,24.24254H221.467c13.644,0,26.69076-11.47705,26.69076-24.24254V30.96567c0-11.816-8.80675-18.47575-19.23258-18.546h-75.73a14.34128,14.34128,0,0,0-7.68762,7.5482c-2.19919,5.37076-6.62259,9.6522-11.4658,9.6522h-5.6257c-2.30238,0-8.36389-2.22525-11.43374-9.6522C113.91357,12.54082,109.17055,12.46647,108.883,12.41966Z"/><g class="b67cf3a8-9c07-4215-8e2a-32c35b733e3f"><path class="f4ebd915-cb89-485a-b5aa-eafc9f928c18" d="M35.06667,172.65469H229.43619a4.9998,4.9998,0,0,1,5.00952,4.99v29.94012a4.99981,4.99981,0,0,1-5.00952,4.99H35.06667a4.99982,4.99982,0,0,1-5.00953-4.99V177.64471A4.9998,4.9998,0,0,1,35.06667,172.65469Z"/><path class="ba03c4bf-a358-4633-83a4-9c54fb9695d8" d="M47.04444,189.39122h.92676v7.21557h-.92676Zm5.22092,2.72954H51.09814v3.20858a1.11779,1.11779,0,0,0,.05511.40419.28656.28656,0,0,0,.19537.15969,1.66542,1.66542,0,0,0,.38072.03493h.56608v.61876a1.47515,1.47515,0,0,1-.29055.05988,3.6976,3.6976,0,0,1-.47591.02494,1.92933,1.92933,0,0,1-.83158-.1447.83142.83142,0,0,1-.41579-.42915,1.87792,1.87792,0,0,1-.11522-.6986v-3.23852h-.84159v-.67365h.86664l.22543-1.502h.68129v1.497h1.16722Zm1.77839,2.12076a2.35748,2.35748,0,0,0,.1603.88822,1.34821,1.34821,0,0,0,1.33253.86327,1.53994,1.53994,0,0,0,.85162-.22954,1.02877,1.02877,0,0,0,.46088-.66366h.87666a1.74447,1.74447,0,0,1-.4208.88322,2.0962,2.0962,0,0,1-.78649.54391,2.628,2.628,0,0,1-.96183.17965,2.53469,2.53469,0,0,1-1.27743-.31437,2.19089,2.19089,0,0,1-.86163-.90319,2.98556,2.98556,0,0,1-.3106-1.41219,3.39831,3.39831,0,0,1,.28054-1.42714,2.20728,2.20728,0,0,1,.81154-.95809,2.33214,2.33214,0,0,1,1.28744-.34431,2.30094,2.30094,0,0,1,1.23736.31437,1.97836,1.97836,0,0,1,.76645.88823,3.16915,3.16915,0,0,1,.26552,1.35229v.33933Zm.005-.62375H56.8641a2.02635,2.02635,0,0,0-.15028-.79841,1.2216,1.2216,0,0,0-.46087-.56387,1.514,1.514,0,0,0-1.578.02494,1.43777,1.43777,0,0,0-.4759.59382A1.805,1.805,0,0,0,54.04875,193.61777Zm4.90232,2.989v-5.15968h.8917v.7485a2.03523,2.03523,0,0,1,.59112-.59381,1.70955,1.70955,0,0,1,.97686-.2545,1.84046,1.84046,0,0,1,.57108.09481,1.734,1.734,0,0,1,.541.28444,1.3226,1.3226,0,0,1,.38073.46407,1.79151,1.79151,0,0,1,.65123-.60879,1.83232,1.83232,0,0,1,.92677-.23453,2.0403,2.0403,0,0,1,.56608.08484,1.41867,1.41867,0,0,1,.546.28941,1.46658,1.46658,0,0,1,.4158.57385,2.341,2.341,0,0,1,.1603.93813v3.37326H65.238v-3.28343a1.43556,1.43556,0,0,0-.15029-.72356.83608.83608,0,0,0-.39575-.36428,1.27867,1.27867,0,0,0-.516-.10478,1.55555,1.55555,0,0,0-.511.09481,1.05047,1.05047,0,0,0-.46087.31935.91735.91735,0,0,0-.19036.61378v3.44811H62.092v-3.5529a.78506.78506,0,0,0-.16531-.509,1.01181,1.01181,0,0,0-.40577-.30938,1.19539,1.19539,0,0,0-.48091-.10478,1.47475,1.47475,0,0,0-.536.10478,1.08188,1.08188,0,0,0-.45086.33434.91244.91244,0,0,0-.18034.58882v3.44811Zm12.90254-7.16566-1.08707,7.18063-.57109-.07985,1.09208-7.16566Zm2.0539,0-1.08707,7.18063-.57108-.07985,1.09208-7.16566Zm.4208,4.26146v.56388H69.37389v-.56388Zm.32061-2.04591v.56387H69.6945v-.56387Zm3.39045-2.36526a2.21158,2.21158,0,0,1,1.87356.94312,5.85694,5.85694,0,0,1,.005,5.5489,2.37655,2.37655,0,0,1-3.77217.005,4.5734,4.5734,0,0,1-.69633-2.75948,5.77638,5.77638,0,0,1,.32062-2.06586,2.66814,2.66814,0,0,1,.9017-1.2525A2.27281,2.27281,0,0,1,78.03937,189.29142Zm0,6.62674a1.27827,1.27827,0,0,0,1.17223-.67863,4.6083,4.6083,0,0,0,.40075-2.22057,4.66364,4.66364,0,0,0-.40577-2.25548,1.27992,1.27992,0,0,0-1.17222-.69362,1.30485,1.30485,0,0,0-1.18226.6986,4.61118,4.61118,0,0,0-.41077,2.2505,4.48447,4.48447,0,0,0,.41077,2.21557A1.30651,1.30651,0,0,0,78.03937,195.91816Zm5.98837-6.62674a2.20913,2.20913,0,0,1,1.87358.94312,5.85691,5.85691,0,0,1,.005,5.5489,2.37655,2.37655,0,0,1-3.77217.005,4.58048,4.58048,0,0,1-.69632-2.75948,5.79911,5.79911,0,0,1,.3206-2.06586,2.68182,2.68182,0,0,1,.90172-1.2525A2.277,2.277,0,0,1,84.02774,189.29142Zm0,6.62674A1.27615,1.27615,0,0,0,85.2,195.23953a4.59605,4.59605,0,0,0,.40077-2.22057,4.66375,4.66375,0,0,0-.40577-2.25548,1.27785,1.27785,0,0,0-1.17222-.69362,1.3059,1.3059,0,0,0-1.18226.6986,4.62286,4.62286,0,0,0-.41078,2.2505,4.49582,4.49582,0,0,0,.41078,2.21557A1.30863,1.30863,0,0,0,84.02774,195.91816Zm4.85023.68863v-5.74352H87.48031v-.60379a4.19877,4.19877,0,0,0,1.01193-.09481.91586.91586,0,0,0,.511-.28942.81921.81921,0,0,0,.17032-.484h.66126v7.21557Z"/><path class="e2350cd7-dcaa-406f-ab24-d254b28d383e" d="M197.50149,196.73653a5.02534,5.02534,0,0,1-2.74824-.67466,2.69826,2.69826,0,0,1-1.2113-2.0958l1.97976-.03892a1.56513,1.56513,0,0,0,.67028.98,2.3862,2.3862,0,0,0,1.30248.33035,2.13625,2.13625,0,0,0,.82758-.1487,1.45438,1.45438,0,0,0,.57308-.41517.95693.95693,0,0,0,.2084-.60381.90882.90882,0,0,0-.33263-.77145,2.62492,2.62492,0,0,0-1.022-.41517l-1.54394-.33033a3.33845,3.33845,0,0,1-1.72528-.85031,2.36272,2.36272,0,0,1-.65825-1.71955,2.43629,2.43629,0,0,1,.4759-1.524,3.12938,3.12938,0,0,1,1.32151-.999,4.84733,4.84733,0,0,1,1.8826-.35032,4.13063,4.13063,0,0,1,1.84249.38225,2.8732,2.8732,0,0,1,1.19827,1.019,2.41268,2.41268,0,0,1,.41079,1.40719l-1.92165.03292a1.80655,1.80655,0,0,0-.4168-.98,1.40757,1.40757,0,0,0-1.08105-.35629,2.63546,2.63546,0,0,0-.69633.08384,1.69993,1.69993,0,0,0-.528.24051,1.06967,1.06967,0,0,0-.33865.35629.97455.97455,0,0,0-.11021.46706.81878.81878,0,0,0,.27352.64872,2.87649,2.87649,0,0,0,1.048.43511l1.51788.36928a3.15554,3.15554,0,0,1,1.84951,1.0449,2.84653,2.84653,0,0,1,.5731,1.79641,2.30187,2.30187,0,0,1-.44986,1.41417,2.84026,2.84026,0,0,1-1.25639.93413A5.04918,5.04918,0,0,1,197.50149,196.73653Zm-.81456-10.85329h1.64813v1.68663h-1.64813Zm-.03206,10.27544H198.296v1.68763h-1.64112Zm5.74292.44811v-1.41418a2.65827,2.65827,0,0,1,.2675-1.23252,2.99222,2.99222,0,0,1,.70334-.90819,5.56941,5.56941,0,0,1,.96384-.68164q.52752-.29192,1.055-.5509t.96384-.519a2.7198,2.7198,0,0,0,.70932-.59082,1.16376,1.16376,0,0,0,.26751-.76546,1.18043,1.18043,0,0,0-.39776-.92116,1.53365,1.53365,0,0,0-1.074-.35629,1.83121,1.83121,0,0,0-1.2053.40818,1.86919,1.86919,0,0,0-.61215,1.23254h-1.81646a3.37637,3.37637,0,0,1,.41679-1.62176,2.91448,2.91448,0,0,1,1.22435-1.16069,4.36269,4.36269,0,0,1,2.04487-.42814,4.2556,4.2556,0,0,1,1.81644.3563,2.768,2.768,0,0,1,1.18527.993,2.91077,2.91077,0,0,1,.1563,2.70459,2.78073,2.78073,0,0,1-.69031.87624,5.28873,5.28873,0,0,1-.94381.63574q-.51546.27245-1.029.506-.50795.23354-.93776.48a2.47781,2.47781,0,0,0-.69034.54491,1.08691,1.08691,0,0,0-.26047.73253v.08484h4.7991v1.59581Zm11.4628.14272a4.0132,4.0132,0,0,1-1.64112-.33734,3.20278,3.20278,0,0,1-1.24336-.9471,2.57912,2.57912,0,0,1-.541-1.44013h1.81045a1.55879,1.55879,0,0,0,.521.88823,1.52844,1.52844,0,0,0,1.01594.33734,2.18915,2.18915,0,0,0,1.18523-.31738,1.90363,1.90363,0,0,0,.76846-1.012,4.39141,4.39141,0,0,0,.18236-1.81637,1.89991,1.89991,0,0,1-.508.6028,2.40854,2.40854,0,0,1-.74843.39621,3.16334,3.16334,0,0,1-.95781.13573,3.88025,3.88025,0,0,1-1.69925-.3563,2.82965,2.82965,0,0,1-1.15919-1.02494,2.92268,2.92268,0,0,1-.4168-1.58284,3.01262,3.01262,0,0,1,1.68019-2.77046,4.01694,4.01694,0,0,1,1.86255-.40819,3.66683,3.66683,0,0,1,2.06392.57086,3.58662,3.58662,0,0,1,1.33555,1.60879,5.89509,5.89509,0,0,1,.46888,2.4451,7.13058,7.13058,0,0,1-.4819,2.8024,3.53728,3.53728,0,0,1-1.36762,1.67365A3.96815,3.96815,0,0,1,213.86059,196.74951Zm.1693-5.015a1.78176,1.78176,0,0,0,.76849-.17466,1.93581,1.93581,0,0,0,.61915-.45407.84906.84906,0,0,0,.24045-.56488,2.48907,2.48907,0,0,0-.20137-1.07685,1.553,1.553,0,0,0-.57308-.69362,1.52172,1.52172,0,0,0-.85364-.24051,1.55044,1.55044,0,0,0-.80051.20759,1.47122,1.47122,0,0,0-.55406.58382,1.81687,1.81687,0,0,0-.20137.86927,1.49962,1.49962,0,0,0,.4298,1.14171A1.57915,1.57915,0,0,0,214.02989,191.73453Z"/><path class="f4ebd915-cb89-485a-b5aa-eafc9f928c18" d="M35.06667,220.55888H229.43619a4.99981,4.99981,0,0,1,5.00952,4.99V255.489a4.99981,4.99981,0,0,1-5.00952,4.99H35.06667a4.99982,4.99982,0,0,1-5.00953-4.99V225.5489A4.99982,4.99982,0,0,1,35.06667,220.55888Z"/><path class="ba03c4bf-a358-4633-83a4-9c54fb9695d8" d="M47.04444,237.2954h.92676V244.511h-.92676Zm5.22092,2.72955H51.09814v3.20858a1.11775,1.11775,0,0,0,.05511.40419.28651.28651,0,0,0,.19537.15969,1.66485,1.66485,0,0,0,.38072.03493h.56608v.61876a1.47441,1.47441,0,0,1-.29055.05988,3.6976,3.6976,0,0,1-.47591.02494,1.92963,1.92963,0,0,1-.83158-.1447.83142.83142,0,0,1-.41579-.42913,1.878,1.878,0,0,1-.11522-.69862V240.025h-.84159v-.67367h.86664l.22543-1.502h.68129v1.497h1.16722Zm1.77839,2.12076a2.35742,2.35742,0,0,0,.1603.88821,1.34825,1.34825,0,0,0,1.33253.8633,1.53986,1.53986,0,0,0,.85162-.22956,1.02873,1.02873,0,0,0,.46088-.66368h.87666a1.74449,1.74449,0,0,1-.4208.88325,2.09668,2.09668,0,0,1-.78649.54392,2.628,2.628,0,0,1-.96183.17963,2.53469,2.53469,0,0,1-1.27743-.31437,2.19065,2.19065,0,0,1-.86163-.90319,2.98553,2.98553,0,0,1-.3106-1.41219,3.39823,3.39823,0,0,1,.28054-1.42713,2.20709,2.20709,0,0,1,.81154-.95808,2.332,2.332,0,0,1,1.28744-.34431,2.30068,2.30068,0,0,1,1.23736.31437,1.9782,1.9782,0,0,1,.76645.88821,3.16921,3.16921,0,0,1,.26552,1.35231v.33931Zm.005-.62375H56.8641a2.02647,2.02647,0,0,0-.15028-.79842,1.22157,1.22157,0,0,0-.46087-.56384,1.5139,1.5139,0,0,0-1.578.02494,1.43761,1.43761,0,0,0-.4759.59381A1.8049,1.8049,0,0,0,54.04875,241.522Zm4.90232,2.989v-5.1597h.8917v.74851a2.03562,2.03562,0,0,1,.59112-.59382,1.7097,1.7097,0,0,1,.97686-.25446,1.84017,1.84017,0,0,1,.57108.09481,1.73393,1.73393,0,0,1,.541.2844,1.32279,1.32279,0,0,1,.38073.4641,1.79145,1.79145,0,0,1,.65123-.6088,1.83251,1.83251,0,0,1,.92677-.23451,2.04025,2.04025,0,0,1,.56608.08482,1.41859,1.41859,0,0,1,.546.28943,1.46651,1.46651,0,0,1,.4158.57383,2.341,2.341,0,0,1,.1603.93813V244.511H65.238v-3.28344a1.43561,1.43561,0,0,0-.15029-.72356.83613.83613,0,0,0-.39575-.36426,1.27833,1.27833,0,0,0-.516-.10478,1.55576,1.55576,0,0,0-.511.09479,1.05057,1.05057,0,0,0-.46087.31936.91735.91735,0,0,0-.19036.6138V244.511H62.092v-3.55289a.785.785,0,0,0-.16531-.509,1.0117,1.0117,0,0,0-.40577-.30937,1.19505,1.19505,0,0,0-.48091-.10478,1.47433,1.47433,0,0,0-.536.10478,1.08184,1.08184,0,0,0-.45086.33432.91253.91253,0,0,0-.18034.58885V244.511Zm12.90254-7.16566L70.76654,244.526l-.57109-.07985,1.09208-7.16567Zm2.0539,0L72.82044,244.526l-.57108-.07985,1.09208-7.16567Zm.4208,4.26146v.56388H69.37389v-.56388Zm.32061-2.04589v.56387H69.6945v-.56387Zm3.39045-2.36527a2.21158,2.21158,0,0,1,1.87356.94309,5.85694,5.85694,0,0,1,.005,5.5489,2.37656,2.37656,0,0,1-3.77217.005,4.57333,4.57333,0,0,1-.69633-2.75947,5.77655,5.77655,0,0,1,.32062-2.06587,2.66814,2.66814,0,0,1,.9017-1.2525A2.27281,2.27281,0,0,1,78.03937,237.19562Zm0,6.62673a1.27823,1.27823,0,0,0,1.17223-.67863,4.6083,4.6083,0,0,0,.40075-2.22057,4.66386,4.66386,0,0,0-.40577-2.2555,1.28,1.28,0,0,0-1.17222-.69359,1.30487,1.30487,0,0,0-1.18226.69859,4.61116,4.61116,0,0,0-.41077,2.2505,4.48441,4.48441,0,0,0,.41077,2.21557A1.30651,1.30651,0,0,0,78.03937,243.82235Zm5.98837-6.62673a2.20913,2.20913,0,0,1,1.87358.94309,5.85691,5.85691,0,0,1,.005,5.5489,2.37656,2.37656,0,0,1-3.77217.005,4.5804,4.5804,0,0,1-.69632-2.75947,5.79928,5.79928,0,0,1,.3206-2.06587,2.68182,2.68182,0,0,1,.90172-1.2525A2.277,2.277,0,0,1,84.02774,237.19562Zm0,6.62673A1.27612,1.27612,0,0,0,85.2,243.14372a4.59605,4.59605,0,0,0,.40077-2.22057,4.664,4.664,0,0,0-.40577-2.2555,1.27788,1.27788,0,0,0-1.17222-.69359,1.30593,1.30593,0,0,0-1.18226.69859,4.62284,4.62284,0,0,0-.41078,2.2505,4.49577,4.49577,0,0,0,.41078,2.21557A1.30863,1.30863,0,0,0,84.02774,243.82235Zm3.60786.68863v-.85827a2.09946,2.09946,0,0,1,.20539-.95811,2.4214,2.4214,0,0,1,.551-.70358,4.934,4.934,0,0,1,.75143-.54392q.4118-.23954.81656-.45907a7.70072,7.70072,0,0,0,.75143-.46407,2.16829,2.16829,0,0,0,.546-.54892,1.26476,1.26476,0,0,0,.21041-.72853,1.1345,1.1345,0,0,0-.39074-.89323,1.514,1.514,0,0,0-1.047-.34431,1.61332,1.61332,0,0,0-1.14217.39922,1.57239,1.57239,0,0,0-.48592,1.06288h-.92175a2.36414,2.36414,0,0,1,.31059-1.13774,2.14585,2.14585,0,0,1,.86665-.82833,2.92214,2.92214,0,0,1,1.40767-.30938,2.86894,2.86894,0,0,1,1.26241.25946,1.91431,1.91431,0,0,1,.82657.71857,1.93619,1.93619,0,0,1,.29556,1.07286,2.06945,2.06945,0,0,1-.20539.95808,2.28311,2.28311,0,0,1-.546.69362,4.67213,4.67213,0,0,1-.7364.51895q-.39977.22907-.80654.44412a6.51022,6.51022,0,0,0-.7414.44412,2.05067,2.05067,0,0,0-.541.52894,1.23448,1.23448,0,0,0-.20539.71357v.1447h3.82227v.81837Z"/><path class="e2350cd7-dcaa-406f-ab24-d254b28d383e" d="M191.69945,244.64072a5.02542,5.02542,0,0,1-2.74823-.67464,2.69831,2.69831,0,0,1-1.2113-2.09582l1.97976-.03892a1.56518,1.56518,0,0,0,.67028.98,2.3862,2.3862,0,0,0,1.30248.33034,2.13248,2.13248,0,0,0,.82757-.14869,1.447,1.447,0,0,0,.57309-.41519.951.951,0,0,0,.2084-.60377.90883.90883,0,0,0-.33263-.77147,2.62432,2.62432,0,0,0-1.022-.41515l-1.54394-.33037a3.33839,3.33839,0,0,1-1.72528-.85029,2.36265,2.36265,0,0,1-.65825-1.71955,2.43631,2.43631,0,0,1,.4759-1.524,3.13585,3.13585,0,0,1,1.32151-.999,4.8516,4.8516,0,0,1,1.88259-.35028,4.12475,4.12475,0,0,1,1.8425.38223,2.8732,2.8732,0,0,1,1.19827,1.019,2.40531,2.40531,0,0,1,.41079,1.40719l-1.92165.03292a1.79933,1.79933,0,0,0-.4168-.98,1.4061,1.4061,0,0,0-1.08105-.35628,2.6413,2.6413,0,0,0-.69633.08381,1.7119,1.7119,0,0,0-.528.24052,1.06982,1.06982,0,0,0-.33865.35631.986.986,0,0,0-.11021.46705.8187.8187,0,0,0,.27352.6487,2.87606,2.87606,0,0,0,1.048.43514l1.51788.36925a3.15258,3.15258,0,0,1,1.84951,1.04491,2.84663,2.84663,0,0,1,.5731,1.79643,2.3018,2.3018,0,0,1-.44986,1.41416,2.82906,2.82906,0,0,1-1.25639.93414A5.0496,5.0496,0,0,1,191.69945,244.64072Zm-.81455-10.85329H192.533v1.68663H190.8849Zm-.03206,10.27544H192.494v1.68763h-1.64112Zm7.24778.44811v-7.026h-1.6802v-1.06985a4.62559,4.62559,0,0,0,1.30248-.14969,1.587,1.587,0,0,0,.74943-.44114,1.26758,1.26758,0,0,0,.29254-.69359h1.26341V244.511Zm7.43815-9.51a3.172,3.172,0,0,1,2.65,1.25149,7.13058,7.13058,0,0,1,.013,7.16167,3.49556,3.49556,0,0,1-5.34015,0,5.7382,5.7382,0,0,1-.95682-3.56787,6.97649,6.97649,0,0,1,.44284-2.63971,3.54254,3.54254,0,0,1,1.2564-1.64171A3.31005,3.31005,0,0,1,205.53877,235.001Zm0,8.10177a1.29756,1.29756,0,0,0,1.23033-.74548,5.84178,5.84178,0,0,0,.39073-2.511,6.07089,6.07089,0,0,0-.39675-2.57484,1.30214,1.30214,0,0,0-1.23134-.77844,1.32559,1.32559,0,0,0-1.24337.78444,5.98329,5.98329,0,0,0-.40375,2.56884,5.64528,5.64528,0,0,0,.40375,2.504A1.32691,1.32691,0,0,0,205.53877,243.10278Zm5.64372-7.972H217.233l-.07216,1.54988h-4.4735l-.18232,2.26448a4.50486,4.50486,0,0,1,.98985-.42216,3.97659,3.97659,0,0,1,1.042-.12974,3.85,3.85,0,0,1,1.68622.35729,2.77,2.77,0,0,1,1.18524,1.03092,3.01944,3.01944,0,0,1,.43683,1.66068,3.16894,3.16894,0,0,1-.44986,1.71258,2.93784,2.93784,0,0,1-1.27641,1.10978,4.50491,4.50491,0,0,1-1.94669.38924,5.03485,5.03485,0,0,1-1.71928-.28544,4.40023,4.40023,0,0,1-1.37462-.77844,3.39077,3.39077,0,0,1-.87868-1.1417l1.48484-.87627a4.67693,4.67693,0,0,0,.57309.79842,2.49389,2.49389,0,0,0,.7354.55788,2.27488,2.27488,0,0,0,.98387.20058,1.99827,1.99827,0,0,0,1.36059-.4471,1.47568,1.47568,0,0,0,.51495-1.16765,1.44738,1.44738,0,0,0-.23442-.81139,1.59041,1.59041,0,0,0-.63222-.57085,2.04753,2.04753,0,0,0-.94378-.2076,2.84239,2.84239,0,0,0-.54706.0519,1.89044,1.89044,0,0,0-.521.18165,3.62689,3.62689,0,0,0-.58011.37626.39783.39783,0,0,1-.13025.03889.41309.41309,0,0,1-.13022-.04489l-1.38065-.63573Z"/><path class="f4ebd915-cb89-485a-b5aa-eafc9f928c18" d="M35.06667,268.46307H229.43619a4.99981,4.99981,0,0,1,5.00952,4.99v29.94012a4.99981,4.99981,0,0,1-5.00952,4.99H35.06667a4.99981,4.99981,0,0,1-5.00953-4.99V273.45309A4.99982,4.99982,0,0,1,35.06667,268.46307Z"/><path class="ba03c4bf-a358-4633-83a4-9c54fb9695d8" d="M47.04444,285.19959h.92676v7.21558h-.92676Zm5.22092,2.72956H51.09814v3.20858a1.11783,1.11783,0,0,0,.05511.40419.2865.2865,0,0,0,.19537.15968,1.66485,1.66485,0,0,0,.38072.03493h.56608v.61876a1.47294,1.47294,0,0,1-.29055.05988,3.6976,3.6976,0,0,1-.47591.02494,1.92948,1.92948,0,0,1-.83158-.1447.83142.83142,0,0,1-.41579-.42913,1.878,1.878,0,0,1-.11522-.69862v-3.23851h-.84159v-.67367h.86664l.22543-1.502h.68129v1.497h1.16722Zm1.77839,2.12076a2.35741,2.35741,0,0,0,.1603.8882,1.34825,1.34825,0,0,0,1.33253.8633,1.53994,1.53994,0,0,0,.85162-.22955,1.02875,1.02875,0,0,0,.46088-.66369h.87666a1.74445,1.74445,0,0,1-.4208.88325,2.09668,2.09668,0,0,1-.78649.54392,2.628,2.628,0,0,1-.96183.17964,2.5347,2.5347,0,0,1-1.27743-.31438,2.19065,2.19065,0,0,1-.86163-.90319,2.98549,2.98549,0,0,1-.3106-1.41218,3.39825,3.39825,0,0,1,.28054-1.42714A2.20709,2.20709,0,0,1,54.199,287.5a2.332,2.332,0,0,1,1.28744-.34431,2.30068,2.30068,0,0,1,1.23736.31437,1.97825,1.97825,0,0,1,.76645.88821,3.16921,3.16921,0,0,1,.26552,1.35231v.33932Zm.005-.62376H56.8641a2.02647,2.02647,0,0,0-.15028-.79842,1.22157,1.22157,0,0,0-.46087-.56384,1.5139,1.5139,0,0,0-1.578.02494,1.43761,1.43761,0,0,0-.4759.59381A1.805,1.805,0,0,0,54.04875,289.42615Zm4.90232,2.989v-5.15969h.8917v.7485a2.03547,2.03547,0,0,1,.59112-.59381,1.70962,1.70962,0,0,1,.97686-.25447,1.84017,1.84017,0,0,1,.57108.09481,1.734,1.734,0,0,1,.541.28441,1.32284,1.32284,0,0,1,.38073.46409,1.79142,1.79142,0,0,1,.65123-.60879,1.83241,1.83241,0,0,1,.92677-.23452,2.04025,2.04025,0,0,1,.56608.08482,1.41872,1.41872,0,0,1,.546.28943,1.46647,1.46647,0,0,1,.4158.57384,2.3409,2.3409,0,0,1,.1603.93812v3.37326H65.238v-3.28344a1.43561,1.43561,0,0,0-.15029-.72356.83613.83613,0,0,0-.39575-.36426,1.27832,1.27832,0,0,0-.516-.10477,1.55573,1.55573,0,0,0-.511.09478,1.05051,1.05051,0,0,0-.46087.31937.91731.91731,0,0,0-.19036.61379v3.44809H62.092v-3.55289a.785.785,0,0,0-.16531-.509,1.01172,1.01172,0,0,0-.40577-.30938,1.195,1.195,0,0,0-.48091-.10477,1.47432,1.47432,0,0,0-.536.10477,1.08184,1.08184,0,0,0-.45086.33432.91255.91255,0,0,0-.18034.58885v3.44809Zm12.90254-7.16566-1.08707,7.18064-.57109-.07985,1.09208-7.16566Zm2.0539,0-1.08707,7.18064-.57108-.07985,1.09208-7.16566Zm.4208,4.26146v.56388H69.37389V289.511Zm.32061-2.04589v.56387H69.6945v-.56387Zm3.39045-2.36527a2.21158,2.21158,0,0,1,1.87356.94309,5.85694,5.85694,0,0,1,.005,5.5489,2.37655,2.37655,0,0,1-3.77217.005,4.57333,4.57333,0,0,1-.69633-2.75947,5.77655,5.77655,0,0,1,.32062-2.06587,2.66814,2.66814,0,0,1,.9017-1.2525A2.27281,2.27281,0,0,1,78.03937,285.09981Zm0,6.62673a1.27823,1.27823,0,0,0,1.17223-.67863,4.6083,4.6083,0,0,0,.40075-2.22057,4.66379,4.66379,0,0,0-.40577-2.25549,1.27993,1.27993,0,0,0-1.17222-.69359,1.30486,1.30486,0,0,0-1.18226.69858,4.61116,4.61116,0,0,0-.41077,2.2505,4.48439,4.48439,0,0,0,.41077,2.21557A1.30651,1.30651,0,0,0,78.03937,291.72654Zm5.98837-6.62673a2.20913,2.20913,0,0,1,1.87358.94309,5.85691,5.85691,0,0,1,.005,5.5489,2.37655,2.37655,0,0,1-3.77217.005,4.5804,4.5804,0,0,1-.69632-2.75947,5.79928,5.79928,0,0,1,.3206-2.06587,2.68182,2.68182,0,0,1,.90172-1.2525A2.277,2.277,0,0,1,84.02774,285.09981Zm0,6.62673A1.27612,1.27612,0,0,0,85.2,291.04791a4.59605,4.59605,0,0,0,.40077-2.22057,4.66391,4.66391,0,0,0-.40577-2.25549,1.27786,1.27786,0,0,0-1.17222-.69359,1.30592,1.30592,0,0,0-1.18226.69858,4.62284,4.62284,0,0,0-.41078,2.2505,4.49575,4.49575,0,0,0,.41078,2.21557A1.30863,1.30863,0,0,0,84.02774,291.72654Zm3.49466-4.42614a2.0234,2.0234,0,0,1,.34064-1.18763,2.17994,2.17994,0,0,1,.90672-.7535,3.00823,3.00823,0,0,1,1.2574-.25946,3.70406,3.70406,0,0,1,1.32752.21957,2.0018,2.0018,0,0,1,.90171.62871,1.58726,1.58726,0,0,1,.32563,1.013,1.52724,1.52724,0,0,1-.34066.96807,2.21865,2.21865,0,0,1-1.042.67364,2.64664,2.64664,0,0,1,.83159.37924,1.763,1.763,0,0,1,.55105.61377,1.70761,1.70761,0,0,1,.19536.82836,1.8555,1.8555,0,0,1-.21039.8882,1.93491,1.93491,0,0,1-.58111.66369,2.83822,2.83822,0,0,1-.88669.41418,4.10236,4.10236,0,0,1-1.11212.13471,3.09773,3.09773,0,0,1-1.31749-.27445,2.09545,2.09545,0,0,1-1.24237-1.91116H88.354a1.57889,1.57889,0,0,0,.551,1.03291,1.72327,1.72327,0,0,0,1.11713.3593,2.40009,2.40009,0,0,0,.92677-.16468,1.43106,1.43106,0,0,0,.61116-.46407,1.22406,1.22406,0,0,0-.02506-1.42214,1.47609,1.47609,0,0,0-.65624-.45411,2.62624,2.62624,0,0,0-.92675-.16465l-.65125-.015v-.78344l.62119-.01495a2.17078,2.17078,0,0,0,.85161-.17967,1.55371,1.55371,0,0,0,.59112-.45408.99316.99316,0,0,0,.22042-.62375.9233.9233,0,0,0-.18535-.55388,1.26692,1.26692,0,0,0-.536-.41418,2.05976,2.05976,0,0,0-.8416-.15469,1.85848,1.85848,0,0,0-.74641.15469,1.37294,1.37294,0,0,0-.58612.46406,1.42011,1.42011,0,0,0-.24546.81338Z"/><path class="e2350cd7-dcaa-406f-ab24-d254b28d383e" d="M191.75055,292.54492a5.02536,5.02536,0,0,1-2.74822-.67465,2.69822,2.69822,0,0,1-1.21131-2.09582l1.97976-.03892a1.56525,1.56525,0,0,0,.67027.98,2.38629,2.38629,0,0,0,1.30248.33033,2.13585,2.13585,0,0,0,.82758-.14869,1.45414,1.45414,0,0,0,.57308-.41519.9568.9568,0,0,0,.2084-.60377.90883.90883,0,0,0-.33263-.77147,2.62456,2.62456,0,0,0-1.022-.41515l-1.54393-.33036a3.33843,3.33843,0,0,1-1.72528-.85029,2.36265,2.36265,0,0,1-.65825-1.71956,2.43626,2.43626,0,0,1,.47591-1.524,3.13575,3.13575,0,0,1,1.32151-.999,4.84789,4.84789,0,0,1,1.88258-.35028,4.12781,4.12781,0,0,1,1.8425.38223,2.87335,2.87335,0,0,1,1.19828,1.019,2.41245,2.41245,0,0,1,.41077,1.40719l-1.92165.03292a1.79911,1.79911,0,0,0-.4168-.98,1.406,1.406,0,0,0-1.08105-.35628,2.63578,2.63578,0,0,0-.69631.08381,1.712,1.712,0,0,0-.528.24052,1.06989,1.06989,0,0,0-.33864.35631.98609.98609,0,0,0-.11021.46706.81872.81872,0,0,0,.27351.64869,2.87606,2.87606,0,0,0,1.048.43514l1.51788.36925a3.15569,3.15569,0,0,1,1.84951,1.04491,2.84651,2.84651,0,0,1,.5731,1.79643,2.30167,2.30167,0,0,1-.44986,1.41416,2.83451,2.83451,0,0,1-1.25639.93414A5.04947,5.04947,0,0,1,191.75055,292.54492Zm-.81456-10.8533h1.64814v1.68663H190.936Zm-.032,10.27544h1.64112v1.68764h-1.64112Zm9.37081-9.06186a4.64408,4.64408,0,0,1,1.73229.30438,2.74031,2.74031,0,0,1,1.21131.89521,2.3117,2.3117,0,0,1,.44283,1.44012,1.92259,1.92259,0,0,1-.39775,1.22655,2.66446,2.66446,0,0,1-.97686.77844,1.97858,1.97858,0,0,1,.8406.42813,2.66433,2.66433,0,0,1,.68331.81737,2.06173,2.06173,0,0,1,.2675,1.018,2.305,2.305,0,0,1-.47591,1.45309,2.98868,2.98868,0,0,1-1.32851.95408,6.1583,6.1583,0,0,1-3.98559,0,3.046,3.046,0,0,1-1.32852-.95408,2.31024,2.31024,0,0,1-.47491-1.45309,2.07132,2.07132,0,0,1,.26651-1.018,2.71818,2.71818,0,0,1,.67728-.81737,1.97651,1.97651,0,0,1,.84661-.42813,2.73448,2.73448,0,0,1-.98285-.77844,1.90368,1.90368,0,0,1-.40377-1.22655,2.31176,2.31176,0,0,1,.44283-1.44012,2.78194,2.78194,0,0,1,1.21732-.89521A4.6639,4.6639,0,0,1,200.27475,282.9052Zm0,3.91118a1.62084,1.62084,0,0,0,1.068-.34334,1.31621,1.31621,0,0,0,0-1.93311,1.766,1.766,0,0,0-2.13006,0,1.31621,1.31621,0,0,0,0,1.93311A1.62825,1.62825,0,0,0,200.27475,286.81638Zm0,4.30737a2.05309,2.05309,0,0,0,1.30248-.36926,1.20441,1.20441,0,0,0,.4749-.993,1.24777,1.24777,0,0,0-.21441-.72654,1.4404,1.4404,0,0,0-.61216-.499,2.27817,2.27817,0,0,0-.95081-.18164,2.24138,2.24138,0,0,0-.93779.18164,1.44052,1.44052,0,0,0-.61216.499,1.24844,1.24844,0,0,0-.2154.72654,1.20528,1.20528,0,0,0,.47589.993A2.0463,2.0463,0,0,0,200.27475,291.12375Zm6.51539,1.29142v-7.026h-1.6802v-1.06985a4.63045,4.63045,0,0,0,1.30247-.14969,1.58832,1.58832,0,0,0,.74843-.44114,1.26878,1.26878,0,0,0,.29356-.69359h1.26342v9.38023Zm7.43714-9.51a3.17391,3.17391,0,0,1,2.651,1.25149,7.137,7.137,0,0,1,.013,7.16167,3.49557,3.49557,0,0,1-5.34016,0,5.73809,5.73809,0,0,1-.95782-3.56787,6.97611,6.97611,0,0,1,.44286-2.63971,3.55043,3.55043,0,0,1,1.25739-1.64171A3.30685,3.30685,0,0,1,214.22728,282.9052Zm0,8.10178a1.299,1.299,0,0,0,1.23135-.74549,5.84194,5.84194,0,0,0,.39073-2.511,6.0678,6.0678,0,0,0-.39776-2.57484,1.30077,1.30077,0,0,0-1.23034-.77844,1.327,1.327,0,0,0-1.24437.78444,5.98332,5.98332,0,0,0-.40375,2.56884,5.64525,5.64525,0,0,0,.40375,2.504A1.32884,1.32884,0,0,0,214.22728,291.007Z"/><path class="f4ebd915-cb89-485a-b5aa-eafc9f928c18" d="M35.06667,316.36727H229.43619a4.99981,4.99981,0,0,1,5.00952,4.99v29.94012a4.99981,4.99981,0,0,1-5.00952,4.99H35.06667a4.99982,4.99982,0,0,1-5.00953-4.99V321.35729A4.99981,4.99981,0,0,1,35.06667,316.36727Z"/><path class="ba03c4bf-a358-4633-83a4-9c54fb9695d8" d="M47.04444,333.10378h.92676v7.21558h-.92676Zm5.22092,2.72956H51.09814v3.20858a1.11775,1.11775,0,0,0,.05511.40419.2865.2865,0,0,0,.19537.15968,1.66419,1.66419,0,0,0,.38072.03494h.56608v.61875a1.47294,1.47294,0,0,1-.29055.05988,3.69556,3.69556,0,0,1-.47591.02495,1.92963,1.92963,0,0,1-.83158-.1447.83147.83147,0,0,1-.41579-.42914,1.87794,1.87794,0,0,1-.11522-.69861v-3.23852h-.84159v-.67367h.86664l.22543-1.502h.68129v1.497h1.16722Zm1.77839,2.12076a2.35741,2.35741,0,0,0,.1603.8882,1.34825,1.34825,0,0,0,1.33253.8633,1.53986,1.53986,0,0,0,.85162-.22955,1.02873,1.02873,0,0,0,.46088-.66368h.87666a1.74446,1.74446,0,0,1-.4208.88324,2.09668,2.09668,0,0,1-.78649.54392,2.628,2.628,0,0,1-.96183.17964,2.53459,2.53459,0,0,1-1.27743-.31438,2.19065,2.19065,0,0,1-.86163-.90319,2.98549,2.98549,0,0,1-.3106-1.41218,3.39825,3.39825,0,0,1,.28054-1.42714,2.20714,2.20714,0,0,1,.81154-.95808,2.332,2.332,0,0,1,1.28744-.34431,2.30068,2.30068,0,0,1,1.23736.31437,1.97825,1.97825,0,0,1,.76645.88821,3.16921,3.16921,0,0,1,.26552,1.35231v.33932Zm.005-.62376H56.8641a2.02647,2.02647,0,0,0-.15028-.79842,1.22157,1.22157,0,0,0-.46087-.56384,1.514,1.514,0,0,0-1.578.02494,1.43757,1.43757,0,0,0-.4759.59382A1.80489,1.80489,0,0,0,54.04875,337.33034Zm4.90232,2.989v-5.15969h.8917v.7485a2.03547,2.03547,0,0,1,.59112-.59381,1.70962,1.70962,0,0,1,.97686-.25447,1.84017,1.84017,0,0,1,.57108.09481,1.73416,1.73416,0,0,1,.541.28441,1.32279,1.32279,0,0,1,.38073.4641,1.79137,1.79137,0,0,1,.65123-.6088,1.83241,1.83241,0,0,1,.92677-.23452,2.04025,2.04025,0,0,1,.56608.08482,1.41886,1.41886,0,0,1,.546.28943,1.46647,1.46647,0,0,1,.4158.57384,2.3409,2.3409,0,0,1,.1603.93812v3.37326H65.238v-3.28344a1.43563,1.43563,0,0,0-.15029-.72356.83618.83618,0,0,0-.39575-.36426,1.27832,1.27832,0,0,0-.516-.10477,1.556,1.556,0,0,0-.511.09478,1.05051,1.05051,0,0,0-.46087.31937.91731.91731,0,0,0-.19036.61379v3.44809H62.092v-3.55289a.785.785,0,0,0-.16531-.509,1.01181,1.01181,0,0,0-.40577-.30938,1.195,1.195,0,0,0-.48091-.10477,1.47432,1.47432,0,0,0-.536.10477,1.08192,1.08192,0,0,0-.45086.33432.91255.91255,0,0,0-.18034.58885v3.44809Zm12.90254-7.16566-1.08707,7.18065-.57109-.07986,1.09208-7.16566Zm2.0539,0-1.08707,7.18065-.57108-.07986,1.09208-7.16566Zm.4208,4.26147v.56387H69.37389v-.56387Zm.32061-2.0459v.56387H69.6945v-.56387Zm3.39045-2.36526a2.21155,2.21155,0,0,1,1.87356.94309,5.85694,5.85694,0,0,1,.005,5.5489,2.37655,2.37655,0,0,1-3.77217.005,4.57331,4.57331,0,0,1-.69633-2.75946,5.77657,5.77657,0,0,1,.32062-2.06588,2.66814,2.66814,0,0,1,.9017-1.2525A2.2728,2.2728,0,0,1,78.03937,333.004Zm0,6.62673a1.27824,1.27824,0,0,0,1.17223-.67864,4.60828,4.60828,0,0,0,.40075-2.22056,4.66381,4.66381,0,0,0-.40577-2.2555,1.27993,1.27993,0,0,0-1.17222-.69359,1.30486,1.30486,0,0,0-1.18226.69858,4.61118,4.61118,0,0,0-.41077,2.25051,4.48444,4.48444,0,0,0,.41077,2.21557A1.30653,1.30653,0,0,0,78.03937,339.63074Zm5.98837-6.62673a2.2091,2.2091,0,0,1,1.87358.94309,5.85691,5.85691,0,0,1,.005,5.5489,2.37655,2.37655,0,0,1-3.77217.005,4.58039,4.58039,0,0,1-.69632-2.75946,5.7993,5.7993,0,0,1,.3206-2.06588,2.68182,2.68182,0,0,1,.90172-1.2525A2.277,2.277,0,0,1,84.02774,333.004Zm0,6.62673A1.27612,1.27612,0,0,0,85.2,338.9521a4.596,4.596,0,0,0,.40077-2.22056,4.66393,4.66393,0,0,0-.40577-2.2555,1.27786,1.27786,0,0,0-1.17222-.69359,1.30592,1.30592,0,0,0-1.18226.69858,4.62286,4.62286,0,0,0-.41078,2.25051,4.4958,4.4958,0,0,0,.41078,2.21557A1.30865,1.30865,0,0,0,84.02774,339.63074Zm6.81-6.527h.94179v4.56089h1.20228v.81337H91.77948v1.84132h-.90672V338.478H87.46127v-.84331ZM88.348,337.66467h2.50477v-3.34832Z"/><path class="e2350cd7-dcaa-406f-ab24-d254b28d383e" d="M183.54494,340.44911a5.0254,5.0254,0,0,1-2.74822-.67465,2.69829,2.69829,0,0,1-1.2113-2.09581l1.97976-.03893a1.56519,1.56519,0,0,0,.67028.98,2.38627,2.38627,0,0,0,1.30247.33033,2.13573,2.13573,0,0,0,.82757-.14869,1.4543,1.4543,0,0,0,.5731-.41518.95684.95684,0,0,0,.20839-.60378.90879.90879,0,0,0-.33263-.77146,2.6244,2.6244,0,0,0-1.022-.41516l-1.54394-.33036a3.33851,3.33851,0,0,1-1.72528-.85029,2.36273,2.36273,0,0,1-.65825-1.71955,2.4363,2.4363,0,0,1,.47591-1.524,3.13576,3.13576,0,0,1,1.32152-.999,4.84776,4.84776,0,0,1,1.88257-.35029,4.12766,4.12766,0,0,1,1.84251.38224,2.87339,2.87339,0,0,1,1.19828,1.01895,2.4127,2.4127,0,0,1,.41078,1.40719l-1.92165.03293a1.79939,1.79939,0,0,0-.41679-.98,1.40614,1.40614,0,0,0-1.08107-.35628,2.63529,2.63529,0,0,0-.69631.08382,1.71218,1.71218,0,0,0-.528.24051,1.07,1.07,0,0,0-.33864.35632.98614.98614,0,0,0-.11021.46705.81872.81872,0,0,0,.27352.64869,2.87606,2.87606,0,0,0,1.048.43514l1.51788.36926a3.15581,3.15581,0,0,1,1.84953,1.0449,2.84663,2.84663,0,0,1,.57308,1.79643,2.30167,2.30167,0,0,1-.44986,1.41416,2.83457,2.83457,0,0,1-1.25639.93414A5.04955,5.04955,0,0,1,183.54494,340.44911Zm-.81455-10.8533h1.64814v1.68663h-1.64814Zm-.03206,10.27544h1.64112v1.68764h-1.64112Zm7.24779.44811v-7.026h-1.6802v-1.06985a4.63,4.63,0,0,0,1.30247-.14969,1.58325,1.58325,0,0,0,.74843-.44114,1.26885,1.26885,0,0,0,.29356-.69359h1.2634v9.38023Zm7.43713-9.51a3.1739,3.1739,0,0,1,2.651,1.25149,7.1371,7.1371,0,0,1,.013,7.16168,3.49559,3.49559,0,0,1-5.34016,0,5.73808,5.73808,0,0,1-.95783-3.56788,6.99638,6.99638,0,0,1,.44284-2.63971,3.55074,3.55074,0,0,1,1.2574-1.64171A3.309,3.309,0,0,1,197.38325,330.80939Zm0,8.10178a1.299,1.299,0,0,0,1.23134-.74549,5.84157,5.84157,0,0,0,.39075-2.511,6.05206,6.05206,0,0,0-.39776-2.57484,1.29984,1.29984,0,0,0-1.23034-.77844,1.327,1.327,0,0,0-1.24437.78444,5.99866,5.99866,0,0,0-.40377,2.56884,5.65957,5.65957,0,0,0,.40377,2.504A1.32887,1.32887,0,0,0,197.38325,338.91117Zm8.88891-7.972h1.86955v5.71556h1.45176v1.58884h-1.45176v2.07583h-1.83048l.007-2.07583H201.981v-1.55692Zm-2.53283,5.71556h2.5789v-3.43913Zm10.97989-5.71556h1.86955v5.71556h1.45176v1.58884h-1.45176v2.07583h-1.83048l.007-2.07583h-4.33722v-1.55692Zm-2.53283,5.71556h2.5789v-3.43913Z"/><path class="f4ebd915-cb89-485a-b5aa-eafc9f928c18" d="M35.06667,364.27146H229.43619a4.99981,4.99981,0,0,1,5.00952,4.99V399.2016a4.99981,4.99981,0,0,1-5.00952,4.99H35.06667a4.99982,4.99982,0,0,1-5.00953-4.99V369.26148A4.99982,4.99982,0,0,1,35.06667,364.27146Z"/><path class="ba03c4bf-a358-4633-83a4-9c54fb9695d8" d="M47.04444,381.008h.92676v7.21558h-.92676Zm5.22092,2.72956H51.09814v3.20858a1.11775,1.11775,0,0,0,.05511.40419.2865.2865,0,0,0,.19537.15968,1.66419,1.66419,0,0,0,.38072.03494h.56608v.61876a1.47382,1.47382,0,0,1-.29055.05987,3.69556,3.69556,0,0,1-.47591.02495,1.92963,1.92963,0,0,1-.83158-.1447.8314.8314,0,0,1-.41579-.42914,1.87794,1.87794,0,0,1-.11522-.69861v-3.23852h-.84159v-.67367h.86664l.22543-1.502h.68129v1.497h1.16722Zm1.77839,2.12076a2.3575,2.3575,0,0,0,.1603.88821,1.34826,1.34826,0,0,0,1.33253.86329,1.53986,1.53986,0,0,0,.85162-.22955,1.02873,1.02873,0,0,0,.46088-.66368h.87666a1.74446,1.74446,0,0,1-.4208.88324,2.09671,2.09671,0,0,1-.78649.54393,2.62818,2.62818,0,0,1-.96183.17963,2.53469,2.53469,0,0,1-1.27743-.31437,2.19073,2.19073,0,0,1-.86163-.9032,2.98549,2.98549,0,0,1-.3106-1.41218,3.39828,3.39828,0,0,1,.28054-1.42714,2.20712,2.20712,0,0,1,.81154-.95807,2.33189,2.33189,0,0,1,1.28744-.34432,2.30059,2.30059,0,0,1,1.23736.31438,1.97817,1.97817,0,0,1,.76645.8882,3.16921,3.16921,0,0,1,.26552,1.35231v.33932Zm.005-.62375H56.8641a2.02649,2.02649,0,0,0-.15028-.79843,1.22157,1.22157,0,0,0-.46087-.56384,1.514,1.514,0,0,0-1.578.02494,1.43757,1.43757,0,0,0-.4759.59382A1.8049,1.8049,0,0,0,54.04875,385.23454Zm4.90232,2.989v-5.15969h.8917v.7485a2.03559,2.03559,0,0,1,.59112-.59381,1.70962,1.70962,0,0,1,.97686-.25447,1.84017,1.84017,0,0,1,.57108.09481,1.73416,1.73416,0,0,1,.541.28441,1.32279,1.32279,0,0,1,.38073.4641,1.79137,1.79137,0,0,1,.65123-.6088,1.83241,1.83241,0,0,1,.92677-.23452,2.04025,2.04025,0,0,1,.56608.08482,1.41886,1.41886,0,0,1,.546.28943,1.46647,1.46647,0,0,1,.4158.57384,2.3409,2.3409,0,0,1,.1603.93812v3.37326H65.238v-3.28344a1.43566,1.43566,0,0,0-.15029-.72356.83618.83618,0,0,0-.39575-.36426,1.27832,1.27832,0,0,0-.516-.10477,1.556,1.556,0,0,0-.511.09478,1.05051,1.05051,0,0,0-.46087.31937.91731.91731,0,0,0-.19036.61379v3.44809H62.092v-3.55289a.785.785,0,0,0-.16531-.509,1.01181,1.01181,0,0,0-.40577-.30938,1.195,1.195,0,0,0-.48091-.10477,1.47432,1.47432,0,0,0-.536.10477,1.08192,1.08192,0,0,0-.45086.33432.91257.91257,0,0,0-.18034.58885v3.44809Zm12.90254-7.16566-1.08707,7.18065-.57109-.07986,1.09208-7.16566Zm2.0539,0-1.08707,7.18065-.57108-.07986,1.09208-7.16566Zm.4208,4.26147v.56387H69.37389v-.56387Zm.32061-2.0459v.56388H69.6945v-.56388Zm3.39045-2.36526a2.21155,2.21155,0,0,1,1.87356.94309,5.85694,5.85694,0,0,1,.005,5.5489,2.37655,2.37655,0,0,1-3.77217.005,4.57331,4.57331,0,0,1-.69633-2.75946,5.77661,5.77661,0,0,1,.32062-2.06588,2.66819,2.66819,0,0,1,.9017-1.2525A2.2728,2.2728,0,0,1,78.03937,380.9082Zm0,6.62673a1.27824,1.27824,0,0,0,1.17223-.67864,4.60825,4.60825,0,0,0,.40075-2.22056,4.66381,4.66381,0,0,0-.40577-2.2555,1.27993,1.27993,0,0,0-1.17222-.69359,1.30488,1.30488,0,0,0-1.18226.69858,4.61118,4.61118,0,0,0-.41077,2.25051,4.48441,4.48441,0,0,0,.41077,2.21557A1.30651,1.30651,0,0,0,78.03937,387.53493Zm5.98837-6.62673a2.2091,2.2091,0,0,1,1.87358.94309,5.85691,5.85691,0,0,1,.005,5.5489,2.37655,2.37655,0,0,1-3.77217.005,4.58039,4.58039,0,0,1-.69632-2.75946,5.79934,5.79934,0,0,1,.3206-2.06588,2.68187,2.68187,0,0,1,.90172-1.2525A2.277,2.277,0,0,1,84.02774,380.9082Zm0,6.62673A1.27612,1.27612,0,0,0,85.2,386.85629a4.596,4.596,0,0,0,.40077-2.22056,4.66393,4.66393,0,0,0-.40577-2.2555,1.27786,1.27786,0,0,0-1.17222-.69359,1.30594,1.30594,0,0,0-1.18226.69858,4.62286,4.62286,0,0,0-.41078,2.25051,4.49577,4.49577,0,0,0,.41078,2.21557A1.30863,1.30863,0,0,0,84.02774,387.53493Zm4.15891-6.527h4.32322l-.025.79842H88.97817l-.18537,2.33034a2.13205,2.13205,0,0,1,.7865-.47406,2.903,2.903,0,0,1,.93178-.1447,2.70791,2.70791,0,0,1,1.2073.26945,2.12382,2.12382,0,0,1,.89169.78843,2.31954,2.31954,0,0,1,.33563,1.28743,2.51991,2.51991,0,0,1-.32562,1.30239,2.24075,2.24075,0,0,1-.91673.86326,2.99571,2.99571,0,0,1-1.38765.30439,3.23464,3.23464,0,0,1-1.24235-.23452,2.91,2.91,0,0,1-.98188-.65369,2.61619,2.61619,0,0,1-.59613-.96307l.80152-.33432a2.97608,2.97608,0,0,0,.45086.72852,1.99108,1.99108,0,0,0,.65124.499,1.95236,1.95236,0,0,0,.85161.17964,1.71634,1.71634,0,0,0,1.23736-.44409,1.601,1.601,0,0,0,.47089-1.21757,1.54286,1.54286,0,0,0-.22042-.83335,1.52028,1.52028,0,0,0-.59613-.55888,1.70683,1.70683,0,0,0-.82156-.19959,2.60484,2.60484,0,0,0-.55105.05489,1.56778,1.56778,0,0,0-.506.19961,2.43117,2.43117,0,0,0-.526.45408.11559.11559,0,0,1-.04508.015c-.01-.003-.02605-.01-.0501-.02l-.78148-.2445Z"/><path class="e2350cd7-dcaa-406f-ab24-d254b28d383e" d="M197.41231,388.3533a5.02538,5.02538,0,0,1-2.74822-.67465,2.69818,2.69818,0,0,1-1.2113-2.09581l1.97976-.03893a1.5652,1.5652,0,0,0,.67026.98,2.38625,2.38625,0,0,0,1.30248.33033,2.13581,2.13581,0,0,0,.82758-.14869,1.454,1.454,0,0,0,.57308-.41518.95678.95678,0,0,0,.20841-.60378.90881.90881,0,0,0-.33264-.77146,2.62441,2.62441,0,0,0-1.02194-.41516l-1.54394-.33036a3.33843,3.33843,0,0,1-1.72528-.85029,2.36264,2.36264,0,0,1-.65825-1.71955,2.4363,2.4363,0,0,1,.47591-1.524,3.13579,3.13579,0,0,1,1.32151-.999,4.848,4.848,0,0,1,1.88258-.35028,4.12778,4.12778,0,0,1,1.84251.38223,2.87346,2.87346,0,0,1,1.19828,1.019,2.41262,2.41262,0,0,1,.41077,1.40719l-1.92166.03293a1.79917,1.79917,0,0,0-.41679-.98,1.40607,1.40607,0,0,0-1.08105-.35628,2.63555,2.63555,0,0,0-.69633.08382,1.71206,1.71206,0,0,0-.528.24051,1.06992,1.06992,0,0,0-.33864.35632.986.986,0,0,0-.11021.467.81874.81874,0,0,0,.27352.6487,2.876,2.876,0,0,0,1.048.43513l1.51789.36926a3.15569,3.15569,0,0,1,1.84951,1.0449,2.84654,2.84654,0,0,1,.57309,1.79643,2.30167,2.30167,0,0,1-.44986,1.41416,2.83448,2.83448,0,0,1-1.25638.93414A5.04955,5.04955,0,0,1,197.41231,388.3533ZM196.59776,377.5h1.64814v1.68663h-1.64814Zm-.03206,10.27544h1.64112v1.68764H196.5657Zm9.85875-8.93211H208.294v5.71556h1.45173v1.58883H208.294v2.07583h-1.83048l.007-2.07583h-4.33725V384.5908Zm-2.53283,5.71556h2.57891v-3.43914Zm10.33566-5.84531a3.17392,3.17392,0,0,1,2.651,1.2515,7.137,7.137,0,0,1,.013,7.16167,3.49559,3.49559,0,0,1-5.34016,0,5.73814,5.73814,0,0,1-.95782-3.56788,6.97615,6.97615,0,0,1,.44286-2.63971,3.55045,3.55045,0,0,1,1.25739-1.6417A3.30678,3.30678,0,0,1,214.22728,378.71358Zm0,8.10178a1.299,1.299,0,0,0,1.23135-.74549,5.84194,5.84194,0,0,0,.39073-2.511,6.06783,6.06783,0,0,0-.39776-2.57484,1.30077,1.30077,0,0,0-1.23034-.77844,1.327,1.327,0,0,0-1.24437.78444,5.98332,5.98332,0,0,0-.40375,2.56884,5.64533,5.64533,0,0,0,.40375,2.504A1.32885,1.32885,0,0,0,214.22728,386.81536Z"/><path class="f4ebd915-cb89-485a-b5aa-eafc9f928c18" d="M35.06667,412.17565H229.43619a4.99981,4.99981,0,0,1,5.00952,4.99v29.94012a4.99981,4.99981,0,0,1-5.00952,4.99H35.06667a4.99982,4.99982,0,0,1-5.00953-4.99V417.16567A4.99982,4.99982,0,0,1,35.06667,412.17565Z"/><path class="ba03c4bf-a358-4633-83a4-9c54fb9695d8" d="M47.04444,428.91216h.92676v7.21558h-.92676Zm5.22092,2.72956H51.09814v3.20858a1.11775,1.11775,0,0,0,.05511.40419.28654.28654,0,0,0,.19537.15969,1.66485,1.66485,0,0,0,.38072.03493h.56608v.61876a1.47382,1.47382,0,0,1-.29055.05987,3.69556,3.69556,0,0,1-.47591.02495,1.92963,1.92963,0,0,1-.83158-.1447.8314.8314,0,0,1-.41579-.42914,1.87794,1.87794,0,0,1-.11522-.69861v-3.23852h-.84159v-.67367h.86664l.22543-1.502h.68129v1.497h1.16722Zm1.77839,2.12076a2.3575,2.3575,0,0,0,.1603.88821,1.34822,1.34822,0,0,0,1.33253.86329,1.53986,1.53986,0,0,0,.85162-.22955,1.02873,1.02873,0,0,0,.46088-.66368h.87666a1.74442,1.74442,0,0,1-.4208.88324,2.09671,2.09671,0,0,1-.78649.54393,2.62818,2.62818,0,0,1-.96183.17963,2.53469,2.53469,0,0,1-1.27743-.31437,2.19067,2.19067,0,0,1-.86163-.9032,2.98549,2.98549,0,0,1-.3106-1.41218,3.39831,3.39831,0,0,1,.28054-1.42714,2.20712,2.20712,0,0,1,.81154-.95807,2.332,2.332,0,0,1,1.28744-.34432,2.30068,2.30068,0,0,1,1.23736.31438,1.97815,1.97815,0,0,1,.76645.88821,3.16917,3.16917,0,0,1,.26552,1.3523v.33932Zm.005-.62375H56.8641a2.0264,2.0264,0,0,0-.15028-.79842,1.22155,1.22155,0,0,0-.46087-.56385,1.51393,1.51393,0,0,0-1.578.02495,1.43748,1.43748,0,0,0-.4759.59381A1.8049,1.8049,0,0,0,54.04875,433.13873Zm4.90232,2.989v-5.15969h.8917v.7485a2.03559,2.03559,0,0,1,.59112-.59381,1.7097,1.7097,0,0,1,.97686-.25447,1.8399,1.8399,0,0,1,.57108.09482,1.73393,1.73393,0,0,1,.541.2844,1.32279,1.32279,0,0,1,.38073.4641,1.79137,1.79137,0,0,1,.65123-.6088,1.83241,1.83241,0,0,1,.92677-.23452,2.0399,2.0399,0,0,1,.56608.08483,1.41859,1.41859,0,0,1,.546.28943,1.46643,1.46643,0,0,1,.4158.57383,2.341,2.341,0,0,1,.1603.93813v3.37325H65.238V432.8443a1.43566,1.43566,0,0,0-.15029-.72356.83623.83623,0,0,0-.39575-.36426,1.27832,1.27832,0,0,0-.516-.10477,1.556,1.556,0,0,0-.511.09478,1.05068,1.05068,0,0,0-.46087.31937.91733.91733,0,0,0-.19036.61379v3.44809H62.092v-3.55289a.785.785,0,0,0-.16531-.509,1.01181,1.01181,0,0,0-.40577-.30938,1.195,1.195,0,0,0-.48091-.10477,1.47432,1.47432,0,0,0-.536.10477,1.082,1.082,0,0,0-.45086.33432.91257.91257,0,0,0-.18034.58885v3.44809Zm12.90254-7.16566-1.08707,7.18065-.57109-.07986,1.09208-7.16566Zm2.0539,0-1.08707,7.18065-.57108-.07986,1.09208-7.16566Zm.4208,4.26147v.56387H69.37389v-.56387Zm.32061-2.0459v.56388H69.6945v-.56388Zm3.39045-2.36526a2.21155,2.21155,0,0,1,1.87356.94309,5.85694,5.85694,0,0,1,.005,5.5489,2.37655,2.37655,0,0,1-3.77217.005,4.57331,4.57331,0,0,1-.69633-2.75946,5.77661,5.77661,0,0,1,.32062-2.06588,2.66819,2.66819,0,0,1,.9017-1.2525A2.2728,2.2728,0,0,1,78.03937,428.81239Zm0,6.62673a1.27824,1.27824,0,0,0,1.17223-.67864,4.60823,4.60823,0,0,0,.40075-2.22056,4.66381,4.66381,0,0,0-.40577-2.2555,1.27993,1.27993,0,0,0-1.17222-.69359,1.30487,1.30487,0,0,0-1.18226.69859,4.61113,4.61113,0,0,0-.41077,2.2505,4.48441,4.48441,0,0,0,.41077,2.21557A1.30651,1.30651,0,0,0,78.03937,435.43912Zm5.98837-6.62673a2.2091,2.2091,0,0,1,1.87358.94309,5.85691,5.85691,0,0,1,.005,5.5489,2.37655,2.37655,0,0,1-3.77217.005,4.58039,4.58039,0,0,1-.69632-2.75946,5.79934,5.79934,0,0,1,.3206-2.06588,2.68187,2.68187,0,0,1,.90172-1.2525A2.277,2.277,0,0,1,84.02774,428.81239Zm0,6.62673A1.27612,1.27612,0,0,0,85.2,434.76048a4.596,4.596,0,0,0,.40077-2.22056,4.66393,4.66393,0,0,0-.40577-2.2555,1.27786,1.27786,0,0,0-1.17222-.69359,1.30593,1.30593,0,0,0-1.18226.69859,4.62281,4.62281,0,0,0-.41078,2.2505,4.49577,4.49577,0,0,0,.41078,2.21557A1.30863,1.30863,0,0,0,84.02774,435.43912Zm6.23487-6.62673a2.69962,2.69962,0,0,1,1.1071.22453,2.19691,2.19691,0,0,1,.84661.64373,2.0154,2.0154,0,0,1,.41578,1.013h-.87165a1.53647,1.53647,0,0,0-.526-.81338,1.50051,1.50051,0,0,0-.95682-.29939,1.605,1.605,0,0,0-1.072.36426,2.06834,2.06834,0,0,0-.62118,1.05788,5.22909,5.22909,0,0,0-.13525,1.70661,1.75635,1.75635,0,0,1,.41077-.63873,1.94028,1.94028,0,0,1,.65125-.42914,2.06641,2.06641,0,0,1,.80152-.15469,2.66832,2.66832,0,0,1,1.25238.27944,2.00754,2.00754,0,0,1,.83659.78843,2.35344,2.35344,0,0,1,.30057,1.21757,2.592,2.592,0,0,1-.31059,1.28241,2.1807,2.1807,0,0,1-.87166.86829,2.71422,2.71422,0,0,1-1.33754.31434,2.488,2.488,0,0,1-1.46279-.43413,2.80854,2.80854,0,0,1-.95682-1.23751,5.04625,5.04625,0,0,1-.33563-1.93613,5.66653,5.66653,0,0,1,.32562-2.016,2.902,2.902,0,0,1,.96183-1.32736A2.50188,2.50188,0,0,1,90.26261,428.81239Zm-.1002,3.42315a1.62923,1.62923,0,0,0-.76144.18962,1.69685,1.69685,0,0,0-.59112.489,1.10439,1.10439,0,0,0-.22544.67364,2.28954,2.28954,0,0,0,.19037.97806,1.62571,1.62571,0,0,0,.56106.66867,1.47625,1.47625,0,0,0,.8366.23951,1.49542,1.49542,0,0,0,.7915-.20957,1.45362,1.45362,0,0,0,.541-.58385,1.80381,1.80381,0,0,0,.20039-.86327,1.85144,1.85144,0,0,0-.18035-.84831,1.22857,1.22857,0,0,0-.521-.54389A1.72413,1.72413,0,0,0,90.16241,432.23554Z"/><path class="e2350cd7-dcaa-406f-ab24-d254b28d383e" d="M180.33885,436.25749a5.02769,5.02769,0,0,1-2.74822-.67465,2.69817,2.69817,0,0,1-1.2113-2.09581l1.97976-.03892a1.56653,1.56653,0,0,0,.67127.98,2.38625,2.38625,0,0,0,1.30248.33033,2.12713,2.12713,0,0,0,.82657-.14869,1.43973,1.43973,0,0,0,.57308-.41518.951.951,0,0,0,.20841-.60377.90821.90821,0,0,0-.33163-.77147,2.62321,2.62321,0,0,0-1.023-.41516l-1.54293-.33036a3.34559,3.34559,0,0,1-1.72629-.85029,2.36192,2.36192,0,0,1-.65724-1.71955,2.44168,2.44168,0,0,1,.4749-1.524,3.13279,3.13279,0,0,1,1.32251-.999,4.84642,4.84642,0,0,1,1.88158-.35028,4.13207,4.13207,0,0,1,1.8435.38223,2.87316,2.87316,0,0,1,1.19828,1.019,2.4045,2.4045,0,0,1,.40978,1.40719l-1.92065.03292a1.80668,1.80668,0,0,0-.41679-.98,1.40758,1.40758,0,0,0-1.08105-.35628,2.64871,2.64871,0,0,0-.69734.08382,1.70577,1.70577,0,0,0-.527.24052,1.06983,1.06983,0,0,0-.33865.35631.975.975,0,0,0-.11121.46705.81874.81874,0,0,0,.27352.6487,2.891,2.891,0,0,0,1.049.43513l1.51689.36926a3.15244,3.15244,0,0,1,1.84951,1.04491,2.84061,2.84061,0,0,1,.57309,1.79642,2.301,2.301,0,0,1-.44885,1.41417,2.83766,2.83766,0,0,1-1.25739.93413A5.04235,5.04235,0,0,1,180.33885,436.25749Zm-.81354-10.85329h1.64713v1.68663h-1.64713Zm-.03307,10.27544h1.64112v1.68763h-1.64112Zm5.74392.4481v-1.41416a2.65837,2.65837,0,0,1,.26751-1.23255,2.993,2.993,0,0,1,.70333-.90819,5.57262,5.57262,0,0,1,.96384-.68162q.52751-.29193,1.055-.5509t.96384-.519a2.73606,2.73606,0,0,0,.70934-.59083,1.1638,1.1638,0,0,0,.26751-.76547,1.18379,1.18379,0,0,0-.39775-.92116,1.53381,1.53381,0,0,0-1.074-.35628,1.82931,1.82931,0,0,0-1.20529.40818,1.86915,1.86915,0,0,0-.61216,1.23252h-1.81645a3.37645,3.37645,0,0,1,.41679-1.62175,2.91441,2.91441,0,0,1,1.22433-1.16068,4.36291,4.36291,0,0,1,2.04488-.42813,4.25573,4.25573,0,0,1,1.81646.35628,2.774,2.774,0,0,1,1.18525.993,2.91057,2.91057,0,0,1,.15629,2.70459,2.78052,2.78052,0,0,1-.69031.87626,5.29029,5.29029,0,0,1-.94379.63573q-.51549.27246-1.02895.506-.508.23355-.93779.48006a2.4773,2.4773,0,0,0-.69031.5449,1.08681,1.08681,0,0,0-.2605.73255v.08482h4.79913v1.5958Zm8.98808-9.38022h6.05051l-.07213,1.54988H195.7291l-.18234,2.26448a4.50429,4.50429,0,0,1,.98988-.42216,3.97606,3.97606,0,0,1,1.042-.12974,3.85,3.85,0,0,1,1.6862.35728,2.76984,2.76984,0,0,1,1.18525,1.03093,3.01951,3.01951,0,0,1,.43684,1.66068,3.16914,3.16914,0,0,1-.44986,1.71258,2.938,2.938,0,0,1-1.27643,1.10978,4.50488,4.50488,0,0,1-1.94669.38923,5.0351,5.0351,0,0,1-1.71928-.28544,4.4,4.4,0,0,1-1.3746-.77844,3.39105,3.39105,0,0,1-.87869-1.1417l1.48483-.87626a4.67858,4.67858,0,0,0,.57309.79842,2.49386,2.49386,0,0,0,.7354.55787,2.27486,2.27486,0,0,0,.98387.20059,1.99822,1.99822,0,0,0,1.36059-.4471,1.47567,1.47567,0,0,0,.515-1.16765,1.44744,1.44744,0,0,0-.23445-.8114,1.59042,1.59042,0,0,0-.6322-.57085,2.04777,2.04777,0,0,0-.9438-.20759,2.84226,2.84226,0,0,0-.547.0519,1.89018,1.89018,0,0,0-.521.18164,3.62758,3.62758,0,0,0-.58011.37626.39783.39783,0,0,1-.13024.0389.413.413,0,0,1-.13025-.0449l-1.38063-.63572Zm11.65918-.12975a4.061,4.061,0,0,1,1.63409.32434,2.9677,2.9677,0,0,1,1.21832.92716,2.51027,2.51027,0,0,1,.521,1.45309h-1.73933a1.64977,1.64977,0,0,0-.57308-.89522,1.62567,1.62567,0,0,0-1.02194-.31139,1.67626,1.67626,0,0,0-1.12714.38324,2.12458,2.12458,0,0,0-.64423,1.06988,4.30385,4.30385,0,0,0-.1042,1.60278,1.921,1.921,0,0,1,.547-.526,2.64625,2.64625,0,0,1,.74244-.33731,3.09576,3.09576,0,0,1,.8526-.11677,3.71743,3.71743,0,0,1,1.67417.35729,2.67658,2.67658,0,0,1,1.12015.999,2.81731,2.81731,0,0,1,.40378,1.518,3.038,3.038,0,0,1-.45589,1.6477,3.185,3.185,0,0,1-1.25739,1.1417,4.03424,4.03424,0,0,1-1.86854.41518,3.66125,3.66125,0,0,1-2.071-.57785,3.70452,3.70452,0,0,1-1.34154-1.62176,6.00563,6.00563,0,0,1-.46287-2.45209,6.89156,6.89156,0,0,1,.4689-2.66566,3.82131,3.82131,0,0,1,1.36156-1.72555A3.65157,3.65157,0,0,1,205.88342,426.61777Zm-.13726,4.988a1.78556,1.78556,0,0,0-.78148.18165,1.8249,1.8249,0,0,0-.61219.45407.85376.85376,0,0,0-.23442.55791,2.59533,2.59533,0,0,0,.19535,1.08383,1.65389,1.65389,0,0,0,.57311.69362,1.53222,1.53222,0,0,0,.85361.24052,1.62743,1.62743,0,0,0,.82056-.2076,1.60583,1.60583,0,0,0,.59213-.59082,1.66953,1.66953,0,0,0,.22143-.86226,1.60209,1.60209,0,0,0-.21443-.8633,1.32549,1.32549,0,0,0-.5861-.512A1.88982,1.88982,0,0,0,205.74616,431.60578Zm8.59633-4.988a4.06241,4.06241,0,0,1,1.6351.32434,2.96473,2.96473,0,0,1,1.21734.92716,2.49656,2.49656,0,0,1,.521,1.45309h-1.73832a1.64971,1.64971,0,0,0-.57308-.89522,1.62665,1.62665,0,0,0-1.02294-.31139,1.6754,1.6754,0,0,0-1.12614.38324,2.12585,2.12585,0,0,0-.64523,1.06988,4.32494,4.32494,0,0,0-.10421,1.60278,1.92073,1.92073,0,0,1,.54706-.526,2.64567,2.64567,0,0,1,.74241-.33731,3.103,3.103,0,0,1,.85362-.11677,3.71029,3.71029,0,0,1,1.67319.35729,2.66459,2.66459,0,0,1,1.12011.999,2.80839,2.80839,0,0,1,.40378,1.518,3.02939,3.02939,0,0,1-.45588,1.6477,3.18192,3.18192,0,0,1-1.25639,1.1417,4.03554,4.03554,0,0,1-1.86955.41518,3.66567,3.66567,0,0,1-2.07092-.57785,3.711,3.711,0,0,1-1.34157-1.62176,6.02284,6.02284,0,0,1-.46188-2.45209,6.89156,6.89156,0,0,1,.46891-2.66566,3.82586,3.82586,0,0,1,1.36059-1.72555A3.65584,3.65584,0,0,1,214.34249,426.61777Zm-.13624,4.988a1.7856,1.7856,0,0,0-.78149.18165,1.82476,1.82476,0,0,0-.61218.45407.85372.85372,0,0,0-.23443.55791,2.59549,2.59549,0,0,0,.19535,1.08383,1.654,1.654,0,0,0,.57311.69362,1.53118,1.53118,0,0,0,.85261.24052,1.5905,1.5905,0,0,0,1.41369-.79842,1.66943,1.66943,0,0,0,.22143-.86226,1.60254,1.60254,0,0,0-.2154-.8633,1.32559,1.32559,0,0,0-.58614-.512A1.88212,1.88212,0,0,0,214.20625,431.60578Z"/><path class="f4ebd915-cb89-485a-b5aa-eafc9f928c18" d="M35.06667,460.07984H229.43619a4.99981,4.99981,0,0,1,5.00952,4.99V495.01a4.99981,4.99981,0,0,1-5.00952,4.99H35.06667a4.99982,4.99982,0,0,1-5.00953-4.99V465.06986A4.99982,4.99982,0,0,1,35.06667,460.07984Z"/><path class="e2350cd7-dcaa-406f-ab24-d254b28d383e" d="M183.30248,484.16168a5.02728,5.02728,0,0,1-2.74822-.67467,2.69813,2.69813,0,0,1-1.2113-2.09579l1.97976-.03892a1.56634,1.56634,0,0,0,.67127.98,2.38623,2.38623,0,0,0,1.30248.33034,2.12783,2.12783,0,0,0,.82657-.14869,1.43952,1.43952,0,0,0,.57309-.41519.95094.95094,0,0,0,.20839-.60377.90823.90823,0,0,0-.33162-.77147,2.62383,2.62383,0,0,0-1.02294-.41518L182.007,479.978a3.34552,3.34552,0,0,1-1.72628-.85029,2.36208,2.36208,0,0,1-.65725-1.71958,2.44173,2.44173,0,0,1,.4749-1.52393,3.13222,3.13222,0,0,1,1.32252-.999,4.84585,4.84585,0,0,1,1.88157-.35031,4.13215,4.13215,0,0,1,1.84351.38223,2.87335,2.87335,0,0,1,1.19828,1.019,2.40446,2.40446,0,0,1,.40978,1.40716l-1.92066.03295a1.8064,1.8064,0,0,0-.41679-.98,1.40768,1.40768,0,0,0-1.081-.35629,2.64988,2.64988,0,0,0-.69733.08382,1.70517,1.70517,0,0,0-.527.24055,1.06953,1.06953,0,0,0-.33864.35628.9749.9749,0,0,0-.11122.46708.81865.81865,0,0,0,.27353.64867,2.89126,2.89126,0,0,0,1.049.43516l1.51688.36926a3.15221,3.15221,0,0,1,1.84952,1.04491,2.8404,2.8404,0,0,1,.57308,1.79639,2.301,2.301,0,0,1-.44885,1.41417,2.83717,2.83717,0,0,1-1.25738.9341A5.041,5.041,0,0,1,183.30248,484.16168Zm-.81354-10.85329h1.64712V474.995h-1.64712Zm-.03307,10.27547H184.097v1.6876h-1.64112Zm9.85975-8.93215h1.86955v5.71556h1.45176v1.5888h-1.45176v2.07587h-1.83048l.007-2.07587h-4.33724v-1.55688Zm-2.53282,5.71556h2.57891v-3.43911Zm8.36891,3.66467V477.006h-1.68018v-1.06988a4.62387,4.62387,0,0,0,1.30246-.14973,1.57836,1.57836,0,0,0,.74843-.44107,1.26177,1.26177,0,0,0,.29356-.69362h1.2634v9.38023Zm7.26182.14272a4.01271,4.01271,0,0,1-1.64112-.33734,3.214,3.214,0,0,1-1.24437-.94708,2.58571,2.58571,0,0,1-.54-1.44012h1.81045a1.55885,1.55885,0,0,0,.521.88818,1.52844,1.52844,0,0,0,1.01594.33734,2.18945,2.18945,0,0,0,1.18524-.31736,1.90354,1.90354,0,0,0,.76845-1.01195,4.39156,4.39156,0,0,0,.18236-1.81638,1.90022,1.90022,0,0,1-.508.6028,2.41289,2.41289,0,0,1-.74944.39618,3.15585,3.15585,0,0,1-.9568.13572,3.88412,3.88412,0,0,1-1.70023-.35628,2.84194,2.84194,0,0,1-1.15921-1.02493,2.9313,2.9313,0,0,1-.4168-1.58284,3.01255,3.01255,0,0,1,1.68019-2.77046,4.02273,4.02273,0,0,1,1.86255-.40818,3.66756,3.66756,0,0,1,2.06493.57088,3.57769,3.57769,0,0,1,1.33453,1.60879,5.89436,5.89436,0,0,1,.46888,2.44506,7.11252,7.11252,0,0,1-.4819,2.80244,3.5261,3.5261,0,0,1-1.36759,1.67365A3.9627,3.9627,0,0,1,205.41353,484.17466Zm.1693-5.015a1.78174,1.78174,0,0,0,.76849-.17464,1.91979,1.91979,0,0,0,.61815-.45411.84546.84546,0,0,0,.24145-.56485,2.47391,2.47391,0,0,0-.20238-1.07682,1.546,1.546,0,0,0-.57308-.69362,1.51558,1.51558,0,0,0-.85263-.24055,1.55407,1.55407,0,0,0-.80151.20759,1.46889,1.46889,0,0,0-.55306.58386,1.81726,1.81726,0,0,0-.20238.86923,1.49975,1.49975,0,0,0,.42981,1.14176A1.58164,1.58164,0,0,0,205.58283,479.15966Zm8.27776,5.015a4.01271,4.01271,0,0,1-1.64112-.33734,3.20284,3.20284,0,0,1-1.24336-.94708,2.57929,2.57929,0,0,1-.541-1.44012h1.81045a1.55885,1.55885,0,0,0,.521.88818,1.52844,1.52844,0,0,0,1.01594.33734,2.1894,2.1894,0,0,0,1.18523-.31736,1.9035,1.9035,0,0,0,.76846-1.01195,4.39156,4.39156,0,0,0,.18236-1.81638,1.90035,1.90035,0,0,1-.508.6028,2.40744,2.40744,0,0,1-.74843.39618,3.16273,3.16273,0,0,1-.95781.13572,3.87983,3.87983,0,0,1-1.69925-.35628,2.82949,2.82949,0,0,1-1.15919-1.02493,2.92258,2.92258,0,0,1-.4168-1.58284,3.01259,3.01259,0,0,1,1.68019-2.77046,4.01694,4.01694,0,0,1,1.86255-.40818,3.66644,3.66644,0,0,1,2.06392.57088,3.586,3.586,0,0,1,1.33555,1.60879,5.89483,5.89483,0,0,1,.46888,2.44506,7.13075,7.13075,0,0,1-.4819,2.80244,3.53752,3.53752,0,0,1-1.36762,1.67365A3.96858,3.96858,0,0,1,213.86059,484.17466Zm.1693-5.015a1.78174,1.78174,0,0,0,.76849-.17464,1.9353,1.9353,0,0,0,.61915-.45411.84883.84883,0,0,0,.24045-.56485,2.489,2.489,0,0,0-.20137-1.07682,1.5526,1.5526,0,0,0-.57308-.69362,1.52126,1.52126,0,0,0-.85364-.24055,1.55044,1.55044,0,0,0-.80051.20759,1.47133,1.47133,0,0,0-.55406.58386,1.8168,1.8168,0,0,0-.20137.86923,1.49978,1.49978,0,0,0,.4298,1.14176A1.57916,1.57916,0,0,0,214.02989,479.15966Z"/><rect class="e2350cd7-dcaa-406f-ab24-d254b28d383e" x="15.10292" y="12.41966" width="233.44382" height="113.77246"/></g><g class="aa46cbb4-85a0-4ce0-bd6d-1c6054e0cb54"><path class="f4ebd915-cb89-485a-b5aa-eafc9f928c18" d="M35.06667,92.81437H229.43619a4.9998,4.9998,0,0,1,5.00952,4.99v45.90818a4.9998,4.9998,0,0,1-5.00952,4.99H35.06667a4.9998,4.9998,0,0,1-5.00953-4.99V97.80439A4.9998,4.9998,0,0,1,35.06667,92.81437Z"/><path class="ba03c4bf-a358-4633-83a4-9c54fb9695d8" d="M46.78735,118.38323v-.8483h5.48v.8483h-2.2092v6.36727h-.93178v-6.36727Zm7.77238,6.46708a2.49385,2.49385,0,0,1-1.25238-.3044,2.07894,2.07894,0,0,1-.83159-.9032,3.233,3.233,0,0,1-.29556-1.45209,3.39833,3.39833,0,0,1,.27553-1.41717,2.10305,2.10305,0,0,1,.80653-.9431,2.63135,2.63135,0,0,1,2.53983-.025,2.06341,2.06341,0,0,1,.82156.91318,3.37838,3.37838,0,0,1,.29055,1.472,3.33867,3.33867,0,0,1-.27051,1.38722,2.10516,2.10516,0,0,1-.7915.93813A2.351,2.351,0,0,1,54.55973,124.85031Zm0-.72856a1.29491,1.29491,0,0,0,.78649-.23453,1.43784,1.43784,0,0,0,.48592-.67364,2.96036,2.96036,0,0,0,.16532-1.04293,3.17183,3.17183,0,0,0-.14527-.993,1.466,1.466,0,0,0-.46589-.70359,1.26164,1.26164,0,0,0-.82657-.25948,1.32174,1.32174,0,0,0-.79652.23453,1.41259,1.41259,0,0,0-.49594.66867,2.99141,2.99141,0,0,0-.16532,1.05288,3.07176,3.07176,0,0,0,.15029.988,1.48812,1.48812,0,0,0,.4709.7036A1.28838,1.28838,0,0,0,54.55973,124.12175Zm5.95532-3.85727H59.34783v3.20858a1.09608,1.09608,0,0,0,.0551.40419.28654.28654,0,0,0,.19538.15968,1.65932,1.65932,0,0,0,.38072.03493h.56608v.61876a1.4921,1.4921,0,0,1-.29056.05988,3.70824,3.70824,0,0,1-.4759.02494,1.92326,1.92326,0,0,1-.83158-.1447.8276.8276,0,0,1-.4158-.42915,1.85782,1.85782,0,0,1-.11521-.6986v-3.23851h-.84161v-.67366h.86666l.22542-1.502h.6813v1.497h1.16722Zm2.647,4.58583a2.12619,2.12619,0,0,1-.88669-.17466,1.43438,1.43438,0,0,1-.60615-.514,1.64582,1.64582,0,0,1,.38573-2.08582,3.58948,3.58948,0,0,1,1.92867-.44912l.92677-.02494v-.40419a.98843.98843,0,0,0-.28555-.74851,1.22447,1.22447,0,0,0-.88669-.27944,1.52566,1.52566,0,0,0-.78649.20958.98246.98246,0,0,0-.43583.66866H61.6993a1.54322,1.54322,0,0,1,.28554-.8483,1.571,1.571,0,0,1,.71136-.52894,2.98718,2.98718,0,0,1,1.08706-.17965,2.87567,2.87567,0,0,1,1.12213.18963,1.37172,1.37172,0,0,1,.67128.55888,1.71375,1.71375,0,0,1,.22543.90818v3.6028h-.7915l-.06513-.96807a1.77927,1.77927,0,0,1-.76646.83832A2.25425,2.25425,0,0,1,63.16208,124.85031Zm.28053-.66369a1.48193,1.48193,0,0,0,.516-.09481,1.8453,1.8453,0,0,0,.47591-.25448,1.401,1.401,0,0,0,.34065-.36427.804.804,0,0,0,.13526-.41916v-.88325l-.77147.015a4.11556,4.11556,0,0,0-.99189.11977,1.16622,1.16622,0,0,0-.59613.34431.92851.92851,0,0,0-.19537.61377.82608.82608,0,0,0,.30057.67865A1.22111,1.22111,0,0,0,63.44261,124.18662Zm5.17284.62875a1.70089,1.70089,0,0,1-.6813-.11477.95829.95829,0,0,1-.39575-.30938,1.1657,1.1657,0,0,1-.18535-.44411,2.99811,2.99811,0,0,1-.04509-.524v-6.08781h.91173v5.998a.94674.94674,0,0,0,.15029.58382.57467.57467,0,0,0,.43082.21458l.28053.005v.59881a1.834,1.834,0,0,1-.24045.05488A1.14927,1.14927,0,0,1,68.61545,124.81537Zm3.83128,1.54192v-6.76647h.92175l.01.8982a2.54728,2.54728,0,0,1,.23044-.33433,1.923,1.923,0,0,1,.35067-.32434,1.89184,1.89184,0,0,1,.48592-.24452,1.99093,1.99093,0,0,1,.63621-.09482,2.07065,2.07065,0,0,1,1.09208.28444,1.85383,1.85383,0,0,1,.7414.85828,3.5238,3.5238,0,0,1,.26551,1.46707,3.85225,3.85225,0,0,1-.26049,1.502,1.99774,1.99774,0,0,1-.74142.92814,2.08786,2.08786,0,0,1-1.17222.31937,1.76472,1.76472,0,0,1-.61617-.09981,1.67178,1.67178,0,0,1-.46589-.2495,1.98654,1.98654,0,0,1-.33063-.33932,2.72223,2.72223,0,0,1-.21541-.34431v2.53992Zm2.38454-2.22555a1.3039,1.3039,0,0,0,1.047-.484,2.93854,2.93854,0,0,0,.03507-2.91917,1.38566,1.38566,0,0,0-2.17413.015,2.36591,2.36591,0,0,0-.37071,1.38723,2.92723,2.92723,0,0,0,.16532,1.008,1.64438,1.64438,0,0,0,.49093.72356A1.22357,1.22357,0,0,0,74.83127,124.13174Zm4.85122.71857a2.12613,2.12613,0,0,1-.88669-.17466,1.43438,1.43438,0,0,1-.60615-.514,1.64582,1.64582,0,0,1,.38573-2.08582,3.58948,3.58948,0,0,1,1.92867-.44912l.92676-.02494v-.40419a.98842.98842,0,0,0-.28554-.74851,1.22449,1.22449,0,0,0-.88668-.27944,1.52567,1.52567,0,0,0-.7865.20958.98246.98246,0,0,0-.43583.66866h-.81655a1.5433,1.5433,0,0,1,.28554-.8483,1.571,1.571,0,0,1,.71135-.52894,2.98724,2.98724,0,0,1,1.08707-.17965,2.8757,2.8757,0,0,1,1.12213.18963,1.3717,1.3717,0,0,1,.67127.55888,1.71357,1.71357,0,0,1,.22544.90818v3.6028H81.531l-.06513-.96807a1.77935,1.77935,0,0,1-.76645.83832A2.25438,2.25438,0,0,1,79.68249,124.85031Zm.28054-.66369a1.4821,1.4821,0,0,0,.516-.09481,1.8455,1.8455,0,0,0,.47589-.25448,1.401,1.401,0,0,0,.34066-.36427.80386.80386,0,0,0,.13525-.41916v-.88325l-.77147.015a4.11538,4.11538,0,0,0-.99187.11977,1.16621,1.16621,0,0,0-.59614.34431.92852.92852,0,0,0-.19538.61377.82609.82609,0,0,0,.30058.67865A1.22114,1.22114,0,0,0,79.963,124.18662Zm4.21,2.21058a2.026,2.026,0,0,1-.6262-.06486c-.11421-.04291-.17032-.06487-.17032-.06487v-.59881l.526.01a1.70742,1.70742,0,0,0,.48092-.03992.89394.89394,0,0,0,.30558-.13472.63573.63573,0,0,0,.17533-.18963,1.55312,1.55312,0,0,0,.1052-.19959l.18035-.489L83.126,119.59082h.93678l1.52789,3.982,1.51789-3.982h.90674l-2.18416,5.5489a2.60049,2.60049,0,0,1-.45086.76347,1.35776,1.35776,0,0,1-.55105.38423A1.90952,1.90952,0,0,1,84.173,126.3972Zm4.754-1.6467v-5.15968h.89169v.7485a2.03531,2.03531,0,0,1,.59114-.59381,1.70949,1.70949,0,0,1,.97685-.2545,1.84069,1.84069,0,0,1,.57109.09482,1.73375,1.73375,0,0,1,.541.28443,1.3228,1.3228,0,0,1,.38073.46407,1.79148,1.79148,0,0,1,.65123-.60878,1.83222,1.83222,0,0,1,.92677-.23454,2.04041,2.04041,0,0,1,.56608.08484,1.41884,1.41884,0,0,1,.546.28942,1.46645,1.46645,0,0,1,.41579.57384,2.34064,2.34064,0,0,1,.1603.93813v3.37326H95.214v-3.28343a1.43556,1.43556,0,0,0-.15029-.72356.836.836,0,0,0-.39575-.36427,1.27847,1.27847,0,0,0-.516-.10479,1.55555,1.55555,0,0,0-.511.09481,1.05052,1.05052,0,0,0-.46087.31936.91732.91732,0,0,0-.19036.61377v3.44811H92.068v-3.55289a.785.785,0,0,0-.16532-.509,1.01179,1.01179,0,0,0-.40577-.30938,1.19524,1.19524,0,0,0-.48091-.10479,1.47465,1.47465,0,0,0-.536.10479,1.08181,1.08181,0,0,0-.45085.33433.9125.9125,0,0,0-.18035.58882v3.44811Zm9.25259-2.36527a2.37712,2.37712,0,0,0,.16031.88823,1.34822,1.34822,0,0,0,1.33253.86326,1.53754,1.53754,0,0,0,.85161-.22954,1.02521,1.02521,0,0,0,.46089-.66366h.87666a1.74471,1.74471,0,0,1-.4208.88323,2.08857,2.08857,0,0,1-.78649.54391,2.6204,2.6204,0,0,1-.96182.17965,2.53471,2.53471,0,0,1-1.27744-.31438,2.19712,2.19712,0,0,1-.86164-.90319,2.99765,2.99765,0,0,1-.31059-1.41218,3.41384,3.41384,0,0,1,.28053-1.42714,2.2073,2.2073,0,0,1,.81154-.95809,2.33212,2.33212,0,0,1,1.28745-.34432,2.29854,2.29854,0,0,1,1.23736.31438,1.97828,1.97828,0,0,1,.76645.88822,3.16918,3.16918,0,0,1,.26551,1.35229v.33933Zm.005-.62375H101a2.02627,2.02627,0,0,0-.15028-.7984,1.22154,1.22154,0,0,0-.46088-.56388,1.514,1.514,0,0,0-1.578.02494,1.43793,1.43793,0,0,0-.47591.59382A1.80507,1.80507,0,0,0,98.18466,121.76148Zm4.90233,2.989v-5.15968h.89669v.7485a1.60361,1.60361,0,0,1,.34566-.40419,1.77274,1.77274,0,0,1,.541-.3044,2.16831,2.16831,0,0,1,.7364-.11476,2.07718,2.07718,0,0,1,.90171.19461,1.488,1.488,0,0,1,.66126.60878,1.99879,1.99879,0,0,1,.25047,1.05788v3.37326h-.92676v-3.28343a1.06709,1.06709,0,0,0-1.14217-1.18762,1.84376,1.84376,0,0,0-.65625.11476,1.12524,1.12524,0,0,0-.49594.33933.84735.84735,0,0,0-.19036.56885v3.44811Zm8.09238-4.486h-1.16723v3.20858a1.11782,1.11782,0,0,0,.05512.40419.28649.28649,0,0,0,.19536.15968,1.66551,1.66551,0,0,0,.38073.03493h.56608v.61876a1.47542,1.47542,0,0,1-.29057.05988,3.69727,3.69727,0,0,1-.47589.02494,1.92936,1.92936,0,0,1-.83158-.1447.83127.83127,0,0,1-.41579-.42915,1.87772,1.87772,0,0,1-.11522-.6986v-3.23851h-.8416v-.67366h.86664l.22543-1.502h.68129v1.497h1.16723Z"/><path class="a1f8296f-2324-4620-b144-f94a72d00c37" d="M160.56125,127.94411a7.73827,7.73827,0,0,1-4.228-1.03792,4.15109,4.15109,0,0,1-1.86355-3.22356l3.0458-.05988a2.40631,2.40631,0,0,0,1.032,1.507,3.66949,3.66949,0,0,0,2.00381.509,3.29531,3.29531,0,0,0,1.27243-.22953,2.22506,2.22506,0,0,0,.88166-.63873,1.4657,1.4657,0,0,0,.32062-.92815,1.39835,1.39835,0,0,0-.511-1.18763,4.03077,4.03077,0,0,0-1.573-.63872l-2.3745-.509a5.13207,5.13207,0,0,1-2.65506-1.30739,3.63028,3.63028,0,0,1-1.01192-2.64472,3.74189,3.74189,0,0,1,.73139-2.3453,4.809,4.809,0,0,1,2.03386-1.53693,7.45634,7.45634,0,0,1,2.89551-.53892,6.34758,6.34758,0,0,1,2.83539.58882,4.41927,4.41927,0,0,1,1.8435,1.56688,3.71128,3.71128,0,0,1,.6312,2.16566l-2.95561.04991a2.782,2.782,0,0,0-.64122-1.507,2.164,2.164,0,0,0-1.66317-.54891,4.02822,4.02822,0,0,0-1.072.12975,2.59215,2.59215,0,0,0-.81154.36926,1.62545,1.62545,0,0,0-.521.5489,1.49326,1.49326,0,0,0-.17034.71857,1.26076,1.26076,0,0,0,.42082.998,4.43852,4.43852,0,0,0,1.61306.66866l2.33443.56887a4.84754,4.84754,0,0,1,2.84542,1.60679,4.38067,4.38067,0,0,1,.88166,2.76447,3.54236,3.54236,0,0,1-.6913,2.17564,4.369,4.369,0,0,1-1.93368,1.43713A7.79957,7.79957,0,0,1,160.56125,127.94411Zm-1.25238-16.6966h2.53481v2.59481h-2.53481Zm-.0501,15.80838h2.5248v2.59481h-2.5248Zm13.90545.90818a6.161,6.161,0,0,1-2.52481-.519,4.936,4.936,0,0,1-1.91364-1.45708,3.96871,3.96871,0,0,1-.83158-2.21557h2.78529a2.40729,2.40729,0,0,0,.80153,1.36726,2.352,2.352,0,0,0,1.563.519,3.36333,3.36333,0,0,0,1.82347-.489,2.93135,2.93135,0,0,0,1.18224-1.55688,6.742,6.742,0,0,0,.28053-2.79442,2.96563,2.96563,0,0,1-.78148.92815,3.73517,3.73517,0,0,1-1.15219.60879,4.86006,4.86006,0,0,1-1.4728.20957,5.96114,5.96114,0,0,1-2.615-.54891,4.35679,4.35679,0,0,1-1.78339-1.57685,4.50456,4.50456,0,0,1-.64122-2.43511,4.6346,4.6346,0,0,1,2.58492-4.26148,6.18438,6.18438,0,0,1,2.86545-.62875,5.637,5.637,0,0,1,3.176.87825,5.52071,5.52071,0,0,1,2.05391,2.475,9.07283,9.07283,0,0,1,.72137,3.76248,10.9622,10.9622,0,0,1-.74141,4.31137,5.4405,5.4405,0,0,1-2.104,2.57485A6.10392,6.10392,0,0,1,173.16422,127.96407Zm.26049-7.71456A2.73929,2.73929,0,0,0,174.607,119.98a2.97,2.97,0,0,0,.95182-.6986,1.30153,1.30153,0,0,0,.3707-.86827,3.80469,3.80469,0,0,0-.31059-1.65668,2.38667,2.38667,0,0,0-.88168-1.06787,2.32918,2.32918,0,0,0-1.31249-.36926,2.3813,2.3813,0,0,0-1.23234.31936,2.25627,2.25627,0,0,0-.85163.89821,2.78145,2.78145,0,0,0-.31059,1.33732,2.30823,2.30823,0,0,0,.66127,1.75648A2.43632,2.43632,0,0,0,173.42471,120.24951Zm7.72467,7.495v-2.17564a4.10021,4.10021,0,0,1,.41079-1.89622,4.61553,4.61553,0,0,1,1.08206-1.3972,8.62538,8.62538,0,0,1,1.48281-1.0479q.81156-.44911,1.6231-.84831.81153-.3997,1.48281-.79839a4.18656,4.18656,0,0,0,1.09207-.90819,1.79721,1.79721,0,0,0,.41079-1.17765,1.81678,1.81678,0,0,0-.61116-1.41717,2.3581,2.3581,0,0,0-1.65314-.5489,2.81565,2.81565,0,0,0-1.85353.62874,2.86986,2.86986,0,0,0-.94179,1.89621h-2.79531a5.20977,5.20977,0,0,1,.64122-2.495,4.486,4.486,0,0,1,1.88357-1.78642,6.71372,6.71372,0,0,1,3.146-.65869,6.538,6.538,0,0,1,2.79531.5489,4.26727,4.26727,0,0,1,1.82346,1.52695,4.47943,4.47943,0,0,1,.24046,4.16167,4.285,4.285,0,0,1-1.062,1.34732,8.15889,8.15889,0,0,1-1.45276.978q-.792.41916-1.583.77845-.7815.35928-1.44275.73853a3.85483,3.85483,0,0,0-1.062.83831,1.676,1.676,0,0,0-.40077,1.12775v.12973h7.38405v2.4551Zm17.905-14.63074a4.87879,4.87879,0,0,1,4.07776,1.92615,10.97515,10.97515,0,0,1,.02,11.018,5.37922,5.37922,0,0,1-8.21563,0,8.83084,8.83084,0,0,1-1.47281-5.489,10.75064,10.75064,0,0,1,.68131-4.06187,5.46578,5.46578,0,0,1,1.93367-2.525A5.09461,5.09461,0,0,1,199.05443,113.11377Zm0,12.46507a1.99662,1.99662,0,0,0,1.89359-1.14771,8.98187,8.98187,0,0,0,.60115-3.86227,9.32578,9.32578,0,0,0-.61116-3.96208,2.00051,2.00051,0,0,0-1.8936-1.1976,2.0406,2.0406,0,0,0-1.91364,1.20759,9.2136,9.2136,0,0,0-.62118,3.95209,8.69906,8.69906,0,0,0,.62118,3.8523A2.04611,2.04611,0,0,0,199.05443,125.57884Zm13.675-12.26547h2.87546v8.79242h2.23423v2.44511H215.6049v3.19361h-2.81535l.01-3.19361h-6.67269v-2.39522Zm-3.89742,8.79242h3.96753v-5.28942Z"/></g><path class="a2ab271b-8bc1-4c80-9aeb-d8a57950481d" d="M174.37852,51.32236V49.24551h-.76946v2.07685Zm-53.22519,15.975V62.35629h.04007A3.38607,3.38607,0,0,0,122.54,63.516a4.1017,4.1017,0,0,0,1.7924.39321,4.33341,4.33341,0,0,0,2.01483-.44411,4.26279,4.26279,0,0,0,1.43674-1.18962,5.11806,5.11806,0,0,0,.86063-1.71457,7.13143,7.13143,0,0,0,.28354-2.017,7.88163,7.88163,0,0,0-.28354-2.12775,5.16835,5.16835,0,0,0-.87065-1.78543,4.37723,4.37723,0,0,0-1.47781-1.23054,4.54753,4.54753,0,0,0-2.126-.46407,4.11469,4.11469,0,0,0-1.7824.38323,3.16161,3.16161,0,0,0-1.33654,1.23054h-.04007V53.21856h-2.7332V67.2974Zm2.40958-5.52694a2.29884,2.29884,0,0,1-1.17524-.28244,2.27349,2.27349,0,0,1-.77948-.73552,3.16742,3.16742,0,0,1-.4248-1.05888,5.74336,5.74336,0,0,1-.13226-1.23054,6.32554,6.32554,0,0,1,.12223-1.2505,3.14439,3.14439,0,0,1,.41479-1.06887,2.348,2.348,0,0,1,.76947-.75648,2.2201,2.2201,0,0,1,1.18426-.29242,2.17611,2.17611,0,0,1,1.1642.29242,2.42122,2.42122,0,0,1,.78049.76646,3.2528,3.2528,0,0,1,.43483,1.07885,5.74246,5.74246,0,0,1,.13125,1.23054,6.2208,6.2208,0,0,1-.12124,1.23054,3.03557,3.03557,0,0,1-.41479,1.05888,2.18364,2.18364,0,0,1-1.95371,1.018Zm11.95272,1.85628a6.54772,6.54772,0,0,1-1.90361.28244,5.17007,5.17007,0,0,1-1.39666-.18163,3.19986,3.19986,0,0,1-1.13416-.56487,2.63315,2.63315,0,0,1-.75943-.96807,3.26344,3.26344,0,0,1-.27354-1.39221,3.03916,3.03916,0,0,1,.3136-1.46208,2.6309,2.6309,0,0,1,.81055-.91816,3.64073,3.64073,0,0,1,1.13415-.514,12.41888,12.41888,0,0,1,1.28544-.27246q.64774-.1003,1.27542-.16068a7.76909,7.76909,0,0,0,1.11414-.18164,1.95124,1.95124,0,0,0,.76945-.35329.77671.77671,0,0,0,.2635-.67565,1.51647,1.51647,0,0,0-.15228-.73653,1.11434,1.11434,0,0,0-.40478-.42315,1.59087,1.59087,0,0,0-.58711-.2016,4.79375,4.79375,0,0,0-.71937-.0509,2.187,2.187,0,0,0-1.33654.36328,1.6215,1.6215,0,0,0-.56707,1.21058h-2.87447a3.31,3.31,0,0,1,.506-1.67465,3.43051,3.43051,0,0,1,1.13415-1.06886,4.97227,4.97227,0,0,1,1.54895-.57486,8.79486,8.79486,0,0,1,1.73129-.17165,11.792,11.792,0,0,1,1.59905.11078,4.8998,4.8998,0,0,1,1.4788.43413,2.908,2.908,0,0,1,1.09309.8972,2.50163,2.50163,0,0,1,.4248,1.523v5.42614a10.836,10.836,0,0,0,.08115,1.3513,2.45222,2.45222,0,0,0,.28354.96807h-2.91555a3.9877,3.9877,0,0,1-.13124-.494,4.13827,4.13827,0,0,1-.07114-.515A3.7488,3.7488,0,0,1,135.51563,63.62674Zm-.83057-1.61376a3.587,3.587,0,0,1-.66828-.06089,1.61458,1.61458,0,0,1-.56607-.21157,1.079,1.079,0,0,1-.38473-.41318,1.33567,1.33567,0,0,1-.14227-.6457,1.38344,1.38344,0,0,1,.14227-.66567,1.28382,1.28382,0,0,1,.37371-.43313,1.86851,1.86851,0,0,1,.547-.27246,5.02133,5.02133,0,0,1,.63822-.16168q.34416-.05988.68831-.1008.34416-.04041.65825-.10079a4.5311,4.5311,0,0,0,.58711-.1517,1.284,1.284,0,0,0,.45587-.25149v1.06886a5.41013,5.41013,0,0,1-.05109.6457,2.168,2.168,0,0,1-.27353.79641,1.89015,1.89015,0,0,1-.68831.67565A2.54747,2.54747,0,0,1,134.68506,62.013Zm11.14317,4.73952a4.17917,4.17917,0,0,1-2.30838.5449q-.44484,0-.88068-.02993c-.28955-.02-.5841-.04392-.88067-.07086V64.83633q.40578.04041.83058.08083a5.9067,5.9067,0,0,0,.85063.02,1.11567,1.11567,0,0,0,.83959-.44312,1.4258,1.4258,0,0,0,.27352-.8473,1.71332,1.71332,0,0,0-.12124-.64571l-3.665-9.78244h3.05782l2.3685,7.14072h.04108l2.28735-7.14072H151.498l-4.37332,11.71857A3.522,3.522,0,0,1,145.82823,66.7525Zm9.52412-2.86328a4.95449,4.95449,0,0,0,1.37661-.18164,4.19362,4.19362,0,0,0,1.12413-.505,3.71184,3.71184,0,0,0,.83961-.73553,3.24176,3.24176,0,0,0,.527-.87725h.04007v.54392a3.21923,3.21923,0,0,0,.05109.5948,1.16757,1.16757,0,0,0,.19237.47406.96919.96919,0,0,0,.41479.32335,1.85786,1.85786,0,0,0,.73941.12076,2.42885,2.42885,0,0,0,.62718-.08084v-.64571a3.63461,3.63461,0,0,1-.56707.06088.64438.64438,0,0,1-.40478-.11078.60549.60549,0,0,1-.20238-.29241,1.50537,1.50537,0,0,1-.07113-.4032c-.006-.1487-.01-.29641-.01-.44411V55.6996a2.41218,2.41218,0,0,0-.86064-1.92615,4.17549,4.17549,0,0,0-2.74321-.73653,4.40882,4.40882,0,0,0-2.90652.85729,3.391,3.391,0,0,0-1.1031,2.57186h.76945a2.71029,2.71029,0,0,1,.9418-2.07784,3.51432,3.51432,0,0,1,2.25729-.68564,4.7677,4.7677,0,0,1,1.33654.16168,2.50325,2.50325,0,0,1,.89069.44411,1.76609,1.76609,0,0,1,.507.64472,1.92443,1.92443,0,0,1,.16132.78642,5.713,5.713,0,0,1-.06011.90819,1.04123,1.04123,0,0,1-.30359.59481,1.677,1.677,0,0,1-.71937.36327,7.01147,7.01147,0,0,1-1.30548.19162l-1.19528.10079a12.06668,12.06668,0,0,0-1.30547.2016,3.95151,3.95151,0,0,0-1.23535.474,2.75844,2.75844,0,0,0-.92175.90818,2.7288,2.7288,0,0,0-.36469,1.482,2.63377,2.63377,0,0,0,.91173,2.20859A4.0759,4.0759,0,0,0,155.35235,63.88922Zm-1.98477-1.22056a3.24271,3.24271,0,0,0,2.0048.55489,3.95872,3.95872,0,0,0,2.085-.47405,3.69849,3.69849,0,0,0,1.17523-1.08982,3.3458,3.3458,0,0,0,.516-1.18962,5.07611,5.07611,0,0,0,.11122-.77644V57.75749a1.45513,1.45513,0,0,1-.86063.46307,10.64488,10.64488,0,0,1-1.28545.18163l-1.29647.12176q-.56658.05988-1.13315.17066a3.30219,3.30219,0,0,0-1.02295.37325,2.09614,2.09614,0,0,0-.73941.71657,2.20319,2.20319,0,0,0-.28353,1.17964A2.00622,2.00622,0,0,0,153.36758,62.66866Zm9.90783,4.68962V61.488h.04008a3.30391,3.30391,0,0,0,1.47881,1.83633,4.662,4.662,0,0,0,2.30839.56487,4.9343,4.9343,0,0,0,2.07494-.40419,3.94763,3.94763,0,0,0,1.45877-1.11877,4.7956,4.7956,0,0,0,.86065-1.70459,7.90946,7.90946,0,0,0,.28253-2.17864,7.53272,7.53272,0,0,0-.28253-2.07784,5.11566,5.11566,0,0,0-.86065-1.73453,4.20026,4.20026,0,0,0-1.45877-1.18962,4.54948,4.54948,0,0,0-2.07494-.44412,4.00255,4.00255,0,0,0-2.633.91817,3.55348,3.55348,0,0,0-.74842.85728,3.9494,3.9494,0,0,0-.40577.84731h-.04008V53.27944H162.506V67.35828Zm1.99479-4.52894a3.86212,3.86212,0,0,0,1.83249.39421,3.75716,3.75716,0,0,0,1.75133-.38323,3.47378,3.47378,0,0,0,1.21531-1.029,4.4958,4.4958,0,0,0,.70835-1.503,7.11809,7.11809,0,0,0,.01-3.56986,4.79033,4.79033,0,0,0-.68831-1.53293,3.539,3.539,0,0,0-1.20529-1.08883,4.0651,4.0651,0,0,0-3.55276-.011,3.41275,3.41275,0,0,0-1.18525,1.06986,4.5032,4.5032,0,0,0-.65825,1.522,7.78482,7.78482,0,0,0-.20238,1.78543,8.58577,8.58577,0,0,0,.18235,1.78543,4.33035,4.33035,0,0,0,.61817,1.513A3.156,3.156,0,0,0,165.2702,62.82934Zm8.33886-9.5499h.76946V63.64671h-.76946Z"/><ellipse class="a4e2cfb6-c394-4a39-8deb-9a623a0abcf8" cx="101.28255" cy="49.05988" rx="1.89835" ry="1.89096"/><ellipse class="a4e2cfb6-c394-4a39-8deb-9a623a0abcf8" cx="105.75706" cy="53.51696" rx="1.89835" ry="1.89096"/><ellipse class="a4e2cfb6-c394-4a39-8deb-9a623a0abcf8" cx="110.23157" cy="57.97405" rx="1.89835" ry="1.89096"/><ellipse class="a4e2cfb6-c394-4a39-8deb-9a623a0abcf8" cx="96.80804" cy="53.51695" rx="1.89835" ry="1.89096"/><ellipse class="b03ce628-4373-40f2-b954-0e3cb3cc7ef4" cx="101.28256" cy="57.97406" rx="1.89835" ry="1.89096"/><ellipse class="b03ce628-4373-40f2-b954-0e3cb3cc7ef4" cx="105.75706" cy="62.43114" rx="1.89835" ry="1.89096"/><ellipse class="a4e2cfb6-c394-4a39-8deb-9a623a0abcf8" cx="92.33355" cy="57.97404" rx="1.89835" ry="1.89096"/><ellipse class="b03ce628-4373-40f2-b954-0e3cb3cc7ef4" cx="96.80803" cy="62.43114" rx="1.89835" ry="1.89096"/><ellipse class="ab4cbfb2-3047-4dfa-919b-d97d809dc028" cx="101.28255" cy="66.88823" rx="1.89835" ry="1.89096"/></svg>