<svg id="a1401b0c-fa88-4594-af8d-3df29ecc80c9" data-name="Слой 1" xmlns="http://www.w3.org/2000/svg" xmlns:xlink="http://www.w3.org/1999/xlink" viewBox="0 0 263 500"><defs><style>.adfb2aec-4b0f-4856-8b40-ea38dcbee167{fill:#213648;}.adfb2aec-4b0f-4856-8b40-ea38dcbee167,.e449e414-9fef-47b7-b544-3916d20996aa,.e704e488-457b-4664-817c-c3c489b729ad,.f2d00404-b72c-4955-be94-12855d33bf52,.f59c7bf7-4909-46b9-9aae-7ddc1fed997a,.fb8efbfe-ca2c-4510-a688-5e05b6a845b3{fill-rule:evenodd;}.f59c7bf7-4909-46b9-9aae-7ddc1fed997a{fill-opacity:0.65;opacity:0.59556;fill:url(#b2add44e-60ae-415a-9048-b827bfb34ec1);}.f2d00404-b72c-4955-be94-12855d33bf52,.f4fc994b-5617-4654-8306-3b5fbae3ccfb,.f59c7bf7-4909-46b9-9aae-7ddc1fed997a,.fb8efbfe-ca2c-4510-a688-5e05b6a845b3{isolation:isolate;}.f2d00404-b72c-4955-be94-12855d33bf52,.fb8efbfe-ca2c-4510-a688-5e05b6a845b3{opacity:0.75;}.f2d00404-b72c-4955-be94-12855d33bf52{fill:url(#bea6ef4c-8194-4307-b548-4ea759d96bef);}.fb8efbfe-ca2c-4510-a688-5e05b6a845b3{fill:url(#b45d95f1-dfd8-4197-8789-dff13a6f6391);}.e449e414-9fef-47b7-b544-3916d20996aa{fill:#2e423c;}.a2ec9b05-7649-4e1c-a35c-f50f6c9e14d1,.e704e488-457b-4664-817c-c3c489b729ad{fill:#36536b;}.aeacd35f-770d-4c74-bfc3-9a18d7eabb2c{fill:#fbfcfe;}.a9a344f5-8e27-44c8-975e-7c7481916003,.f4fc994b-5617-4654-8306-3b5fbae3ccfb{fill:#ba4270;}.f4fc994b-5617-4654-8306-3b5fbae3ccfb{opacity:0.25;}.bba7b15f-ef5f-4151-9801-a35860095e9c{fill:none;stroke:#ba4270;stroke-width:3px;}</style><linearGradient id="b2add44e-60ae-415a-9048-b827bfb34ec1" x1="131.58546" y1="502" x2="131.58546" y2="489.66206" gradientTransform="matrix(1, 0, 0, -1, 0, 502)" gradientUnits="userSpaceOnUse"><stop offset="0" stop-color="#454545"/><stop offset="0.22628" stop-color="#999"/><stop offset="1" stop-color="#fff"/></linearGradient><linearGradient id="bea6ef4c-8194-4307-b548-4ea759d96bef" x1="260.59843" y1="252.8903" x2="251.11941" y2="252.8903" gradientTransform="matrix(1, 0, 0, -1, 0, 502)" gradientUnits="userSpaceOnUse"><stop offset="0" stop-color="#fff" stop-opacity="0.01"/><stop offset="0.22218" stop-color="#bababa"/><stop offset="0.54678" stop-color="#fff" stop-opacity="0.01"/><stop offset="1" stop-color="#fff" stop-opacity="0.01"/></linearGradient><linearGradient id="b45d95f1-dfd8-4197-8789-dff13a6f6391" x1="2.57289" y1="252.8903" x2="12.06694" y2="252.8903" xlink:href="#bea6ef4c-8194-4307-b548-4ea759d96bef"/></defs><path class="adfb2aec-4b0f-4856-8b40-ea38dcbee167" d="M35.84415.57015H227.4414c18.37594,0,33.27126,14.25152,33.27126,31.83172V468.16776c0,17.58-14.89532,31.83224-33.27126,31.83224H35.84415c-18.37524,0-33.27136-14.25224-33.27136-31.83224V32.40187C2.57279,14.82167,17.46891.57015,35.84415.57015Z"/><path class="f59c7bf7-4909-46b9-9aae-7ddc1fed997a" d="M228.1828,0H34.98912Q21.4595.82444,10.03367,12.33794C14.93249,8.06508,23.6699,2.34727,35.22156,2.34727h192.7288c11.551,0,20.28858,5.71781,25.1869,9.99067Q241.71251.82433,228.1828,0Z"/><path class="f2d00404-b72c-4955-be94-12855d33bf52" d="M255.48471,463.19811V35.02165c0-11.48837-4.225-15.73531-6.74583-18.46231s-2.628-4.118.99389-2.059,10.86566,8.05587,10.86566,20.52135V463.19811c0,12.46518-7.24378,18.462-10.86566,20.52134-3.62187,2.05831-3.51467.66775-.99389-2.05935S255.48471,474.68616,255.48471,463.19811Z"/><path class="fb8efbfe-ca2c-4510-a688-5e05b6a845b3" d="M7.68661,463.19811V35.02165c0-11.48837,4.22543-15.73531,6.74612-18.46231s2.628-4.118-.99378-2.059S2.57289,22.55617,2.57289,35.02165V463.19811c0,12.46518,7.24417,18.462,10.86606,20.52134,3.62178,2.05831,3.51448.66775.99378-2.05935S7.68661,474.68616,7.68661,463.19811Z"/><path class="e449e414-9fef-47b7-b544-3916d20996aa" d="M0,103.674a2.00338,2.00338,0,0,1,2.00381-2.00227h.96634A2.00338,2.00338,0,0,1,4.974,103.674v60.41976A2.00275,2.00275,0,0,1,2.97015,166.096H2.00381A2.00275,2.00275,0,0,1,0,164.09373Z"/><path class="e449e414-9fef-47b7-b544-3916d20996aa" d="M258.02555,156.22077a2.00377,2.00377,0,0,1,2.00381-2.00228h.96683A2.00312,2.00312,0,0,1,263,156.22077V199.2197a2.00247,2.00247,0,0,1-2.00381,2.00227h-.96683a2.00312,2.00312,0,0,1-2.00381-2.00227Z"/><path class="e704e488-457b-4664-817c-c3c489b729ad" d="M108.883,12.45868H34.33507c-11.12565,0-19.23215,7.57191-19.23215,17.46127v422.8713c0,12.89468,12.52611,24.31869,26.68994,24.31869H221.467c13.644,0,26.69076-11.5131,26.69076-24.31869V31.063c0-11.85309-8.80675-18.53379-19.23258-18.60427h-75.73a14.35713,14.35713,0,0,0-7.68762,7.57191c-2.19919,5.38763-6.62259,9.68252-11.4658,9.68252h-5.6257c-2.30238,0-8.36389-2.23224-11.43374-9.68252C113.91357,12.58022,109.17055,12.50563,108.883,12.45868Z"/><path class="aeacd35f-770d-4c74-bfc3-9a18d7eabb2c" d="M48.0876,142.16177h166.32a5.00952,5.00952,0,0,1,5.00952,5.00952V328.37367a5.0057,5.0057,0,0,1-5.0057,5.0057H48.0876a5.0057,5.0057,0,0,1-5.0057-5.0057V147.16747A5.0057,5.0057,0,0,1,48.0876,142.16177Z"/><path class="a2ec9b05-7649-4e1c-a35c-f50f6c9e14d1" d="M76.7429,260.2962v-9.40969H79.928a4.52042,4.52042,0,0,1,1.79742.33836,2.77746,2.77746,0,0,1,1.23734,1.00215,2.8188,2.8188,0,0,1,.45586,1.63287,2.91255,2.91255,0,0,1-.42379,1.60082,2.70161,2.70161,0,0,1-1.16522,1.00915,4.11364,4.11364,0,0,1-1.7393.34438h-2.11v3.482Zm1.23134-4.49712h2.09a2.26769,2.26769,0,0,0,1.57-.53962,1.862,1.862,0,0,0,.61216-1.47066,1.68082,1.68082,0,0,0-.62518-1.41861,2.56915,2.56915,0,0,0-1.61507-.48157H77.97424Zm8.45006,4.62727a2.42125,2.42125,0,0,1-1.60205-.51459,1.765,1.765,0,0,1-.61917-1.43764,1.896,1.896,0,0,1,.78149-1.6659,4.65679,4.65679,0,0,1,2.50777-.58565l1.20428-.033v-.5266a1.277,1.277,0,0,0-.37771-.97612,1.5782,1.5782,0,0,0-1.14618-.36443,1.94728,1.94728,0,0,0-1.022.27934,1.24822,1.24822,0,0,0-.56707.866h-1.061a1.878,1.878,0,0,1,.76846-1.50373,3.20793,3.20793,0,0,1,1.94068-.5266,2.98148,2.98148,0,0,1,1.96676.55263,1.98266,1.98266,0,0,1,.65724,1.60785v4.69834H88.82688l-.08416-1.26242a2.35771,2.35771,0,0,1-.99691,1.09322A2.91624,2.91624,0,0,1,86.4243,260.42635Zm.36469-.866a1.985,1.985,0,0,0,.88569-.21426,2.23729,2.23729,0,0,0,.72938-.54662,1.11981,1.11981,0,0,0,.29256-.71581v-1.15231l-1.00291.02a3.79086,3.79086,0,0,0-1.73829.34439,1.11568,1.11568,0,0,0-.58011,1.0612,1.08553,1.08553,0,0,0,.39074.891A1.60747,1.60747,0,0,0,86.789,259.56038Zm5.47241,2.88325a2.641,2.641,0,0,1-.81455-.08408c-.14727-.05707-.22142-.08508-.22142-.08508v-.78089l.6843.013a1.84534,1.84534,0,0,0,.77447-.09712.95358.95358,0,0,0,.41079-.29334,1.656,1.656,0,0,0,.20138-.34438l.23444-.63873-2.631-6.56548h1.2183l1.98579,5.19292,1.97375-5.19292H97.2559l-2.8394,7.23623a2.67308,2.67308,0,0,1-.92476,1.3015A2.24951,2.24951,0,0,1,92.2614,262.44363Zm6.18076-2.14743v-6.72866h1.1592v.97611a2.58146,2.58146,0,0,1,.76144-.77487,2.2304,2.2304,0,0,1,1.27643-.3314,2.48238,2.48238,0,0,1,1.11412.27934,1.792,1.792,0,0,1,.82657.81994,2.33915,2.33915,0,0,1,.84661-.79391,2.38605,2.38605,0,0,1,1.20529-.30537,2.68087,2.68087,0,0,1,.73539.11014,1.91274,1.91274,0,0,1,.71638.37742,1.85371,1.85371,0,0,1,.534.74887,3.06255,3.06255,0,0,1,.2084,1.22337v4.399h-1.2113v-4.28188a1.91417,1.91417,0,0,0-.19538-.95009,1.05241,1.05241,0,0,0-.514-.46852,1.66,1.66,0,0,0-.67128-.13715,2.01525,2.01525,0,0,0-.66426.12414,1.36563,1.36563,0,0,0-.59914.41649,1.1978,1.1978,0,0,0-.24747.79989v4.49712h-1.19827v-4.63326a1.025,1.025,0,0,0-.21442-.66375,1.24928,1.24928,0,0,0-.528-.40348,1.55061,1.55061,0,0,0-.6252-.13715,1.84026,1.84026,0,0,0-.69632.14317,1.42655,1.42655,0,0,0-.58612.42948,1.19235,1.19235,0,0,0-.23444.76787v4.49712Zm12.02886-3.0845a3.08485,3.08485,0,0,0,.20839,1.1583,1.867,1.867,0,0,0,.64423.81993,1.84561,1.84561,0,0,0,1.08807.30537,1.9879,1.9879,0,0,0,1.1071-.29935,1.34045,1.34045,0,0,0,.59915-.865h1.13915a2.28507,2.28507,0,0,1-.547,1.15231,2.74284,2.74284,0,0,1-1.02194.70882,3.40608,3.40608,0,0,1-1.25038.23427,3.2757,3.2757,0,0,1-1.66116-.41047,2.85135,2.85135,0,0,1-1.12013-1.17733,3.90723,3.90723,0,0,1-.40377-1.84209,4.44515,4.44515,0,0,1,.36469-1.86113,2.87507,2.87507,0,0,1,1.055-1.24944,3.02589,3.02589,0,0,1,1.67417-.44851,2.70193,2.70193,0,0,1,2.18817.90405,3.63116,3.63116,0,0,1,.76144,2.42775v.44252Zm.006-.814h3.66a2.365,2.365,0,0,0-.44284-1.45765,1.58241,1.58241,0,0,0-1.35457-.59168,1.72788,1.72788,0,0,0-1.048.30537,1.80508,1.80508,0,0,0-.61917.77487A2.3584,2.3584,0,0,0,110.477,256.39775Zm6.37312,3.89845v-6.72866h1.16521v.97611a2.22226,2.22226,0,0,1,.77548-.74883,2.50958,2.50958,0,0,1,1.33454-.32539,2.69385,2.69385,0,0,1,1.17223.25429,1.93831,1.93831,0,0,1,.85963.7939,2.614,2.614,0,0,1,.32562,1.37956v4.399h-1.20429v-4.28188a1.38885,1.38885,0,0,0-1.48483-1.54876,2.41725,2.41725,0,0,0-.85361.14919,1.46226,1.46226,0,0,0-.64423.44249,1.1079,1.1079,0,0,0-.24747.74184v4.49712Zm10.52-5.85065h-1.51788v4.18475c0,.36043.0571.58166.16931.66375a1.26849,1.26849,0,0,0,.65125.11714h.7364v.80692a2.05655,2.05655,0,0,1-.37773.07809,4.81747,4.81747,0,0,1-.61918.033,1.829,1.829,0,0,1-1.41268-.42349,1.86894,1.86894,0,0,1-.35867-1.23639v-4.2238h-1.09409v-.878H124.674l.29256-1.95923h.88569v1.95223h1.51788Zm7.04339,5.9808a2.95313,2.95313,0,0,1-2.24728-.892,3.601,3.601,0,0,1-.8466-2.57694,4.44678,4.44678,0,0,1,.35867-1.84811,2.75237,2.75237,0,0,1,1.048-1.2294,3.05982,3.05982,0,0,1,1.68721-.44252,2.87219,2.87219,0,0,1,2.22723.911,3.7338,3.7338,0,0,1,.83359,2.609,4.3661,4.3661,0,0,1-.35167,1.809,2.73655,2.73655,0,0,1-1.029,1.2234A3.03951,3.03951,0,0,1,134.41354,260.42635Zm0-.95008a1.5978,1.5978,0,0,0,1.38664-.67677,3.18875,3.18875,0,0,0,.48191-1.86812,3.99345,3.99345,0,0,0-.19537-1.29447,1.93665,1.93665,0,0,0-.59914-.91807,1.82942,1.82942,0,0,0-2.48072.3384,3.13707,3.13707,0,0,0-.48892,1.87414,4.0074,4.0074,0,0,0,.19537,1.28845,1.95187,1.95187,0,0,0,.61217.918A1.67273,1.67273,0,0,0,134.41354,259.47627Zm8.08537-5.90873v.878h-1.63512v5.85065h-1.2113v-5.85065H138.2328v-.878h1.41969v-1.04117a1.44735,1.44735,0,0,1,1.63511-1.63986H142.557l.007.852h-1.00991a.63084.63084,0,0,0-.56007.22126,1.21621,1.21621,0,0,0-.14929.67075v.93707Zm7.08347-4.02857h1.64713v1.29548a3.57028,3.57028,0,0,1,1.40667.53961,2.75436,2.75436,0,0,1,.90572.9701,2.40967,2.40967,0,0,1,.30558,1.24241l-1.92065.033a1.82259,1.82259,0,0,0-.41679-.98312,1.40639,1.40639,0,0,0-1.08105-.3574,2.04664,2.04664,0,0,0-1.22433.32535.97178.97178,0,0,0-.44986.826.8225.8225,0,0,0,.27352.65073,2.87815,2.87815,0,0,0,1.049.4365l1.51687.37042a3.13455,3.13455,0,0,1,1.84951,1.05421,2.846,2.846,0,0,1,.5731,1.796,2.30456,2.30456,0,0,1-.76145,1.77,3.67743,3.67743,0,0,1-2.06493.866v1.16533h-1.64112v-1.15833a4.13142,4.13142,0,0,1-2.16211-.82693,2.71169,2.71169,0,0,1-.9508-1.90717l1.97976-.03905a1.53777,1.53777,0,0,0,.67128.98312,2.37807,2.37807,0,0,0,1.30248.33137,1.88825,1.88825,0,0,0,1.15218-.33137,1.00068,1.00068,0,0,0,.45587-.83995.91233.91233,0,0,0-.33162-.77389,2.61893,2.61893,0,0,0-1.023-.41646l-1.54293-.3314a3.30331,3.30331,0,0,1-1.72629-.853,2.35635,2.35635,0,0,1-.65724-1.725,2.46662,2.46662,0,0,1,.35768-1.35356,2.90614,2.90614,0,0,1,1.01594-.96909,4.17551,4.17551,0,0,1,1.49183-.50158Zm9.00612,10.9004a4.02205,4.02205,0,0,1-1.64814-.3384,3.22882,3.22882,0,0,1-1.23735-.95008,2.59856,2.59856,0,0,1-.54-1.44464h1.81045a1.56477,1.56477,0,0,0,.521.891,1.52546,1.52546,0,0,0,1.01592.33836,2.184,2.184,0,0,0,1.18525-.31835,1.909,1.909,0,0,0,.76846-1.01516,4.418,4.418,0,0,0,.18235-1.822,2.04585,2.04585,0,0,1-.85362.83294,2.84638,2.84638,0,0,1-1.36059.30534,3.87454,3.87454,0,0,1-1.70022-.3574,2.84556,2.84556,0,0,1-1.15922-1.02817,2.94791,2.94791,0,0,1-.41679-1.58781,3.02308,3.02308,0,0,1,1.68019-2.77916,4.01214,4.01214,0,0,1,1.86255-.40947,3.65914,3.65914,0,0,1,2.06492.57265,3.58672,3.58672,0,0,1,1.33453,1.61383,5.92935,5.92935,0,0,1,.4689,2.45281,5.77119,5.77119,0,0,1-1.061,3.78729A3.61429,3.61429,0,0,1,158.5885,260.43937Zm.16931-5.03072a1.777,1.777,0,0,0,.76848-.17522,1.92043,1.92043,0,0,0,.61816-.4555.84965.84965,0,0,0,.24146-.56666,2.18989,2.18989,0,0,0-.44985-1.48368,1.57026,1.57026,0,0,0-2.29236-.07109,1.6697,1.6697,0,0,0-.44285,1.20339,1.50689,1.50689,0,0,0,.42982,1.14529A1.57866,1.57866,0,0,0,158.75781,255.40865Zm5.02055,4.88755v-1.41861a2.6736,2.6736,0,0,1,.26751-1.23642,3.00114,3.00114,0,0,1,.70335-.911,5.7598,5.7598,0,0,1,.96382-.67676q.5275-.29886,1.055-.55361.52751-.2598.96383-.5266a2.72162,2.72162,0,0,0,.70935-.59269,1.256,1.256,0,0,0-.13025-1.69192,1.546,1.546,0,0,0-1.074-.35741,1.7276,1.7276,0,0,0-1.81747,1.64586H163.603a3.30721,3.30721,0,0,1,.41678-1.62685,2.91849,2.91849,0,0,1,1.22433-1.16432,4.3514,4.3514,0,0,1,2.04488-.42948,4.24415,4.24415,0,0,1,1.81646.35741,2.7702,2.7702,0,0,1,1.18525.99612,2.65734,2.65734,0,0,1,.41679,1.48971,2.68439,2.68439,0,0,1-.26049,1.2304,2.88864,2.88864,0,0,1-.6903.878,5.28679,5.28679,0,0,1-.9438.63772q-.51548.27333-1.029.5076a10.47432,10.47432,0,0,0-.93777.47555,2.4783,2.4783,0,0,0-.69033.54661,1.09234,1.09234,0,0,0-.26049.73484v.08509h4.79912v1.60082Zm11.63913-9.53985a3.16706,3.16706,0,0,1,2.65005,1.25543,7.15305,7.15305,0,0,1,.007,7.18417,3.482,3.482,0,0,1-5.33413,0,7.17887,7.17887,0,0,1,.013-7.18417A3.19328,3.19328,0,0,1,175.41749,250.75635Zm0,8.12723a1.28941,1.28941,0,0,0,1.23034-.74783,5.84866,5.84866,0,0,0,.39074-2.51888,6.10712,6.10712,0,0,0-.39675-2.58293,1.30186,1.30186,0,0,0-1.23134-.78089,1.32523,1.32523,0,0,0-1.24337.78691,6.01873,6.01873,0,0,0-.40376,2.57691,5.67865,5.67865,0,0,0,.40376,2.51186A1.32637,1.32637,0,0,0,175.41749,258.88358Zm8.8879-7.99707h1.86955V256.62h1.45177v1.59383h-1.45177v2.08235h-1.83047l.007-2.08235h-4.33726V256.652ZM181.77258,256.62h2.57891v-3.44994ZM83.48972,268.913v1.24944H82.25938V268.913Zm-.02605,2.675v6.72867H82.29846V271.588Zm4.40938,6.85882a3.7643,3.7643,0,0,1-1.30948-.22126,2.45606,2.45606,0,0,1-1.00291-.67676,2.239,2.239,0,0,1-.49493-1.19136H86.1598a1.35925,1.35925,0,0,0,.59313.892,2.02611,2.02611,0,0,0,1.11312.29936,2.08181,2.08181,0,0,0,1.09408-.25429.84956.84956,0,0,0,.41679-.78089q0-.70882-.8917-.92405l-1.39365-.34439a3.09429,3.09429,0,0,1-1.30948-.61169,1.45894,1.45894,0,0,1-.48192-1.16533,1.80774,1.80774,0,0,1,.6382-1.44466,2.84968,2.84968,0,0,1,1.92768-.56565,2.90655,2.90655,0,0,1,1.76535.49458,1.73117,1.73117,0,0,1,.70333,1.43764h-1.062a1.12523,1.12523,0,0,0-.43583-.76087,1.54976,1.54976,0,0,0-.98386-.28634,1.90751,1.90751,0,0,0-1.048.26031.86905.86905,0,0,0-.40377.7939.66107.66107,0,0,0,.28654.56564,2.5323,2.5323,0,0,0,.84661.3384l1.34756.33938a2.37137,2.37137,0,0,1,.96384.46152,1.65584,1.65584,0,0,1,.48192.65675,1.933,1.933,0,0,1,.13726.68978,1.75612,1.75612,0,0,1-.6843,1.46465A3.03321,3.03321,0,0,1,87.87305,278.44686Zm9.54315-6.989a2.768,2.768,0,0,1,1.83048.61771,2.46228,2.46228,0,0,1,.87867,1.63986h-1.068a1.54021,1.54021,0,0,0-.514-.904,1.60364,1.60364,0,0,0-1.12013-.38444,1.78454,1.78454,0,0,0-1.40668.6247,2.86585,2.86585,0,0,0-.541,1.91319,3.18523,3.18523,0,0,0,.49493,1.86812,1.69762,1.69762,0,0,0,1.47181.6958,1.57989,1.57989,0,0,0,1.11411-.39046,1.56019,1.56019,0,0,0,.508-.898h1.048a2.3669,2.3669,0,0,1-.87866,1.61384,2.82,2.82,0,0,1-1.81746.59268,3.18174,3.18174,0,0,1-1.60805-.39745,2.7459,2.7459,0,0,1-1.09409-1.17135,4.11721,4.11721,0,0,1-.39776-1.90014,4.42948,4.42948,0,0,1,.35869-1.84112,2.82611,2.82611,0,0,1,1.055-1.23639A3.07509,3.07509,0,0,1,97.4162,271.45789Zm6.91415,6.989a2.95234,2.95234,0,0,1-2.24627-.892,3.60086,3.60086,0,0,1-.84662-2.57693,4.46286,4.46286,0,0,1,.35768-1.84811,2.7606,2.7606,0,0,1,1.049-1.2294,3.0563,3.0563,0,0,1,1.6862-.44252,2.86928,2.86928,0,0,1,2.22723.911,3.72905,3.72905,0,0,1,.83358,2.609,4.3659,4.3659,0,0,1-.35166,1.809,2.73025,2.73025,0,0,1-1.029,1.22341A3.0349,3.0349,0,0,1,104.33035,278.44686Zm0-.95009A1.59837,1.59837,0,0,0,105.718,276.82a3.18877,3.18877,0,0,0,.48192-1.86812,3.993,3.993,0,0,0-.19538-1.29448,1.93665,1.93665,0,0,0-.59913-.91806,1.83068,1.83068,0,0,0-2.48172.33839,3.13714,3.13714,0,0,0-.48793,1.87415,4.00771,4.00771,0,0,0,.19538,1.28845,1.952,1.952,0,0,0,.61216.918A1.67179,1.67179,0,0,0,104.33035,277.49677Zm4.53762.81994V271.588h1.1592v.97612a2.59321,2.59321,0,0,1,.76146-.77487,2.23037,2.23037,0,0,1,1.27643-.3314,2.47907,2.47907,0,0,1,1.11411.27934,1.7873,1.7873,0,0,1,.82657.81993,2.33921,2.33921,0,0,1,.84661-.7939,2.38876,2.38876,0,0,1,1.2053-.30537,2.67541,2.67541,0,0,1,.73539.11014,1.91286,1.91286,0,0,1,.71636.37741,1.85381,1.85381,0,0,1,.534.74887,3.063,3.063,0,0,1,.20839,1.22338v4.399H117.0405v-4.28188a1.91427,1.91427,0,0,0-.19536-.95009,1.05251,1.05251,0,0,0-.514-.46852,1.65638,1.65638,0,0,0-.67127-.13715,2.01525,2.01525,0,0,0-.66427.12414,1.36569,1.36569,0,0,0-.59914.41648,1.20316,1.20316,0,0,0-.24746.7999v4.49712h-1.19829v-4.63327a1.02519,1.02519,0,0,0-.2144-.66375,1.24339,1.24339,0,0,0-.528-.40347,1.55032,1.55032,0,0,0-.62518-.13715,1.84416,1.84416,0,0,0-.69633.14317,1.4265,1.4265,0,0,0-.58611.42947,1.19227,1.19227,0,0,0-.23445.76788v4.49712Zm11.16924,2.09537v-8.824h1.19828l.013,1.17135a3.129,3.129,0,0,1,.43582-.57264,2.36753,2.36753,0,0,1,1.77838-.72886,2.54375,2.54375,0,0,1,1.96673.83295,3.71156,3.71156,0,0,1,.76146,2.56994,4.1563,4.1563,0,0,1-.74843,2.662,2.529,2.529,0,0,1-2.07794.92406,2.22358,2.22358,0,0,1-1.022-.21524,2.30411,2.30411,0,0,1-.6843-.53363,3.01323,3.01323,0,0,1-.40977-.59867v3.31276Zm3.09989-2.90229a1.69065,1.69065,0,0,0,1.36059-.63173,3.82856,3.82856,0,0,0,.04609-3.80032,1.79337,1.79337,0,0,0-2.82639.013,3.11275,3.11275,0,0,0-.4819,1.80906,3.82876,3.82876,0,0,0,.2144,1.31449,2.14886,2.14886,0,0,0,.63822.94407A1.5885,1.5885,0,0,0,123.1371,277.50979Zm6.23284.892a1.92346,1.92346,0,0,1-1.09407-.25429,1.24665,1.24665,0,0,1-.48793-.67075,3.274,3.274,0,0,1-.11723-.891v-7.939H128.856v7.82189a1.25093,1.25093,0,0,0,.19537.76787.75485.75485,0,0,0,.56008.27332l.36469.006v.78089A1.98687,1.98687,0,0,1,129.36994,278.4018Zm2.82437-3.1696a3.10447,3.10447,0,0,0,.20841,1.1583,1.869,1.869,0,0,0,.64522.81994,1.84455,1.84455,0,0,0,1.08707.30537,1.98559,1.98559,0,0,0,1.1071-.29935,1.337,1.337,0,0,0,.59914-.865h1.14016a2.30164,2.30164,0,0,1-.547,1.15231,2.73849,2.73849,0,0,1-1.02294.70882,3.39839,3.39839,0,0,1-1.25038.23427,3.272,3.272,0,0,1-1.66016-.41047,2.84523,2.84523,0,0,1-1.12013-1.17733,3.90727,3.90727,0,0,1-.40377-1.8421,4.44507,4.44507,0,0,1,.36469-1.86112,2.86188,2.86188,0,0,1,1.055-1.24944,3.02014,3.02014,0,0,1,1.67318-.44851,2.70192,2.70192,0,0,1,2.18815.904,3.63154,3.63154,0,0,1,.76245,2.42775v.44252Zm.007-.81394h3.66a2.37128,2.37128,0,0,0-.44285-1.45765,1.58364,1.58364,0,0,0-1.35456-.59168,1.731,1.731,0,0,0-1.049.30537,1.8104,1.8104,0,0,0-.61816.77487A2.32629,2.32629,0,0,0,132.20133,274.41826Zm9.57721-1.9522h-1.51689v4.18475q0,.54065.16933.66375a1.266,1.266,0,0,0,.65123.11714h.73541v.80692a2.03788,2.03788,0,0,1-.37772.07809,4.79009,4.79009,0,0,1-.61818.033,1.83011,1.83011,0,0,1-1.41368-.42348,1.86886,1.86886,0,0,1-.35769-1.23639v-4.2238h-1.09408v-.878h1.12614l.29356-1.95923h.88568v1.95224h1.51689Zm2.3124,2.76614a3.08481,3.08481,0,0,0,.20839,1.1583,1.867,1.867,0,0,0,.64423.81994,1.84558,1.84558,0,0,0,1.08806.30537,1.98788,1.98788,0,0,0,1.1071-.29935,1.34046,1.34046,0,0,0,.59915-.865H148.877a2.28519,2.28519,0,0,1-.547,1.15231,2.74279,2.74279,0,0,1-1.022.70882,3.406,3.406,0,0,1-1.25038.23427,3.27575,3.27575,0,0,1-1.66116-.41047,2.85139,2.85139,0,0,1-1.12012-1.17733,3.90727,3.90727,0,0,1-.40377-1.8421,4.44492,4.44492,0,0,1,.36469-1.86112,2.875,2.875,0,0,1,1.055-1.24944,3.02589,3.02589,0,0,1,1.67417-.44851,2.702,2.702,0,0,1,2.18816.904,3.6312,3.6312,0,0,1,.76145,2.42775v.44252Zm.006-.81394h3.66a2.365,2.365,0,0,0-.44284-1.45765,1.58239,1.58239,0,0,0-1.35456-.59168,1.72786,1.72786,0,0,0-1.048.30537,1.80508,1.80508,0,0,0-.61917.77487A2.3582,2.3582,0,0,0,144.097,274.41826Zm8.80173,4.0286a2.602,2.602,0,0,1-2.084-.898,3.95452,3.95452,0,0,1-.76144-2.623,4.16736,4.16736,0,0,1,.69031-2.51788,2.39421,2.39421,0,0,1,2.06392-.95009,2.56934,2.56934,0,0,1,1.08806.20824,2.41953,2.41953,0,0,1,.72939.48756,2.09072,2.09072,0,0,1,.39074.50158v-4.00856h1.2113v9.67h-.91874l-.13025-1.37956a2.69693,2.69693,0,0,1-.3186.6177,1.98536,1.98536,0,0,1-.70333.62471A2.53572,2.53572,0,0,1,152.89868,278.44686Zm.21541-.92406a1.661,1.661,0,0,0,1.45878-.61871,3.60892,3.60892,0,0,0,.44283-2.03631,3.34088,3.34088,0,0,0-.44283-1.82209,1.58908,1.58908,0,0,0-1.43273-.65073,1.73164,1.73164,0,0,0-1.35458.59168,2.79029,2.79029,0,0,0-.521,1.88114,3.48012,3.48012,0,0,0,.46889,1.95822A1.56608,1.56608,0,0,0,153.11409,277.5228Zm9.76557.92406a2.42126,2.42126,0,0,1-1.60206-.51459,1.76726,1.76726,0,0,1-.61816-1.43764,1.896,1.896,0,0,1,.78148-1.6659,4.6528,4.6528,0,0,1,2.50677-.58566l1.20529-.033v-.5266a1.28066,1.28066,0,0,0-.37771-.97611,1.57985,1.57985,0,0,0-1.14619-.36443,1.94819,1.94819,0,0,0-1.02295.27934,1.24716,1.24716,0,0,0-.56607.866h-1.062a1.8808,1.8808,0,0,1,.76846-1.50372,3.21,3.21,0,0,1,1.9407-.5266,2.97959,2.97959,0,0,1,1.96674.55263,1.98325,1.98325,0,0,1,.65825,1.60785v4.69834h-1.029l-.08515-1.26243a2.36125,2.36125,0,0,1-.9959,1.09323A2.92353,2.92353,0,0,1,162.87966,278.44686Zm.3647-.866a1.9848,1.9848,0,0,0,.88567-.21426,2.2268,2.2268,0,0,0,.7294-.54661,1.1267,1.1267,0,0,0,.29355-.71581v-1.15231l-1.00291.02a3.79248,3.79248,0,0,0-1.7393.34438,1.11668,1.11668,0,0,0-.5791,1.06121,1.08553,1.08553,0,0,0,.39074.891A1.60265,1.60265,0,0,0,163.24436,277.58088Zm5.02455.73583V271.588h1.16622v.97612a2.21011,2.21011,0,0,1,.77446-.74884,2.51088,2.51088,0,0,1,1.33554-.32538,2.70022,2.70022,0,0,1,1.17224.25429,1.94859,1.94859,0,0,1,.85962.7939,2.62343,2.62343,0,0,1,.32563,1.37956v4.399h-1.20529v-4.28188a1.38886,1.38886,0,0,0-1.48484-1.54876,2.41183,2.41183,0,0,0-.85262.14918,1.46554,1.46554,0,0,0-.64522.44249,1.11309,1.11309,0,0,0-.24746.74185v4.49712Zm9.84671.13015a2.59924,2.59924,0,0,1-2.084-.898,3.95457,3.95457,0,0,1-.76245-2.623,4.17432,4.17432,0,0,1,.6903-2.51788,2.39735,2.39735,0,0,1,2.06493-.95009,2.56773,2.56773,0,0,1,1.08706.20824,2.41953,2.41953,0,0,1,.72939.48756,2.09132,2.09132,0,0,1,.39075.50158v-4.00856H181.443v9.67h-.91775l-.13025-1.37956a2.74785,2.74785,0,0,1-.31961.6177,1.98536,1.98536,0,0,1-.70333.62471A2.5342,2.5342,0,0,1,178.11562,278.44686Zm.21441-.92406a1.65986,1.65986,0,0,0,1.45878-.61871,3.60048,3.60048,0,0,0,.44284-2.03631,3.341,3.341,0,0,0-.44284-1.82209,1.58909,1.58909,0,0,0-1.43273-.65073,1.73307,1.73307,0,0,0-1.35458.59168,2.79029,2.79029,0,0,0-.521,1.88114,3.48012,3.48012,0,0,0,.46889,1.95822A1.56725,1.56725,0,0,0,178.33,277.5228Zm-115.188,20.90979v-8.824h1.19827l.013,1.17135a3.09411,3.09411,0,0,1,.43683-.57265,2.36291,2.36291,0,0,1,1.77738-.72885,2.54234,2.54234,0,0,1,1.96673.83294,3.7116,3.7116,0,0,1,.76245,2.57,4.15634,4.15634,0,0,1-.74942,2.662,2.52578,2.52578,0,0,1-2.07695.92406,2.22811,2.22811,0,0,1-1.023-.21524,2.29981,2.29981,0,0,1-.6833-.53363,2.97942,2.97942,0,0,1-.41077-.59867v3.31276Zm3.09988-2.90229a1.69119,1.69119,0,0,0,1.36159-.63174,3.83163,3.83163,0,0,0,.04509-3.80031,1.79336,1.79336,0,0,0-2.82638.013,3.11273,3.11273,0,0,0-.48191,1.80906,3.82861,3.82861,0,0,0,.21541,1.31449,2.14052,2.14052,0,0,0,.63821.94406A1.58391,1.58391,0,0,0,66.24193,295.5303Zm4.53362.80691v-6.72866h1.14619V290.903a2.016,2.016,0,0,1,.80051-1.07321,2.18563,2.18563,0,0,1,1.19227-.35141,1.8915,1.8915,0,0,1,.28654.02.664.664,0,0,1,.22744.06407v1.16532a.7674.7674,0,0,0-.25349-.059,2.00621,2.00621,0,0,0-.25448-.019,2.25261,2.25261,0,0,0-1.37361.30534,1.30032,1.30032,0,0,0-.57309,1.19738v4.18475Zm7.47322.13016a2.95468,2.95468,0,0,1-2.24729-.892,3.601,3.601,0,0,1-.84661-2.57694,4.46278,4.46278,0,0,1,.35869-1.84811,2.75232,2.75232,0,0,1,1.048-1.22939,3.06223,3.06223,0,0,1,1.68722-.44252,2.87216,2.87216,0,0,1,2.22722.911,3.729,3.729,0,0,1,.83359,2.609,4.36607,4.36607,0,0,1-.35167,1.809,2.73652,2.73652,0,0,1-1.029,1.22341A3.03952,3.03952,0,0,1,78.24877,296.46737Zm0-.95009a1.59658,1.59658,0,0,0,1.38662-.67676,3.1888,3.1888,0,0,0,.48192-1.86813,3.99382,3.99382,0,0,0-.19536-1.29447,1.92937,1.92937,0,0,0-.59915-.91807,1.82944,1.82944,0,0,0-2.48071.3384,3.137,3.137,0,0,0-.48894,1.87414,4.00777,4.00777,0,0,0,.19538,1.28846,1.952,1.952,0,0,0,.61217.918A1.67649,1.67649,0,0,0,78.24877,295.51728Zm7.21972-6.03888a2.76791,2.76791,0,0,1,1.83047.6177,2.4622,2.4622,0,0,1,.87867,1.63987h-1.068a1.53477,1.53477,0,0,0-.514-.904,1.60358,1.60358,0,0,0-1.12013-.38444,1.78454,1.78454,0,0,0-1.40668.6247,2.8659,2.8659,0,0,0-.541,1.91319,3.18511,3.18511,0,0,0,.495,1.86812,1.6988,1.6988,0,0,0,1.47179.6958,1.57823,1.57823,0,0,0,1.11412-.39046,1.56018,1.56018,0,0,0,.508-.898h1.048a2.36305,2.36305,0,0,1-.87867,1.61383,2.81993,2.81993,0,0,1-1.81745.59269,3.1843,3.1843,0,0,1-1.60806-.39746,2.746,2.746,0,0,1-1.09409-1.17135,4.11719,4.11719,0,0,1-.39774-1.90014,4.42928,4.42928,0,0,1,.35868-1.84111,2.82591,2.82591,0,0,1,1.055-1.23639A3.07745,3.07745,0,0,1,85.46849,289.4784Zm5.09769,3.77431a3.08465,3.08465,0,0,0,.2084,1.1583,1.86891,1.86891,0,0,0,.64522.81993,1.84443,1.84443,0,0,0,1.08706.30537A1.988,1.988,0,0,0,93.614,295.237a1.34042,1.34042,0,0,0,.59913-.865h1.14017a2.30176,2.30176,0,0,1-.547,1.15232,2.7385,2.7385,0,0,1-1.023.70881,3.40584,3.40584,0,0,1-1.25038.23428,3.272,3.272,0,0,1-1.66015-.41047,2.84526,2.84526,0,0,1-1.12013-1.17734,3.90723,3.90723,0,0,1-.40376-1.84209,4.445,4.445,0,0,1,.36469-1.86113,2.862,2.862,0,0,1,1.055-1.24944,3.0202,3.0202,0,0,1,1.67319-.4485,2.70191,2.70191,0,0,1,2.18815.904,3.63152,3.63152,0,0,1,.76245,2.42775v.44252Zm.007-.81394h3.66a2.37137,2.37137,0,0,0-.44284-1.45766,1.58366,1.58366,0,0,0-1.35458-.59167,1.72888,1.72888,0,0,0-1.049.30537,1.81037,1.81037,0,0,0-.61818.77487A2.3264,2.3264,0,0,0,90.57319,292.43877Zm8.71156,4.0286a3.75468,3.75468,0,0,1-1.30849-.22126,2.44277,2.44277,0,0,1-1.0029-.67677,2.23129,2.23129,0,0,1-.49494-1.19136h1.09407a1.35464,1.35464,0,0,0,.59213.892,2.02964,2.02964,0,0,0,1.11412.29935,2.08678,2.08678,0,0,0,1.09409-.25429.85148.85148,0,0,0,.41679-.78088q0-.70884-.8927-.92406l-1.39366-.34438a3.09016,3.09016,0,0,1-1.30848-.61169,1.45579,1.45579,0,0,1-.48191-1.16533,1.80468,1.80468,0,0,1,.63821-1.44467,2.84792,2.84792,0,0,1,1.92766-.56564,2.90335,2.90335,0,0,1,1.76436.49458,1.73116,1.73116,0,0,1,.70333,1.43764h-1.061a1.1303,1.1303,0,0,0-.43683-.76088,1.54869,1.54869,0,0,0-.98288-.28633,1.91118,1.91118,0,0,0-1.049.2603.86906.86906,0,0,0-.40376.7939.6611.6611,0,0,0,.28654.56565,2.53242,2.53242,0,0,0,.84661.3384l1.34857.33937a2.38435,2.38435,0,0,1,.96382.46153,1.66547,1.66547,0,0,1,.48192.65675,1.9304,1.9304,0,0,1,.13626.68978,1.75537,1.75537,0,0,1-.68329,1.46465A3.03639,3.03639,0,0,1,99.28475,296.46737Zm6.45026,0a3.75458,3.75458,0,0,1-1.30848-.22126,2.44251,2.44251,0,0,1-1.0029-.67677,2.23129,2.23129,0,0,1-.495-1.19136h1.09408a1.35454,1.35454,0,0,0,.59213.892,2.02964,2.02964,0,0,0,1.11412.29935,2.0867,2.0867,0,0,0,1.09407-.25429.85144.85144,0,0,0,.41679-.78088q0-.70884-.89268-.92406l-1.39366-.34438a3.09,3.09,0,0,1-1.30849-.61169,1.45583,1.45583,0,0,1-.48192-1.16533,1.80475,1.80475,0,0,1,.63822-1.44467,2.848,2.848,0,0,1,1.92767-.56564,2.90332,2.90332,0,0,1,1.76435.49458,1.73116,1.73116,0,0,1,.70333,1.43764h-1.061a1.13027,1.13027,0,0,0-.43684-.76088,1.5487,1.5487,0,0,0-.98287-.28633,1.91116,1.91116,0,0,0-1.049.2603.86907.86907,0,0,0-.40377.7939.6611.6611,0,0,0,.28654.56565,2.5326,2.5326,0,0,0,.84661.3384l1.34857.33937a2.38446,2.38446,0,0,1,.96383.46153,1.66547,1.66547,0,0,1,.48192.65675,1.93062,1.93062,0,0,1,.13626.68978,1.75533,1.75533,0,0,1-.68331,1.46465A3.03634,3.03634,0,0,1,105.735,296.46737Zm5.03458-3.21466a3.085,3.085,0,0,0,.20839,1.1583,1.75023,1.75023,0,0,0,1.7323,1.1253,1.98788,1.98788,0,0,0,1.1071-.29935,1.34048,1.34048,0,0,0,.59915-.865h1.13916a2.28517,2.28517,0,0,1-.547,1.15232,2.72658,2.72658,0,0,1-1.02193.70881,3.40588,3.40588,0,0,1-1.25038.23428,3.2784,3.2784,0,0,1-1.66116-.41047,2.85765,2.85765,0,0,1-1.12013-1.17734,3.9193,3.9193,0,0,1-.40377-1.84209,4.46052,4.46052,0,0,1,.3647-1.86113,2.87507,2.87507,0,0,1,1.055-1.24944,3.026,3.026,0,0,1,1.67418-.4485,2.70193,2.70193,0,0,1,2.18817.904,3.63128,3.63128,0,0,1,.76144,2.42775v.44252Zm.006-.81394h3.66a2.365,2.365,0,0,0-.44284-1.45766,1.5812,1.5812,0,0,0-1.35458-.59167,1.7278,1.7278,0,0,0-1.048.30537,1.82,1.82,0,0,0-.61918.77487A2.35848,2.35848,0,0,0,110.7756,292.43877Zm8.80273,4.0286a2.59928,2.59928,0,0,1-2.084-.898,3.95464,3.95464,0,0,1-.76245-2.623,4.17435,4.17435,0,0,1,.69032-2.51788,2.39732,2.39732,0,0,1,2.06492-.95008,2.56762,2.56762,0,0,1,1.08707.20824,2.41977,2.41977,0,0,1,.72938.48755,2.09125,2.09125,0,0,1,.39075.50158v-4.00856h1.2113v9.67h-.91775l-.13023-1.37956a2.74852,2.74852,0,0,1-.31961.61771,1.98523,1.98523,0,0,1-.70335.6247A2.534,2.534,0,0,1,119.57833,296.46737Zm.21442-.92406a1.65984,1.65984,0,0,0,1.45876-.61871,3.60049,3.60049,0,0,0,.44285-2.03632,3.34083,3.34083,0,0,0-.44285-1.82208,1.589,1.589,0,0,0-1.43271-.65073,1.733,1.733,0,0,0-1.35458.59167,2.79025,2.79025,0,0,0-.521,1.88114,3.4802,3.4802,0,0,0,.46889,1.95822A1.56729,1.56729,0,0,0,119.79275,295.54331Zm10.29357.92406a3.7546,3.7546,0,0,1-1.30849-.22126,2.44267,2.44267,0,0,1-1.00291-.67677A2.23129,2.23129,0,0,1,127.28,294.378h1.09409a1.35807,1.35807,0,0,0,.59212.892,2.02967,2.02967,0,0,0,1.11411.29935,2.08673,2.08673,0,0,0,1.09409-.25429.85149.85149,0,0,0,.4168-.78088q0-.70884-.89271-.92406l-1.39364-.34438a3.09,3.09,0,0,1-1.30848-.61169,1.4558,1.4558,0,0,1-.48192-1.16533,1.80464,1.80464,0,0,1,.6382-1.44467,2.848,2.848,0,0,1,1.92766-.56564,2.90331,2.90331,0,0,1,1.76436.49458,1.73117,1.73117,0,0,1,.70335,1.43764h-1.061a1.13018,1.13018,0,0,0-.43683-.76088,1.54672,1.54672,0,0,0-.98286-.28633,1.91124,1.91124,0,0,0-1.049.2603.87111.87111,0,0,0-.40377.7939.66351.66351,0,0,0,.28655.56565,2.54142,2.54142,0,0,0,.84662.3384l1.34855.33937a2.38458,2.38458,0,0,1,.96384.46153,1.66531,1.66531,0,0,1,.4819.65675,1.9304,1.9304,0,0,1,.13626.68978,1.75532,1.75532,0,0,1-.68329,1.46465A3.03631,3.03631,0,0,1,130.08632,296.46737Zm6.64963,0a3.283,3.283,0,0,1-1.28945-.26031,2.24239,2.24239,0,0,1-.9438-.76787,2.16341,2.16341,0,0,1-.35166-1.26242v-4.56822h1.2043v4.44405a1.45387,1.45387,0,0,0,.40376,1.06723,1.67383,1.67383,0,0,0,1.23133.41047,1.769,1.769,0,0,0,1.19128-.38444,1.4412,1.4412,0,0,0,.45585-1.1583v-4.379h1.19829v6.72866H138.879l-.12424-1.28845a1.6395,1.6395,0,0,1-.74241,1.09322A2.41445,2.41445,0,0,1,136.736,296.46737Zm7.56137-6.989a2.768,2.768,0,0,1,1.8305.6177,2.46241,2.46241,0,0,1,.87867,1.63987h-1.068a1.52963,1.52963,0,0,0-.514-.904,1.60188,1.60188,0,0,0-1.12013-.38444,1.7845,1.7845,0,0,0-1.40666.6247,2.86585,2.86585,0,0,0-.541,1.91319,3.18525,3.18525,0,0,0,.49494,1.86812,1.69884,1.69884,0,0,0,1.4718.6958,1.57819,1.57819,0,0,0,1.11411-.39046,1.5492,1.5492,0,0,0,.508-.898h1.048a2.363,2.363,0,0,1-.87867,1.61383,2.82,2.82,0,0,1-1.81747.59269,3.187,3.187,0,0,1-1.60805-.39746,2.74574,2.74574,0,0,1-1.09407-1.17135,4.12976,4.12976,0,0,1-.39776-1.90014,4.44537,4.44537,0,0,1,.35868-1.84111,2.839,2.839,0,0,1,1.055-1.23639A3.07984,3.07984,0,0,1,144.29732,289.4784Zm6.92117,0a2.76791,2.76791,0,0,1,1.83047.6177,2.4622,2.4622,0,0,1,.87867,1.63987h-1.068a1.53477,1.53477,0,0,0-.514-.904,1.60358,1.60358,0,0,0-1.12013-.38444,1.78454,1.78454,0,0,0-1.40668.6247,2.8659,2.8659,0,0,0-.541,1.91319,3.18511,3.18511,0,0,0,.49495,1.86812,1.6988,1.6988,0,0,0,1.47179.6958,1.57823,1.57823,0,0,0,1.11412-.39046,1.56018,1.56018,0,0,0,.508-.898h1.048a2.36305,2.36305,0,0,1-.87867,1.61383,2.81993,2.81993,0,0,1-1.81745.59269,3.1843,3.1843,0,0,1-1.60806-.39746,2.746,2.746,0,0,1-1.09409-1.17135,4.11719,4.11719,0,0,1-.39774-1.90014,4.42928,4.42928,0,0,1,.35868-1.84111,2.82591,2.82591,0,0,1,1.055-1.23639A3.07745,3.07745,0,0,1,151.21849,289.4784Zm5.09769,3.77431a3.08465,3.08465,0,0,0,.2084,1.1583,1.86891,1.86891,0,0,0,.64522.81993,1.84443,1.84443,0,0,0,1.08706.30537,1.988,1.988,0,0,0,1.10712-.29935,1.34042,1.34042,0,0,0,.59913-.865h1.14017a2.30176,2.30176,0,0,1-.547,1.15232,2.7385,2.7385,0,0,1-1.023.70881,3.40584,3.40584,0,0,1-1.25038.23428,3.272,3.272,0,0,1-1.66015-.41047,2.84526,2.84526,0,0,1-1.12013-1.17734,3.90723,3.90723,0,0,1-.40376-1.84209,4.445,4.445,0,0,1,.36469-1.86113,2.862,2.862,0,0,1,1.055-1.24944,3.0202,3.0202,0,0,1,1.67319-.4485,2.70191,2.70191,0,0,1,2.18815.904,3.63152,3.63152,0,0,1,.76245,2.42775v.44252Zm.007-.81394h3.66a2.37137,2.37137,0,0,0-.44284-1.45766,1.58366,1.58366,0,0,0-1.35458-.59167,1.72888,1.72888,0,0,0-1.049.30537,1.81037,1.81037,0,0,0-.61818.77487A2.3264,2.3264,0,0,0,156.32319,292.43877Zm8.71156,4.0286a3.75468,3.75468,0,0,1-1.30849-.22126,2.44277,2.44277,0,0,1-1.0029-.67677,2.23129,2.23129,0,0,1-.49494-1.19136h1.09407a1.35464,1.35464,0,0,0,.59213.892,2.02964,2.02964,0,0,0,1.11412.29935,2.08678,2.08678,0,0,0,1.09409-.25429.85148.85148,0,0,0,.41679-.78088q0-.70884-.8927-.92406l-1.39366-.34438a3.09016,3.09016,0,0,1-1.30848-.61169,1.45579,1.45579,0,0,1-.48191-1.16533,1.80468,1.80468,0,0,1,.63821-1.44467,2.84792,2.84792,0,0,1,1.92766-.56564,2.90335,2.90335,0,0,1,1.76436.49458,1.73116,1.73116,0,0,1,.70333,1.43764h-1.061a1.1303,1.1303,0,0,0-.43683-.76088,1.54869,1.54869,0,0,0-.98288-.28633,1.91118,1.91118,0,0,0-1.049.2603.86906.86906,0,0,0-.40376.7939.6611.6611,0,0,0,.28654.56565,2.53242,2.53242,0,0,0,.84661.3384l1.34857.33937a2.38435,2.38435,0,0,1,.96382.46153,1.66547,1.66547,0,0,1,.48192.65675,1.9304,1.9304,0,0,1,.13626.68978,1.75537,1.75537,0,0,1-.68329,1.46465A3.03639,3.03639,0,0,1,165.03475,296.46737Zm6.45026,0a3.75458,3.75458,0,0,1-1.30848-.22126,2.44251,2.44251,0,0,1-1.0029-.67677,2.23129,2.23129,0,0,1-.49495-1.19136h1.09408a1.35454,1.35454,0,0,0,.59213.892,2.02964,2.02964,0,0,0,1.11412.29935,2.0867,2.0867,0,0,0,1.09407-.25429.85144.85144,0,0,0,.41679-.78088q0-.70884-.89268-.92406l-1.39366-.34438a3.09,3.09,0,0,1-1.30849-.61169,1.45583,1.45583,0,0,1-.48192-1.16533,1.80475,1.80475,0,0,1,.63822-1.44467,2.848,2.848,0,0,1,1.92767-.56564,2.90332,2.90332,0,0,1,1.76435.49458,1.73116,1.73116,0,0,1,.70333,1.43764h-1.061a1.13027,1.13027,0,0,0-.43684-.76088,1.5487,1.5487,0,0,0-.98287-.28633,1.91116,1.91116,0,0,0-1.049.2603.86907.86907,0,0,0-.40377.7939.6611.6611,0,0,0,.28654.56565,2.5326,2.5326,0,0,0,.84661.3384l1.34857.33937a2.38446,2.38446,0,0,1,.96383.46153,1.66547,1.66547,0,0,1,.48192.65675,1.93062,1.93062,0,0,1,.13626.68978,1.75533,1.75533,0,0,1-.68331,1.46465A3.03634,3.03634,0,0,1,171.485,296.46737Zm7.97817-6.85882v.878h-1.6351v5.85065h-1.2113v-5.85065h-1.41971v-.878h1.41971v-1.04116a1.44734,1.44734,0,0,1,1.6351-1.63987h1.26941l.007.85195h-1.00992a.63087.63087,0,0,0-.56007.22126,1.21623,1.21623,0,0,0-.14929.67075v.93707Zm3.86235,6.85882a3.283,3.283,0,0,1-1.28945-.26031,2.24233,2.24233,0,0,1-.9438-.76787,2.16341,2.16341,0,0,1-.35166-1.26242v-4.56822h1.20428v4.44405a1.4579,1.4579,0,0,0,.40377,1.06723,1.67383,1.67383,0,0,0,1.23134.41047,1.76888,1.76888,0,0,0,1.19126-.38444,1.438,1.438,0,0,0,.45587-1.1583v-4.379h1.19828v6.72866h-.95682l-.12423-1.28845a1.63953,1.63953,0,0,1-.74241,1.09322A2.41211,2.41211,0,0,1,183.32553,296.46737Zm6.66768-.04507a1.92351,1.92351,0,0,1-1.09409-.25429,1.24663,1.24663,0,0,1-.48793-.67074,3.27438,3.27438,0,0,1-.11721-.891v-7.939h1.18525v7.82189a1.251,1.251,0,0,0,.19536.76787.75482.75482,0,0,0,.56007.27333l.3647.006v.78089A1.98644,1.98644,0,0,1,189.99321,296.4223Zm3.58882,0a1.9191,1.9191,0,0,1-1.09409-.25429,1.24841,1.24841,0,0,1-.48892-.67074,3.274,3.274,0,0,1-.11723-.891v-7.939H193.067v7.82189a1.25091,1.25091,0,0,0,.19538.76787.75654.75654,0,0,0,.56006.27333l.36469.006v.78089A1.9804,1.9804,0,0,1,193.582,296.4223Zm2.48873,2.06235a2.62929,2.62929,0,0,1-.81355-.08408c-.14827-.05708-.22143-.08509-.22143-.08509v-.78089l.68331.013a1.85067,1.85067,0,0,0,.77548-.09713.94987.94987,0,0,0,.40977-.29333,1.70909,1.70909,0,0,0,.20238-.34439l.23446-.63873-2.631-6.56548h1.21731l1.98678,5.19292,1.97276-5.19292h1.17924l-2.8394,7.23623a2.67949,2.67949,0,0,1-.92476,1.3015A2.25535,2.25535,0,0,1,196.07076,298.48465Z"/><ellipse class="f4fc994b-5617-4654-8306-3b5fbae3ccfb" cx="130.24762" cy="206.23468" rx="28.05333" ry="28.0319"/><path class="bba7b15f-ef5f-4151-9801-a35860095e9c" d="M121.23048,207.93263l4.58571,4.58221,13.29829-13.28813"/><path class="a9a344f5-8e27-44c8-975e-7c7481916003" d="M81.15429,318.36228H182.34667a15.02283,15.02283,0,0,1,15.02857,15.01709h0a15.02283,15.02283,0,0,1-15.02857,15.01708H81.15429a15.02283,15.02283,0,0,1-15.02858-15.01708h0A15.02284,15.02284,0,0,1,81.15429,318.36228Z"/><path class="aeacd35f-770d-4c74-bfc3-9a18d7eabb2c" d="M112.78843,329.42186h.99188q.38023,0,.75444.005.38023,0,.6342.006a5.2611,5.2611,0,0,1,2.35849.51759A3.04068,3.04068,0,0,1,118.872,331.305a4.6,4.6,0,0,1,.42982,2.05932,4.74094,4.74094,0,0,1-.45187,2.14145,3.13575,3.13575,0,0,1-1.38362,1.38759,4.995,4.995,0,0,1-2.35247.49055h-2.32542Zm1.62007,1.29948v5.3631h.7384a2.85224,2.85224,0,0,0,1.23936-.26431,1.99946,1.99946,0,0,0,.89871-.865,3.28221,3.28221,0,0,0,.33565-1.60183,2.64337,2.64337,0,0,0-.66126-2.01028,2.49566,2.49566,0,0,0-1.79041-.62171Zm7.65957-1.29447v1.44864h-1.565v-1.44864Zm-.017,2.26356v5.69349h-1.53692v-5.69349Zm3.6279,5.8036a3.39789,3.39789,0,0,1-1.14618-.19321,2.32891,2.32891,0,0,1-.93178-.6167,1.99231,1.99231,0,0,1-.48492-1.09524h1.39465a.87088.87088,0,0,0,.46287.63271,1.63086,1.63086,0,0,0,.69433.17121,1.64834,1.64834,0,0,0,.74342-.14316.48013.48013,0,0,0,.28654-.45154.45234.45234,0,0,0-.17032-.36941,1.2444,1.2444,0,0,0-.55105-.20922l-1.00292-.20925a2.7977,2.7977,0,0,1-1.2183-.53962,1.36209,1.36209,0,0,1-.46289-1.09023,1.58774,1.58774,0,0,1,.60615-1.28246,2.70976,2.70976,0,0,1,1.78541-.51759,2.75536,2.75536,0,0,1,1.68119.46754,1.54366,1.54366,0,0,1,.64423,1.29946H126.6648a.73622.73622,0,0,0-.33063-.50656,1.15085,1.15085,0,0,0-.66626-.18121,1.42046,1.42046,0,0,0-.68931.14815.48371.48371,0,0,0-.26951.45153.40151.40151,0,0,0,.22042.35841,2.3851,2.3851,0,0,0,.68329.22026l.92577.20922a2.21187,2.21187,0,0,1,.96382.45153,1.52439,1.52439,0,0,1,.45187.6277,1.684,1.684,0,0,1,.12123.58367,1.52251,1.52251,0,0,1-.66626,1.32151A2.97577,2.97577,0,0,1,125.67894,337.494Zm3.44053-.11011v-5.69349h1.576v.80393a2.29051,2.29051,0,0,1,.69431-.64374,2.08628,2.08628,0,0,1,1.10811-.2703,1.93937,1.93937,0,0,1,.88668.23125,1.65938,1.65938,0,0,1,.71136.68279,2.23962,2.23962,0,0,1,.72137-.64973,1.9495,1.9495,0,0,1,1.0029-.26431,2.08217,2.08217,0,0,1,.85462.19221,1.65941,1.65941,0,0,1,.71637.63872,2.20643,2.20643,0,0,1,.29156,1.21739v3.75528H136.0737v-3.55705a.83987.83987,0,0,0-.28654-.72681,1.04569,1.04569,0,0,0-.62821-.20926,1.15484,1.15484,0,0,0-.43482.08812.87673.87673,0,0,0-.37472.26928.74539.74539,0,0,0-.15428.49058v3.64514h-1.60405V333.6837a.67522.67522,0,0,0-.29156-.58966,1.05947,1.05947,0,0,0-.61217-.20324,1.1505,1.1505,0,0,0-.64421.20926.71461.71461,0,0,0-.31461.63872v3.64514Zm11.42071-7.957v1.44864h-1.565v-1.44864Zm-.016,2.26356v5.69349h-1.53793v-5.69349Zm3.62689,5.8036a3.398,3.398,0,0,1-1.14618-.19321,2.31861,2.31861,0,0,1-.93077-.6167,1.99231,1.99231,0,0,1-.48491-1.09524h1.39364a.87588.87588,0,0,0,.46288.63271,1.63075,1.63075,0,0,0,.69432.17121,1.65287,1.65287,0,0,0,.74441-.14316.48171.48171,0,0,0,.28655-.45154.45032.45032,0,0,0-.17133-.36941,1.23921,1.23921,0,0,0-.55105-.20922l-1.0029-.20925a2.79888,2.79888,0,0,1-1.21732-.53962,1.35587,1.35587,0,0,1-.46287-1.09023,1.58768,1.58768,0,0,1,.60615-1.28246,2.706,2.706,0,0,1,1.78539-.51759,2.75217,2.75217,0,0,1,1.68019.46754,1.54447,1.54447,0,0,1,.64523,1.29946h-1.34455a.74282.74282,0,0,0-.33063-.50656,1.152,1.152,0,0,0-.66727-.18121,1.41363,1.41363,0,0,0-.68831.14815.48459.48459,0,0,0-.27052.45153.40151.40151,0,0,0,.22042.35841,2.3965,2.3965,0,0,0,.68331.22026l.92576.20922a2.21072,2.21072,0,0,1,.96483.45153,1.53356,1.53356,0,0,1,.45186.6277,1.70745,1.70745,0,0,1,.12123.58367,1.521,1.521,0,0,1-.66727,1.32151A2.97354,2.97354,0,0,1,144.15105,337.494Zm5.61968,0a3.39805,3.39805,0,0,1-1.14618-.19321,2.329,2.329,0,0,1-.93176-.6167,1.99946,1.99946,0,0,1-.48493-1.09524h1.39466a.87589.87589,0,0,0,.46287.63271,1.63086,1.63086,0,0,0,.69433.17121,1.64819,1.64819,0,0,0,.7434-.14316.48012.48012,0,0,0,.28656-.45154.44948.44948,0,0,0-.17034-.36941,1.23917,1.23917,0,0,0-.551-.20922l-1.00292-.20925a2.80307,2.80307,0,0,1-1.21832-.53962,1.36207,1.36207,0,0,1-.46287-1.09023,1.5906,1.5906,0,0,1,.60615-1.28246,2.7097,2.7097,0,0,1,1.78539-.51759,2.75337,2.75337,0,0,1,1.68121.46754,1.54113,1.54113,0,0,1,.64421,1.29946h-1.34455a.73626.73626,0,0,0-.33063-.50656,1.14869,1.14869,0,0,0-.66626-.18121,1.42041,1.42041,0,0,0-.68931.14815.48539.48539,0,0,0-.26951.45153.40149.40149,0,0,0,.22042.35841,2.39588,2.39588,0,0,0,.68329.22026l.92575.20922a2.20622,2.20622,0,0,1,.96384.45153,1.52445,1.52445,0,0,1,.45186.6277,1.6843,1.6843,0,0,1,.12124.58367,1.52019,1.52019,0,0,1-.66628,1.32151A2.97356,2.97356,0,0,1,149.77073,337.494Z"/></svg>