<svg id="e1153a55-3fc8-482e-8bab-b10a9042017c" data-name="Слой 1" xmlns="http://www.w3.org/2000/svg" xmlns:xlink="http://www.w3.org/1999/xlink" viewBox="0 0 263 500"><defs><linearGradient id="a2ce23e4-a9c1-4392-8399-e6b2796ad1c3" x1="131.586" y1="502" x2="131.586" y2="489.662" gradientTransform="matrix(1 0 0 -1 0 502)" gradientUnits="userSpaceOnUse"><stop offset="0" stop-color="#454545"/><stop offset=".226" stop-color="#999"/><stop offset="1" stop-color="#fff"/></linearGradient><linearGradient id="acf4a4ea-3ff7-4053-aefd-07fbcb87a9b3" x1="260.599" y1="252.89" x2="251.12" y2="252.89" gradientTransform="matrix(1 0 0 -1 0 502)" gradientUnits="userSpaceOnUse"><stop offset="0" stop-color="#fff" stop-opacity=".01"/><stop offset=".222" stop-color="#bababa"/><stop offset=".547" stop-color="#fff" stop-opacity=".01"/><stop offset="1" stop-color="#fff" stop-opacity=".01"/></linearGradient><linearGradient id="a5510875-5f07-4c1c-ac02-56dd29081553" x1="2.573" y1="252.89" x2="12.067" y2="252.89" xlink:href="#acf4a4ea-3ff7-4053-aefd-07fbcb87a9b3"/><linearGradient id="b10eb12e-f983-4b99-a05d-5ce0b08e31fa" x1="131.75" y1="422.02" x2="131.75" y2="-39.888" gradientTransform="matrix(1 0 0 -1 0 502)" gradientUnits="userSpaceOnUse"><stop offset="0" stop-color="#9cb6cd"/><stop offset=".421" stop-color="#9ab3ca"/><stop offset=".717" stop-color="#557496"/><stop offset="1" stop-color="#475178"/></linearGradient><clipPath id="e3110d71-26b9-437d-a6da-8db286337549"><path class="e8e274fe-97cc-4880-af7b-a199f35c4445" d="M15.103 12.459h233.444V477.99H15.103z"/></clipPath><clipPath id="a166496d-6ee9-4d89-8259-afeee4cea520"><path class="e8e274fe-97cc-4880-af7b-a199f35c4445" d="M22.042 167.191h218.415v87.099H22.042z"/></clipPath><clipPath id="bf94d47a-5d6b-4d52-b1b9-885a67aebbe6"><path class="e8e274fe-97cc-4880-af7b-a199f35c4445" d="M38.072 183.209h187.356v11.013H38.072z"/></clipPath><style>.ed3a1341-fc6a-422e-ae13-9e471bd53124{fill:#fff;fill-rule:evenodd}.f6ff398b-9d56-442a-9879-3fcfea33c6cf{fill-rule:evenodd}.e8e274fe-97cc-4880-af7b-a199f35c4445{fill:none}.f6ff398b-9d56-442a-9879-3fcfea33c6cf{fill:#2e423c}</style><mask id="a301a398-3aba-4ec7-9382-b429d7d93a9d" x="15.029" y="12.459" width="233.444" height="465.531" maskUnits="userSpaceOnUse"><g id="fec19078-8c74-4cbf-858b-e69bb8acaf0a" data-name="mask0 0 4910"><path id="eade32b1-46ff-43dc-b1c8-4f545db1e4bc" data-name="Screen Mask_2" class="ed3a1341-fc6a-422e-ae13-9e471bd53124" d="M108.883 12.459H34.335c-11.125 0-19.232 7.572-19.232 17.461v422.871c0 12.895 12.526 24.318 26.69 24.318h179.675c13.643 0 26.69-11.513 26.69-24.318V31.063c0-11.853-8.807-18.534-19.233-18.604h-75.73a14.357 14.357 0 0 0-7.687 7.572c-2.2 5.387-6.623 9.682-11.467 9.682h-5.625c-2.303 0-8.364-2.232-11.433-9.682-3.07-7.45-7.813-7.525-8.1-7.572z"/></g></mask></defs><g id="e29571b4-8a78-4e5e-a459-2dcb174cddf9" data-name="Group 30"><g id="fd42739e-866c-431a-9bd8-49a7aa856d6f" data-name="Group 52"><g id="bbfc8d11-474f-41ab-972f-3a501454643d" data-name="Group 2"><g id="a5d568eb-8cb9-403c-89ba-bbec99a4d0b4" data-name="iPhone-X-Mockup"><g id="a298a37f-9cfb-4bb4-a971-61e44bf84f44" data-name="phone"><path d="M35.844.57h191.598c18.375 0 33.271 14.252 33.271 31.832v435.767c0 17.58-14.896 31.831-33.271 31.831H35.844c-18.375 0-33.271-14.251-33.271-31.831V32.402C2.573 14.822 17.469.57 35.844.57z" style="fill:#213648;fill-rule:evenodd" id="aded7b4c-0e9b-4493-9af7-6b2f22dfcc11" data-name="body"/><g id="b5c925d9-5842-4ec1-8420-8bec44cff7af" data-name="frame"><path id="fd537c2d-0bae-4ee6-8b55-95ddd81194fa" data-name="reflect-frame-top" d="M228.182 0H34.99q-13.53.824-24.955 12.338c4.898-4.273 13.636-9.99 25.187-9.99H227.95c11.552 0 20.289 5.717 25.188 9.99Q241.712.824 228.182 0z" style="isolation:isolate;fill-opacity:.65;opacity:.59556;fill:url(#a2ce23e4-a9c1-4392-8399-e6b2796ad1c3);fill-rule:evenodd"/><path id="b7b9db9a-167d-4b75-8491-4d647ca2f8ec" data-name="reflect-frame-right" d="M255.485 463.198V35.022c0-11.489-4.225-15.736-6.746-18.463s-2.628-4.118.994-2.058c3.622 2.058 10.866 8.055 10.866 20.52v428.177c0 12.464-7.244 18.461-10.866 20.523-3.622 2.058-3.515.666-.994-2.062 2.52-2.723 6.746-6.973 6.746-18.461z" style="fill:url(#acf4a4ea-3ff7-4053-aefd-07fbcb87a9b3);opacity:.75;isolation:isolate;fill-rule:evenodd"/><path id="ed8836bf-3616-475a-8da4-59201e90534f" data-name="reflect-frame-left" d="M7.687 463.198V35.022c0-11.489 4.225-15.736 6.746-18.463 2.52-2.727 2.628-4.118-.994-2.058-3.622 2.058-10.866 8.055-10.866 20.52v428.177c0 12.464 7.244 18.461 10.866 20.523 3.622 2.058 3.514.666.994-2.062-2.52-2.723-6.746-6.973-6.746-18.461z" style="fill:url(#a5510875-5f07-4c1c-ac02-56dd29081553);opacity:.75;isolation:isolate;fill-rule:evenodd"/></g><g id="ad945fa0-e695-49ca-93aa-2982801950cd" data-name="controls"><path id="e129711d-ae9d-4f87-910c-9177ed20fc7c" data-name="vol+" class="f6ff398b-9d56-442a-9879-3fcfea33c6cf" d="M0 103.675a2.003 2.003 0 0 1 2.004-2.003h.966a2.003 2.003 0 0 1 2.004 2.003v60.42a2.003 2.003 0 0 1-2.004 2.001h-.966A2.003 2.003 0 0 1 0 164.094z"/><path id="bb2a2cbe-a89d-4224-a064-7fd01ebbcfe8" data-name="power" class="f6ff398b-9d56-442a-9879-3fcfea33c6cf" d="M258.026 156.221a2.003 2.003 0 0 1 2.004-2.002h.966A2.003 2.003 0 0 1 263 156.22v43a2.003 2.003 0 0 1-2.004 2.002h-.966a2.003 2.003 0 0 1-2.004-2.002z"/></g></g><g style="clip-path:url(#e3110d71-26b9-437d-a6da-8db286337549)"><g id="f4b07b8e-4b4a-439d-ac34-9ee4162fd273" data-name="Screen"><path id="a0e2bda0-0e72-4e52-8901-6b183fc81991" data-name="Screen Mask" class="ed3a1341-fc6a-422e-ae13-9e471bd53124" d="M108.883 12.459H34.335c-11.125 0-19.232 7.572-19.232 17.461v422.871c0 12.895 12.526 24.318 26.69 24.318h179.675c13.643 0 26.69-11.513 26.69-24.318V31.063c0-11.853-8.807-18.534-19.233-18.604h-75.73a14.357 14.357 0 0 0-7.687 7.572c-2.2 5.387-6.623 9.682-11.467 9.682h-5.625c-2.303 0-8.364-2.232-11.433-9.682-3.07-7.45-7.813-7.525-8.1-7.572z"/><g style="mask:url(#a301a398-3aba-4ec7-9382-b429d7d93a9d)"><path id="aafea5e8-dd3d-4de3-8222-40fec7ea8136" data-name="Rectangle" style="fill:url(#b10eb12e-f983-4b99-a05d-5ce0b08e31fa)" d="M15.029 12.459h233.444V477.99H15.029z"/><path id="f23cbd57-cc81-44a6-8e2f-e5cb7e7dbe7b" data-name="12:49" d="M94.684 141.16v-17.347h-4.136v-2.643a11.382 11.382 0 0 0 3.206-.368 3.905 3.905 0 0 0 1.844-1.09 3.134 3.134 0 0 0 .721-1.714h3.11v23.163zm10.01 0v-3.491a6.59 6.59 0 0 1 .658-3.044 7.435 7.435 0 0 1 1.731-2.242 13.8 13.8 0 0 1 2.373-1.682q1.298-.72 2.597-1.362 1.298-.64 2.372-1.281a6.703 6.703 0 0 0 1.747-1.458 2.887 2.887 0 0 0 .658-1.89 2.921 2.921 0 0 0-.978-2.274 3.769 3.769 0 0 0-2.645-.881 4.496 4.496 0 0 0-2.966 1.009 4.616 4.616 0 0 0-1.507 3.043h-4.472a8.38 8.38 0 0 1 1.026-4.004 7.179 7.179 0 0 1 3.013-2.868 10.716 10.716 0 0 1 5.034-1.057 10.443 10.443 0 0 1 4.472.881 6.823 6.823 0 0 1 2.918 2.451 7.21 7.21 0 0 1 .385 6.68 6.88 6.88 0 0 1-1.7 2.162 13.039 13.039 0 0 1-2.324 1.57q-1.266.673-2.533 1.25-1.25.576-2.308 1.185a6.134 6.134 0 0 0-1.7 1.345 2.7 2.7 0 0 0-.64 1.81v.208h11.814v3.941zM129.952 125v5.013h-5.13V125zm0 11.068v4.998h-5.13v-4.998zM143.725 118h4.6v14.112h3.575v3.924h-3.575v5.126h-4.504l.016-5.126H133.16v-3.844zm-6.236 14.112h6.348v-8.49zm25.256 9.402a9.842 9.842 0 0 1-4.04-.833 7.902 7.902 0 0 1-3.062-2.338 6.38 6.38 0 0 1-1.33-3.556h4.456a3.865 3.865 0 0 0 1.283 2.194 3.76 3.76 0 0 0 2.5.833 5.374 5.374 0 0 0 2.918-.785 4.701 4.701 0 0 0 1.892-2.499 10.865 10.865 0 0 0 .449-4.485 4.735 4.735 0 0 1-1.25 1.49 5.953 5.953 0 0 1-1.844.977 7.754 7.754 0 0 1-2.357.336 9.522 9.522 0 0 1-4.184-.88 6.98 6.98 0 0 1-2.853-2.531 7.247 7.247 0 0 1-1.026-3.909 7.442 7.442 0 0 1 4.136-6.84 9.868 9.868 0 0 1 4.584-1.009 9.005 9.005 0 0 1 5.082 1.41 8.854 8.854 0 0 1 3.286 3.972 14.602 14.602 0 0 1 1.154 6.04 17.645 17.645 0 0 1-1.186 6.92 8.73 8.73 0 0 1-3.366 4.132 9.752 9.752 0 0 1-5.242 1.361zm.417-12.382a4.374 4.374 0 0 0 1.891-.432 4.748 4.748 0 0 0 1.523-1.122 2.096 2.096 0 0 0 .593-1.393 6.133 6.133 0 0 0-.497-2.66 3.827 3.827 0 0 0-1.41-1.713 3.725 3.725 0 0 0-2.1-.593 3.794 3.794 0 0 0-1.972.513 3.621 3.621 0 0 0-1.363 1.441 4.478 4.478 0 0 0-.497 2.147 3.71 3.71 0 0 0 1.058 2.82 3.887 3.887 0 0 0 2.774.992z" style="fill:#fff"/></g></g></g></g></g><g style="clip-path:url(#a166496d-6ee9-4d89-8259-afeee4cea520)"><g id="faa95910-0011-4b1d-9002-21ae8d42206a" data-name="Group 29"><path d="M24.545 167.19h213.407a2.505 2.505 0 0 1 2.505 2.505v82.092a2.503 2.503 0 0 1-2.503 2.503H24.547a2.505 2.505 0 0 1-2.505-2.505v-82.092a2.503 2.503 0 0 1 2.503-2.502z" style="fill:#fbfcfe" id="a2637be4-b23c-4ffa-ae99-8c4cb17647c7" data-name="Rectangle 2"/><g style="clip-path:url(#bf94d47a-5d6b-4d52-b1b9-885a67aebbe6)"><g id="b5142bd3-f7d4-42c2-8410-fd745fede197" data-name="Group 28"><path id="eecb62a1-728c-429c-943e-c91126e8230a" data-name="PayAPI" d="M38.884 193.22v-7.238h2.665a3.486 3.486 0 0 1 1.418.275 2.166 2.166 0 0 1 1.352 2.098 2.268 2.268 0 0 1-.32 1.231 2.065 2.065 0 0 1-.902.781 3.169 3.169 0 0 1-1.358.27h-1.382v2.583zm1.458-3.714h1.357a1.221 1.221 0 0 0 .902-.35 1.198 1.198 0 0 0 .35-.876 1.066 1.066 0 0 0-.37-.856 1.33 1.33 0 0 0-.902-.32h-1.337zm6.258 3.814a2.077 2.077 0 0 1-.892-.185 1.489 1.489 0 0 1-.626-.535 1.551 1.551 0 0 1-.23-.861 1.472 1.472 0 0 1 .636-1.292 3.632 3.632 0 0 1 2.009-.46l.646-.01v-.31a.698.698 0 0 0-.21-.546.888.888 0 0 0-.642-.19 1.406 1.406 0 0 0-.61.15.777.777 0 0 0-.391.505h-1.218a1.542 1.542 0 0 1 .326-.92 1.73 1.73 0 0 1 .801-.542 3.466 3.466 0 0 1 1.158-.18 3.377 3.377 0 0 1 1.277.2 1.36 1.36 0 0 1 .696.566 1.684 1.684 0 0 1 .216.871v3.64h-1.223l-.12-.892a1.624 1.624 0 0 1-.666.776 1.93 1.93 0 0 1-.937.215zm.491-.96a1.083 1.083 0 0 0 .386-.07 1.223 1.223 0 0 0 .335-.196 1.054 1.054 0 0 0 .24-.28.63.63 0 0 0 .091-.32v-.767l-.526.01a2.773 2.773 0 0 0-.681.09 1.13 1.13 0 0 0-.511.266.667.667 0 0 0-.19.5.692.692 0 0 0 .25.566.94.94 0 0 0 .606.2zm4.37 2.512a2.197 2.197 0 0 1-.751-.09l-.215-.085v-.931l.51.02a1.75 1.75 0 0 0 .542-.035.797.797 0 0 0 .31-.135.506.506 0 0 0 .155-.18 1.404 1.404 0 0 0 .066-.146l.095-.285-2.014-4.96h1.448l1.242 3.373 1.257-3.374h1.428l-2.099 5.206a3.75 3.75 0 0 1-.571 1.011 1.6 1.6 0 0 1-.651.481 2.12 2.12 0 0 1-.752.13zm3.872-1.652 2.595-7.238h1.543l2.59 7.238h-1.458l-.59-1.677h-2.606l-.606 1.677zm2.4-2.953h1.928l-.956-2.873zm5.416 2.953v-7.238h2.665a3.487 3.487 0 0 1 1.418.275 2.166 2.166 0 0 1 1.352 2.098 2.272 2.272 0 0 1-.32 1.231 2.065 2.065 0 0 1-.902.781 3.169 3.169 0 0 1-1.358.27h-1.382v2.583zm1.458-3.714h1.357a1.221 1.221 0 0 0 .902-.35 1.2 1.2 0 0 0 .35-.876 1.066 1.066 0 0 0-.37-.856 1.332 1.332 0 0 0-.902-.32h-1.337zm5.077-3.524h1.458v7.238h-1.458z" style="fill:#ba4270"/><path id="efffa909-e165-4ec8-b3a1-3916eb92f4a1" data-name="Just Now" d="M185.963 191.513a3.237 3.237 0 0 1-.13.981 1.092 1.092 0 0 1-.467.616 1.759 1.759 0 0 1-.941.21 2.83 2.83 0 0 1-.727-.09 4.579 4.579 0 0 1-.446-.135l.066-.886c.103.037.221.084.355.14a1.395 1.395 0 0 0 .506.08.75.75 0 0 0 .671-.27 1.672 1.672 0 0 0 .186-.911v-5.266h.927zm3.438 1.807a2.728 2.728 0 0 1-.767-.115 1.978 1.978 0 0 1-.631-.335 1.594 1.594 0 0 1-.436-.546 1.787 1.787 0 0 1-.155-.766v-3.514h.927v3.42a1.12 1.12 0 0 0 .31.82 1.287 1.287 0 0 0 .947.316 1.364 1.364 0 0 0 .917-.296 1.108 1.108 0 0 0 .35-.89v-3.37h.922v5.176h-.736l-.096-.99a1.348 1.348 0 0 1-.325.63 1.37 1.37 0 0 1-.546.355 1.963 1.963 0 0 1-.681.105zm5.668 0a2.992 2.992 0 0 1-1.007-.165 1.824 1.824 0 0 1-.766-.525 1.77 1.77 0 0 1-.386-.916h.842a1.144 1.144 0 0 0 .25.51 1.194 1.194 0 0 0 .461.305 1.749 1.749 0 0 0 .601.1 1.603 1.603 0 0 0 .842-.195.655.655 0 0 0 .32-.6.617.617 0 0 0-.17-.456 1.003 1.003 0 0 0-.516-.255l-1.072-.265a2.369 2.369 0 0 1-1.002-.471 1.114 1.114 0 0 1-.375-.896 1.422 1.422 0 0 1 .215-.8 1.485 1.485 0 0 1 .661-.547 2.647 2.647 0 0 1 1.097-.2 2.233 2.233 0 0 1 1.358.38 1.326 1.326 0 0 1 .54 1.107h-.816a.846.846 0 0 0-.335-.586 1.195 1.195 0 0 0-.757-.22 1.464 1.464 0 0 0-.806.2.669.669 0 0 0-.31.611.509.509 0 0 0 .22.435 1.951 1.951 0 0 0 .65.26l1.038.261a1.946 1.946 0 0 1 .59.25 1.383 1.383 0 0 1 .372.346 1.184 1.184 0 0 1 .195.4 1.456 1.456 0 0 1-.18 1.217 1.536 1.536 0 0 1-.682.53 2.764 2.764 0 0 1-1.072.185zm5.813-4.6h-1.167v3.219a1.1 1.1 0 0 0 .055.405.287.287 0 0 0 .195.16 1.626 1.626 0 0 0 .38.036h.567v.62a1.408 1.408 0 0 1-.29.06 3.789 3.789 0 0 1-.477.025 1.927 1.927 0 0 1-.831-.145.827.827 0 0 1-.416-.43 1.87 1.87 0 0 1-.115-.701v-3.249h-.842v-.676h.867l.225-1.506h.682v1.501h1.167zm8.544-2.738h.927v7.238h-.827l-3.887-5.706v5.706h-.927v-7.238h.887l3.827 5.626zm4.64 7.338a2.486 2.486 0 0 1-1.253-.305 2.092 2.092 0 0 1-.832-.906 3.256 3.256 0 0 1-.295-1.457 3.432 3.432 0 0 1 .275-1.421 2.123 2.123 0 0 1 .807-.946 2.624 2.624 0 0 1 2.54-.025 2.054 2.054 0 0 1 .821.916 3.807 3.807 0 0 1 .02 2.868 2.104 2.104 0 0 1-.791.941 2.339 2.339 0 0 1-1.293.335zm0-.73a1.293 1.293 0 0 0 .786-.236 1.434 1.434 0 0 0 .486-.675 2.978 2.978 0 0 0 .165-1.047 3.164 3.164 0 0 0-.145-.996 1.469 1.469 0 0 0-.466-.706 1.256 1.256 0 0 0-.827-.26 1.326 1.326 0 0 0-.796.235 1.423 1.423 0 0 0-.496.671 3.012 3.012 0 0 0-.165 1.056 3.086 3.086 0 0 0 .15.991 1.505 1.505 0 0 0 .47.706 1.286 1.286 0 0 0 .837.26zm10.194-4.546-1.568 5.176h-.912l-1.182-3.82-1.122 3.82h-.907l-1.598-5.176h.857l1.187 3.98h.08l1.167-3.98h.702l1.212 3.97h.08l1.137-3.97z" style="opacity:.5;fill:#36536b;isolation:isolate"/></g></g><path id="b4bd4582-057d-49a1-beef-6652376ab8bd" data-name="The payment has been" d="M38.303 202.851v-.85h5.48v.85h-2.209v6.388h-.932v-6.388zm6.485 6.388V201.8h.901v3.023a1.784 1.784 0 0 1 .597-.57 1.87 1.87 0 0 1 1.021-.255 2.16 2.16 0 0 1 .917.19 1.551 1.551 0 0 1 .651.53 1.4 1.4 0 0 1 .24.821v3.7h-.926v-3.514a.854.854 0 0 0-.32-.716 1.274 1.274 0 0 0-.827-.256 1.85 1.85 0 0 0-.656.116 1.123 1.123 0 0 0-.491.34.875.875 0 0 0-.186.576v3.454zm6.433-2.373a2.381 2.381 0 0 0 .16.89 1.348 1.348 0 0 0 1.333.867 1.531 1.531 0 0 0 .852-.23 1.031 1.031 0 0 0 .46-.666h.877a1.752 1.752 0 0 1-.42.886 2.098 2.098 0 0 1-.787.545 2.617 2.617 0 0 1-.962.18 2.528 2.528 0 0 1-1.277-.315 2.195 2.195 0 0 1-.862-.906 3.01 3.01 0 0 1-.31-1.416 3.425 3.425 0 0 1 .28-1.432 2.212 2.212 0 0 1 .812-.961 2.326 2.326 0 0 1 1.287-.345 2.077 2.077 0 0 1 1.683.695 2.792 2.792 0 0 1 .586 1.867v.34zm.005-.626h2.816a1.817 1.817 0 0 0-.34-1.121 1.216 1.216 0 0 0-1.043-.456 1.33 1.33 0 0 0-.806.236 1.392 1.392 0 0 0-.476.595 1.817 1.817 0 0 0-.15.746zm7.22 4.61v-6.787h.922l.01.9a2.407 2.407 0 0 1 .336-.44 1.823 1.823 0 0 1 1.368-.56 1.958 1.958 0 0 1 1.512.64 2.855 2.855 0 0 1 .587 1.977 3.196 3.196 0 0 1-.577 2.048 1.943 1.943 0 0 1-1.598.71 1.72 1.72 0 0 1-.786-.165 1.777 1.777 0 0 1-.526-.41 2.296 2.296 0 0 1-.316-.46v2.547zm2.385-2.232a1.301 1.301 0 0 0 1.047-.486 2.946 2.946 0 0 0 .035-2.923 1.379 1.379 0 0 0-2.174.01 2.393 2.393 0 0 0-.37 1.392 2.947 2.947 0 0 0 .165 1.01 1.647 1.647 0 0 0 .49.727 1.22 1.22 0 0 0 .807.27zm4.929.72a1.863 1.863 0 0 1-1.233-.395 1.36 1.36 0 0 1-.476-1.106 1.458 1.458 0 0 1 .601-1.282 3.58 3.58 0 0 1 1.93-.45l.926-.025v-.406a.985.985 0 0 0-.29-.75 1.217 1.217 0 0 0-.882-.28 1.501 1.501 0 0 0-.787.215.96.96 0 0 0-.436.665h-.816a1.443 1.443 0 0 1 .59-1.156 2.467 2.467 0 0 1 1.494-.405 2.29 2.29 0 0 1 1.513.425 1.525 1.525 0 0 1 .506 1.236v3.615h-.792l-.065-.972a1.813 1.813 0 0 1-.767.841 2.24 2.24 0 0 1-1.016.23zm.28-.665a1.528 1.528 0 0 0 .681-.165 1.721 1.721 0 0 0 .561-.42.867.867 0 0 0 .226-.551v-.886l-.772.015a2.91 2.91 0 0 0-1.337.265.858.858 0 0 0-.446.816.836.836 0 0 0 .3.686 1.235 1.235 0 0 0 .787.24zm4.287 2.217a2.008 2.008 0 0 1-.627-.065l-.17-.065v-.6l.526.01a1.421 1.421 0 0 0 .596-.075.731.731 0 0 0 .316-.226 1.305 1.305 0 0 0 .155-.265l.18-.49-2.023-5.051h.936l1.528 3.994 1.518-3.994h.907l-2.184 5.566a2.058 2.058 0 0 1-.712 1.001 1.73 1.73 0 0 1-.946.26zm4.83-1.651v-5.176h.893v.75a1.991 1.991 0 0 1 .586-.595 1.715 1.715 0 0 1 .982-.255 1.9 1.9 0 0 1 .856.215 1.373 1.373 0 0 1 .636.63 1.79 1.79 0 0 1 .652-.61 1.833 1.833 0 0 1 .926-.235 2.05 2.05 0 0 1 .566.085 1.469 1.469 0 0 1 .551.29 1.428 1.428 0 0 1 .411.576 2.363 2.363 0 0 1 .16.94v3.385h-.931v-3.294a1.472 1.472 0 0 0-.15-.731.805.805 0 0 0-.396-.36 1.273 1.273 0 0 0-.516-.106 1.539 1.539 0 0 0-.511.096 1.052 1.052 0 0 0-.461.32.925.925 0 0 0-.19.616v3.459h-.922v-3.565a.787.787 0 0 0-.166-.51.952.952 0 0 0-.405-.31 1.192 1.192 0 0 0-.481-.106 1.411 1.411 0 0 0-.536.11 1.103 1.103 0 0 0-.451.33.916.916 0 0 0-.18.592v3.459zm9.331-2.373a2.371 2.371 0 0 0 .16.89 1.348 1.348 0 0 0 1.333.867 1.532 1.532 0 0 0 .852-.23 1.033 1.033 0 0 0 .46-.666h.877a1.76 1.76 0 0 1-.42.886 2.106 2.106 0 0 1-.787.545 2.62 2.62 0 0 1-.962.18 2.526 2.526 0 0 1-1.277-.315 2.189 2.189 0 0 1-.862-.906 3.004 3.004 0 0 1-.31-1.416 3.417 3.417 0 0 1 .28-1.432 2.206 2.206 0 0 1 .811-.961 2.325 2.325 0 0 1 1.288-.345 2.077 2.077 0 0 1 1.683.695 2.792 2.792 0 0 1 .586 1.867v.34zm.005-.626h2.815a1.82 1.82 0 0 0-.34-1.121 1.217 1.217 0 0 0-1.042-.456 1.327 1.327 0 0 0-.807.236 1.384 1.384 0 0 0-.476.595 1.8 1.8 0 0 0-.15.746zm4.98 2.999v-5.176h.896v.75a1.708 1.708 0 0 1 .596-.575 1.929 1.929 0 0 1 1.027-.25 2.072 2.072 0 0 1 .902.195 1.492 1.492 0 0 1 .66.61 2.01 2.01 0 0 1 .251 1.062v3.384h-.926v-3.294a1.069 1.069 0 0 0-1.143-1.192 1.852 1.852 0 0 0-.656.116 1.125 1.125 0 0 0-.496.34.854.854 0 0 0-.19.57v3.46zm8.169-4.5h-1.168v3.218q0 .415.13.51a.976.976 0 0 0 .502.09h.566v.621a1.505 1.505 0 0 1-.29.06 3.78 3.78 0 0 1-.477.026 1.41 1.41 0 0 1-1.087-.326 1.438 1.438 0 0 1-.275-.95v-3.25H94.7v-.675h.867l.225-1.507h.681v1.502h1.168zm3.64 4.5V201.8h.901v3.023a1.784 1.784 0 0 1 .596-.57 1.873 1.873 0 0 1 1.022-.255 2.156 2.156 0 0 1 .917.19 1.551 1.551 0 0 1 .651.53 1.401 1.401 0 0 1 .24.821v3.7h-.926v-3.514a.854.854 0 0 0-.32-.716 1.274 1.274 0 0 0-.827-.256 1.852 1.852 0 0 0-.656.116 1.126 1.126 0 0 0-.491.34.878.878 0 0 0-.186.576v3.454zm7.186.1a1.863 1.863 0 0 1-1.233-.396 1.358 1.358 0 0 1-.476-1.106 1.458 1.458 0 0 1 .602-1.282 3.58 3.58 0 0 1 1.928-.45l.927-.025v-.406a.987.987 0 0 0-.29-.75 1.217 1.217 0 0 0-.882-.28 1.5 1.5 0 0 0-.787.215.956.956 0 0 0-.436.665h-.816a1.441 1.441 0 0 1 .591-1.156 2.466 2.466 0 0 1 1.493-.405 2.292 2.292 0 0 1 1.513.425 1.525 1.525 0 0 1 .506 1.236v3.615h-.792l-.065-.972a1.813 1.813 0 0 1-.766.841 2.242 2.242 0 0 1-1.017.23zm.28-.666a1.529 1.529 0 0 0 .682-.165 1.726 1.726 0 0 0 .56-.42.866.866 0 0 0 .226-.551v-.886l-.771.015a2.91 2.91 0 0 0-1.338.265.857.857 0 0 0-.446.816.836.836 0 0 0 .3.686 1.234 1.234 0 0 0 .787.24zm5.693.666a2.88 2.88 0 0 1-1.007-.17 1.884 1.884 0 0 1-.772-.521 1.718 1.718 0 0 1-.38-.916h.841a1.046 1.046 0 0 0 .456.686 1.556 1.556 0 0 0 .857.23 1.604 1.604 0 0 0 .841-.195.654.654 0 0 0 .32-.601q0-.546-.686-.71l-1.072-.266a2.373 2.373 0 0 1-1.006-.47 1.121 1.121 0 0 1-.371-.897 1.388 1.388 0 0 1 .49-1.11 2.191 2.191 0 0 1 1.484-.436 2.233 2.233 0 0 1 1.357.38 1.335 1.335 0 0 1 .541 1.106h-.816a.87.87 0 0 0-.336-.585 1.193 1.193 0 0 0-.756-.22 1.464 1.464 0 0 0-.807.2.67.67 0 0 0-.31.61.51.51 0 0 0 .22.436 1.955 1.955 0 0 0 .651.26l1.037.26a1.83 1.83 0 0 1 .741.356 1.279 1.279 0 0 1 .371.505 1.484 1.484 0 0 1 .105.53 1.351 1.351 0 0 1-.526 1.127 2.333 2.333 0 0 1-1.467.41zm8.118 0a1.954 1.954 0 0 1-.967-.206 1.533 1.533 0 0 1-.54-.48 2.077 2.077 0 0 1-.246-.476l-.1 1.062h-.707V201.8h.932v3.084a1.622 1.622 0 0 1 .296-.386 1.857 1.857 0 0 1 .556-.375 2.03 2.03 0 0 1 .846-.16 1.916 1.916 0 0 1 1.543.675 3 3 0 0 1 .576 1.993 3.233 3.233 0 0 1-.55 1.967 1.904 1.904 0 0 1-1.639.74zm-.165-.711a1.258 1.258 0 0 0 1.022-.486 2.451 2.451 0 0 0 .4-1.556 2.304 2.304 0 0 0-.37-1.402 1.244 1.244 0 0 0-1.072-.5 1.22 1.22 0 0 0-1.102.5 2.565 2.565 0 0 0-.341 1.402 2.804 2.804 0 0 0 .336 1.566 1.291 1.291 0 0 0 1.127.476zm4.225-1.762a2.381 2.381 0 0 0 .16.89 1.348 1.348 0 0 0 1.333.867 1.531 1.531 0 0 0 .851-.23 1.032 1.032 0 0 0 .461-.666h.877a1.752 1.752 0 0 1-.421.886 2.098 2.098 0 0 1-.787.545 2.617 2.617 0 0 1-.961.18 2.528 2.528 0 0 1-1.278-.315 2.195 2.195 0 0 1-.862-.906 3.01 3.01 0 0 1-.31-1.416 3.424 3.424 0 0 1 .28-1.432 2.212 2.212 0 0 1 .812-.961 2.326 2.326 0 0 1 1.287-.345 2.077 2.077 0 0 1 1.684.695 2.792 2.792 0 0 1 .586 1.867v.34zm.005-.626h2.815a1.817 1.817 0 0 0-.34-1.121 1.216 1.216 0 0 0-1.043-.456 1.33 1.33 0 0 0-.806.236 1.392 1.392 0 0 0-.476.595 1.817 1.817 0 0 0-.15.746zm5.64.626a2.371 2.371 0 0 0 .16.89 1.348 1.348 0 0 0 1.333.867 1.532 1.532 0 0 0 .852-.23 1.033 1.033 0 0 0 .46-.666h.877a1.76 1.76 0 0 1-.42.886 2.106 2.106 0 0 1-.787.545 2.62 2.62 0 0 1-.962.18 2.526 2.526 0 0 1-1.277-.315 2.189 2.189 0 0 1-.862-.906 3.004 3.004 0 0 1-.31-1.416 3.417 3.417 0 0 1 .28-1.432 2.206 2.206 0 0 1 .812-.961 2.325 2.325 0 0 1 1.287-.345 2.077 2.077 0 0 1 1.683.695 2.792 2.792 0 0 1 .586 1.867v.34zm.005-.626h2.816a1.82 1.82 0 0 0-.34-1.121 1.217 1.217 0 0 0-1.043-.456 1.327 1.327 0 0 0-.806.236 1.384 1.384 0 0 0-.476.595 1.8 1.8 0 0 0-.15.746zm4.98 2.999v-5.176h.896v.75a1.708 1.708 0 0 1 .596-.575 1.929 1.929 0 0 1 1.027-.25 2.072 2.072 0 0 1 .902.195 1.492 1.492 0 0 1 .661.61 2.01 2.01 0 0 1 .25 1.062v3.384h-.926v-3.294a1.069 1.069 0 0 0-1.142-1.192 1.852 1.852 0 0 0-.656.116 1.125 1.125 0 0 0-.496.34.854.854 0 0 0-.19.57v3.46zm8.091 1.611v-6.787h.922l.01.9a2.407 2.407 0 0 1 .336-.44 1.823 1.823 0 0 1 1.367-.56 1.958 1.958 0 0 1 1.513.64 2.855 2.855 0 0 1 .586 1.977 3.196 3.196 0 0 1-.576 2.048 1.943 1.943 0 0 1-1.598.71 1.72 1.72 0 0 1-.786-.165 1.777 1.777 0 0 1-.526-.41 2.295 2.295 0 0 1-.316-.46v2.547zm2.385-2.232a1.301 1.301 0 0 0 1.047-.486 2.946 2.946 0 0 0 .035-2.923 1.379 1.379 0 0 0-2.174.01 2.393 2.393 0 0 0-.37 1.392 2.947 2.947 0 0 0 .164 1.01 1.647 1.647 0 0 0 .491.727 1.22 1.22 0 0 0 .807.27zm3.564.62v-5.175h.882v.996a1.552 1.552 0 0 1 .616-.826 1.678 1.678 0 0 1 .917-.27 1.56 1.56 0 0 1 .22.015.524.524 0 0 1 .175.05v.896a.573.573 0 0 0-.195-.045 1.563 1.563 0 0 0-.195-.015 1.734 1.734 0 0 0-1.057.235 1 1 0 0 0-.441.92v3.22zm5.826.1a2.273 2.273 0 0 1-1.729-.685 2.771 2.771 0 0 1-.65-1.982 3.433 3.433 0 0 1 .275-1.422 2.122 2.122 0 0 1 .806-.946 2.357 2.357 0 0 1 1.298-.34 2.21 2.21 0 0 1 1.713.7 2.869 2.869 0 0 1 .641 2.008 3.36 3.36 0 0 1-.27 1.391 2.104 2.104 0 0 1-.792.941 2.339 2.339 0 0 1-1.292.336zm0-.73a1.23 1.23 0 0 0 1.067-.52 2.452 2.452 0 0 0 .37-1.437 3.076 3.076 0 0 0-.15-.997 1.486 1.486 0 0 0-.46-.705 1.408 1.408 0 0 0-1.91.26 2.412 2.412 0 0 0-.375 1.442 3.086 3.086 0 0 0 .15.99 1.505 1.505 0 0 0 .471.707 1.285 1.285 0 0 0 .837.26zm5.63-4.645a2.127 2.127 0 0 1 1.409.475 1.893 1.893 0 0 1 .676 1.262h-.822a1.186 1.186 0 0 0-.395-.696 1.235 1.235 0 0 0-.862-.296 1.373 1.373 0 0 0-1.082.48 2.204 2.204 0 0 0-.416 1.473 2.446 2.446 0 0 0 .38 1.436 1.306 1.306 0 0 0 1.133.536 1.215 1.215 0 0 0 .857-.3 1.196 1.196 0 0 0 .39-.691h.807a1.823 1.823 0 0 1-.676 1.241 2.17 2.17 0 0 1-1.398.456 2.453 2.453 0 0 1-1.237-.306 2.116 2.116 0 0 1-.842-.9 3.174 3.174 0 0 1-.306-1.462 3.412 3.412 0 0 1 .276-1.417 2.178 2.178 0 0 1 .811-.951 2.371 2.371 0 0 1 1.298-.34zm3.999 2.903a2.381 2.381 0 0 0 .16.89 1.348 1.348 0 0 0 1.333.867 1.531 1.531 0 0 0 .851-.23 1.031 1.031 0 0 0 .461-.666h.877a1.76 1.76 0 0 1-.42.886 2.102 2.102 0 0 1-.787.545 2.617 2.617 0 0 1-.962.18 2.526 2.526 0 0 1-1.278-.315 2.192 2.192 0 0 1-.861-.906 3.01 3.01 0 0 1-.31-1.416 3.424 3.424 0 0 1 .28-1.432 2.206 2.206 0 0 1 .811-.961 2.325 2.325 0 0 1 1.288-.345 2.077 2.077 0 0 1 1.683.695 2.792 2.792 0 0 1 .586 1.867v.34zm.005-.626h2.815a1.82 1.82 0 0 0-.34-1.121 1.216 1.216 0 0 0-1.042-.456 1.328 1.328 0 0 0-.807.236 1.388 1.388 0 0 0-.476.595 1.8 1.8 0 0 0-.15.746zm6.778 3.099a2.885 2.885 0 0 1-1.007-.17 1.888 1.888 0 0 1-.771-.521 1.721 1.721 0 0 1-.38-.916h.84a1.048 1.048 0 0 0 .457.686 1.556 1.556 0 0 0 .856.23 1.601 1.601 0 0 0 .842-.195.654.654 0 0 0 .32-.601q0-.546-.686-.71l-1.072-.266a2.373 2.373 0 0 1-1.007-.47 1.121 1.121 0 0 1-.37-.897 1.39 1.39 0 0 1 .49-1.11 2.191 2.191 0 0 1 1.483-.436 2.232 2.232 0 0 1 1.358.38 1.332 1.332 0 0 1 .541 1.106h-.817a.868.868 0 0 0-.335-.585 1.193 1.193 0 0 0-.757-.22 1.465 1.465 0 0 0-.806.2.67.67 0 0 0-.31.61.51.51 0 0 0 .22.436 1.96 1.96 0 0 0 .65.26l1.038.26a1.826 1.826 0 0 1 .741.356 1.274 1.274 0 0 1 .371.505 1.484 1.484 0 0 1 .105.531 1.351 1.351 0 0 1-.526 1.126 2.332 2.332 0 0 1-1.468.41zm5.04 0a2.88 2.88 0 0 1-1.007-.17 1.884 1.884 0 0 1-.772-.521 1.718 1.718 0 0 1-.38-.916h.84a1.046 1.046 0 0 0 .457.686 1.556 1.556 0 0 0 .856.23 1.604 1.604 0 0 0 .842-.195.654.654 0 0 0 .32-.601q0-.546-.686-.71l-1.072-.266a2.373 2.373 0 0 1-1.007-.47 1.121 1.121 0 0 1-.37-.897 1.388 1.388 0 0 1 .49-1.11 2.191 2.191 0 0 1 1.483-.436 2.233 2.233 0 0 1 1.358.38 1.335 1.335 0 0 1 .541 1.106h-.816a.87.87 0 0 0-.336-.585 1.193 1.193 0 0 0-.757-.22 1.464 1.464 0 0 0-.806.2.67.67 0 0 0-.31.61.51.51 0 0 0 .22.436 1.955 1.955 0 0 0 .651.26l1.037.26a1.83 1.83 0 0 1 .741.356 1.279 1.279 0 0 1 .371.505 1.484 1.484 0 0 1 .105.531 1.35 1.35 0 0 1-.526 1.126 2.333 2.333 0 0 1-1.468.41zm3.949-2.473a2.381 2.381 0 0 0 .16.89 1.348 1.348 0 0 0 1.333.867 1.531 1.531 0 0 0 .851-.23 1.032 1.032 0 0 0 .461-.666h.877a1.752 1.752 0 0 1-.42.886 2.098 2.098 0 0 1-.787.545 2.617 2.617 0 0 1-.962.18 2.528 2.528 0 0 1-1.278-.315 2.195 2.195 0 0 1-.861-.906 3.01 3.01 0 0 1-.31-1.416 3.424 3.424 0 0 1 .28-1.432 2.212 2.212 0 0 1 .811-.961 2.326 2.326 0 0 1 1.288-.345 2.077 2.077 0 0 1 1.683.695 2.792 2.792 0 0 1 .586 1.867v.34zm.005-.626h2.815a1.817 1.817 0 0 0-.34-1.121 1.216 1.216 0 0 0-1.042-.456 1.33 1.33 0 0 0-.807.236 1.392 1.392 0 0 0-.476.595 1.817 1.817 0 0 0-.15.746zm6.848 3.099a2 2 0 0 1-1.603-.691 3.041 3.041 0 0 1-.586-2.017 3.21 3.21 0 0 1 .53-1.938 1.844 1.844 0 0 1 1.589-.73 1.982 1.982 0 0 1 .836.16 1.846 1.846 0 0 1 .562.375 1.597 1.597 0 0 1 .3.386V201.8h.932v7.439h-.707l-.1-1.062a2.097 2.097 0 0 1-.245.476 1.533 1.533 0 0 1-.541.48 1.956 1.956 0 0 1-.967.206zm.165-.711a1.278 1.278 0 0 0 1.122-.476 2.774 2.774 0 0 0 .341-1.566 2.57 2.57 0 0 0-.34-1.402 1.221 1.221 0 0 0-1.103-.5 1.331 1.331 0 0 0-1.042.455 2.144 2.144 0 0 0-.4 1.447 2.68 2.68 0 0 0 .36 1.506 1.206 1.206 0 0 0 1.062.536zm3.71.61v-1.18h1.101v1.18zm4.18-6.387v-.85h5.48v.85h-2.209v6.388h-.932v-6.388zm6.485 6.388V201.8h.901v3.024a1.779 1.779 0 0 1 .596-.571 1.87 1.87 0 0 1 1.022-.255 2.16 2.16 0 0 1 .917.19 1.554 1.554 0 0 1 .651.53 1.401 1.401 0 0 1 .24.821v3.7h-.926v-3.514a.855.855 0 0 0-.32-.716 1.274 1.274 0 0 0-.827-.256 1.848 1.848 0 0 0-.656.116 1.123 1.123 0 0 0-.491.34.875.875 0 0 0-.186.576v3.454zm6.433-2.373a2.381 2.381 0 0 0 .16.89 1.348 1.348 0 0 0 1.333.867 1.531 1.531 0 0 0 .852-.23 1.032 1.032 0 0 0 .46-.666h.877a1.76 1.76 0 0 1-.42.886 2.102 2.102 0 0 1-.787.545 2.617 2.617 0 0 1-.962.18 2.526 2.526 0 0 1-1.277-.315 2.192 2.192 0 0 1-.862-.906 3.01 3.01 0 0 1-.31-1.416 3.425 3.425 0 0 1 .28-1.432 2.206 2.206 0 0 1 .812-.961 2.325 2.325 0 0 1 1.287-.345 2.077 2.077 0 0 1 1.683.695 2.792 2.792 0 0 1 .586 1.867v.34zm.005-.626h2.816a1.82 1.82 0 0 0-.341-1.121 1.216 1.216 0 0 0-1.042-.456 1.328 1.328 0 0 0-.806.236 1.388 1.388 0 0 0-.476.595 1.8 1.8 0 0 0-.15.746zM41.54 218.754h-1.167v3.22q0 .414.13.51a.975.975 0 0 0 .501.09h.566v.62a1.514 1.514 0 0 1-.29.06 3.78 3.78 0 0 1-.476.026 1.409 1.409 0 0 1-1.088-.326 1.435 1.435 0 0 1-.275-.95v-3.25h-.842v-.675h.867l.225-1.507h.682v1.502h1.167zm3.253 4.6a2.273 2.273 0 0 1-1.729-.685 2.771 2.771 0 0 1-.65-1.982 3.433 3.433 0 0 1 .275-1.422 2.122 2.122 0 0 1 .806-.946 2.357 2.357 0 0 1 1.298-.34 2.21 2.21 0 0 1 1.713.7 2.869 2.869 0 0 1 .641 2.008 3.36 3.36 0 0 1-.27 1.391 2.104 2.104 0 0 1-.792.941 2.339 2.339 0 0 1-1.292.336zm0-.73a1.23 1.23 0 0 0 1.067-.52 2.452 2.452 0 0 0 .37-1.437 3.076 3.076 0 0 0-.15-.997 1.486 1.486 0 0 0-.46-.705 1.408 1.408 0 0 0-1.91.26 2.412 2.412 0 0 0-.375 1.442 3.086 3.086 0 0 0 .15.99 1.505 1.505 0 0 0 .471.706 1.286 1.286 0 0 0 .837.26zm6.032-3.87h-1.167v3.22q0 .414.13.51a.975.975 0 0 0 .501.09h.566v.62a1.514 1.514 0 0 1-.29.06 3.78 3.78 0 0 1-.476.026 1.409 1.409 0 0 1-1.087-.326 1.435 1.435 0 0 1-.276-.95v-3.25h-.841v-.675h.866l.226-1.507h.68v1.502h1.168zm2.725 4.6a1.863 1.863 0 0 1-1.233-.395 1.36 1.36 0 0 1-.475-1.106 1.458 1.458 0 0 1 .6-1.282 3.58 3.58 0 0 1 1.93-.45l.926-.025v-.406a.985.985 0 0 0-.29-.75 1.217 1.217 0 0 0-.882-.28 1.501 1.501 0 0 0-.787.215.96.96 0 0 0-.435.665h-.817a1.443 1.443 0 0 1 .591-1.156 2.467 2.467 0 0 1 1.493-.405 2.29 2.29 0 0 1 1.513.425 1.525 1.525 0 0 1 .506 1.236v3.615h-.792l-.065-.972a1.813 1.813 0 0 1-.766.841 2.24 2.24 0 0 1-1.017.23zm.28-.665a1.528 1.528 0 0 0 .682-.165 1.721 1.721 0 0 0 .56-.42.867.867 0 0 0 .226-.551v-.886l-.771.015a2.91 2.91 0 0 0-1.338.265.858.858 0 0 0-.446.816.836.836 0 0 0 .3.686 1.235 1.235 0 0 0 .787.24zm5.25.63a1.478 1.478 0 0 1-.842-.195.964.964 0 0 1-.375-.515 2.521 2.521 0 0 1-.09-.686v-6.107h.911v6.017a.962.962 0 0 0 .15.59.585.585 0 0 0 .431.21l.28.006v.6a1.528 1.528 0 0 1-.465.08zm5.418.036a1.864 1.864 0 0 1-1.232-.396 1.36 1.36 0 0 1-.476-1.106 1.458 1.458 0 0 1 .601-1.282 3.58 3.58 0 0 1 1.929-.45l.926-.025v-.406a.985.985 0 0 0-.29-.75 1.216 1.216 0 0 0-.882-.28 1.503 1.503 0 0 0-.786.215.96.96 0 0 0-.436.665h-.817a1.444 1.444 0 0 1 .591-1.156 2.468 2.468 0 0 1 1.493-.406 2.29 2.29 0 0 1 1.513.426 1.524 1.524 0 0 1 .506 1.236v3.614h-.791l-.065-.97a1.808 1.808 0 0 1-.767.84 2.24 2.24 0 0 1-1.017.23zm.28-.666a1.527 1.527 0 0 0 .682-.165 1.716 1.716 0 0 0 .561-.42.861.861 0 0 0 .225-.551v-.886l-.771.015a2.913 2.913 0 0 0-1.338.265.858.858 0 0 0-.445.816.836.836 0 0 0 .3.686 1.235 1.235 0 0 0 .787.24zm3.943.565v-5.175h.891v.75a1.991 1.991 0 0 1 .587-.595 1.716 1.716 0 0 1 .981-.255 1.9 1.9 0 0 1 .857.215 1.37 1.37 0 0 1 .636.63 1.794 1.794 0 0 1 .651-.61 1.834 1.834 0 0 1 .927-.235 2.051 2.051 0 0 1 .566.085 1.465 1.465 0 0 1 .551.29 1.424 1.424 0 0 1 .411.576 2.355 2.355 0 0 1 .16.94v3.385h-.931v-3.294a1.472 1.472 0 0 0-.15-.731.804.804 0 0 0-.396-.36 1.273 1.273 0 0 0-.516-.106 1.539 1.539 0 0 0-.511.095 1.055 1.055 0 0 0-.461.32.925.925 0 0 0-.19.617v3.459h-.922v-3.565a.787.787 0 0 0-.166-.51.951.951 0 0 0-.406-.31 1.192 1.192 0 0 0-.48-.106 1.411 1.411 0 0 0-.536.11 1.103 1.103 0 0 0-.451.33.916.916 0 0 0-.18.592v3.459zm10.728.1a2.273 2.273 0 0 1-1.729-.685 2.77 2.77 0 0 1-.65-1.982 3.425 3.425 0 0 1 .275-1.422 2.12 2.12 0 0 1 .806-.946 2.357 2.357 0 0 1 1.298-.34 2.21 2.21 0 0 1 1.713.7 2.87 2.87 0 0 1 .641 2.008 3.36 3.36 0 0 1-.27 1.391 2.104 2.104 0 0 1-.792.941 2.339 2.339 0 0 1-1.292.336zm0-.73a1.23 1.23 0 0 0 1.067-.52 2.456 2.456 0 0 0 .37-1.437 3.076 3.076 0 0 0-.15-.997 1.486 1.486 0 0 0-.46-.705 1.408 1.408 0 0 0-1.91.26 2.412 2.412 0 0 0-.375 1.442 3.086 3.086 0 0 0 .15.99 1.501 1.501 0 0 0 .471.706 1.285 1.285 0 0 0 .837.26zm5.382.73a2.533 2.533 0 0 1-.992-.2 1.728 1.728 0 0 1-.726-.59 1.665 1.665 0 0 1-.27-.971v-3.514h.926v3.418a1.119 1.119 0 0 0 .31.821 1.287 1.287 0 0 0 .948.316 1.364 1.364 0 0 0 .916-.296 1.11 1.11 0 0 0 .351-.89v-3.37h.922v5.177h-.737l-.095-.992a1.264 1.264 0 0 1-.57.841 1.855 1.855 0 0 1-.983.25zm3.899-.1v-5.175h.896v.75a1.704 1.704 0 0 1 .597-.575 1.928 1.928 0 0 1 1.027-.25 2.075 2.075 0 0 1 .901.195 1.498 1.498 0 0 1 .661.61 2.015 2.015 0 0 1 .251 1.062v3.384h-.927v-3.294a1.069 1.069 0 0 0-1.142-1.192 1.85 1.85 0 0 0-.656.116 1.12 1.12 0 0 0-.496.34.854.854 0 0 0-.19.57v3.46zm8.17-4.5H95.73v3.219q0 .415.13.51a.975.975 0 0 0 .501.09h.566v.621a1.523 1.523 0 0 1-.29.06 3.786 3.786 0 0 1-.476.025 1.408 1.408 0 0 1-1.087-.325 1.435 1.435 0 0 1-.276-.951v-3.249h-.841v-.675h.866l.226-1.507h.681v1.502h1.167zm5.38 4.6a2 2 0 0 1-1.603-.69 3.041 3.041 0 0 1-.586-2.018 3.21 3.21 0 0 1 .531-1.937 1.844 1.844 0 0 1 1.588-.73 1.982 1.982 0 0 1 .837.16 1.84 1.84 0 0 1 .561.375 1.572 1.572 0 0 1 .3.385v-3.083h.932v7.438h-.706l-.1-1.06a2.097 2.097 0 0 1-.246.475 1.533 1.533 0 0 1-.54.48 1.954 1.954 0 0 1-.968.206zm.166-.71a1.278 1.278 0 0 0 1.122-.476 2.774 2.774 0 0 0 .34-1.567 2.565 2.565 0 0 0-.34-1.401 1.22 1.22 0 0 0-1.102-.5 1.331 1.331 0 0 0-1.042.455 2.147 2.147 0 0 0-.4 1.446 2.68 2.68 0 0 0 .36 1.507 1.206 1.206 0 0 0 1.062.536zm4.586-1.762a2.371 2.371 0 0 0 .16.89 1.348 1.348 0 0 0 1.333.867 1.532 1.532 0 0 0 .851-.23 1.033 1.033 0 0 0 .461-.666h.877a1.76 1.76 0 0 1-.42.886 2.107 2.107 0 0 1-.787.545 2.62 2.62 0 0 1-.962.18 2.526 2.526 0 0 1-1.278-.315 2.189 2.189 0 0 1-.861-.906 3.004 3.004 0 0 1-.31-1.416 3.417 3.417 0 0 1 .28-1.432 2.206 2.206 0 0 1 .811-.961 2.325 2.325 0 0 1 1.288-.346 2.077 2.077 0 0 1 1.683.696 2.792 2.792 0 0 1 .586 1.867v.34zm.005-.626h2.815a1.82 1.82 0 0 0-.34-1.121 1.217 1.217 0 0 0-1.042-.456 1.327 1.327 0 0 0-.807.236 1.384 1.384 0 0 0-.476.595 1.801 1.801 0 0 0-.15.746zm6.848 3.099a2.001 2.001 0 0 1-1.604-.691 3.041 3.041 0 0 1-.586-2.017 3.213 3.213 0 0 1 .531-1.938 1.845 1.845 0 0 1 1.588-.73 1.98 1.98 0 0 1 .837.16 1.84 1.84 0 0 1 .561.375 1.572 1.572 0 0 1 .3.386v-3.084h.932v7.438h-.706l-.1-1.06a2.077 2.077 0 0 1-.246.475 1.533 1.533 0 0 1-.54.48 1.954 1.954 0 0 1-.967.206zm.165-.711a1.277 1.277 0 0 0 1.122-.476 2.77 2.77 0 0 0 .34-1.567 2.565 2.565 0 0 0-.34-1.401 1.22 1.22 0 0 0-1.102-.5 1.332 1.332 0 0 0-1.042.455 2.147 2.147 0 0 0-.4 1.446 2.68 2.68 0 0 0 .36 1.507 1.207 1.207 0 0 0 1.062.536zm5.828.71a2.533 2.533 0 0 1-.991-.2 1.728 1.728 0 0 1-.727-.59 1.665 1.665 0 0 1-.27-.971v-3.514h.926v3.419a1.119 1.119 0 0 0 .311.82 1.287 1.287 0 0 0 .947.316 1.364 1.364 0 0 0 .917-.296 1.11 1.11 0 0 0 .35-.89v-3.37h.922v5.177h-.736l-.096-.992a1.264 1.264 0 0 1-.57.841 1.855 1.855 0 0 1-.983.25zm5.894-5.376a2.127 2.127 0 0 1 1.408.476 1.893 1.893 0 0 1 .676 1.261h-.821a1.184 1.184 0 0 0-.396-.695 1.234 1.234 0 0 0-.862-.296 1.373 1.373 0 0 0-1.082.48 2.207 2.207 0 0 0-.416 1.473 2.447 2.447 0 0 0 .381 1.436 1.307 1.307 0 0 0 1.132.536 1.213 1.213 0 0 0 .857-.3 1.196 1.196 0 0 0 .39-.691h.807a1.819 1.819 0 0 1-.676 1.241 2.17 2.17 0 0 1-1.398.456 2.454 2.454 0 0 1-1.237-.306 2.122 2.122 0 0 1-.842-.9 3.174 3.174 0 0 1-.305-1.462 3.412 3.412 0 0 1 .275-1.417 2.178 2.178 0 0 1 .812-.951 2.372 2.372 0 0 1 1.297-.34zm5.803.776h-1.168v3.219q0 .415.13.51a.975.975 0 0 0 .502.09h.566v.621a1.523 1.523 0 0 1-.29.06 3.786 3.786 0 0 1-.477.025 1.408 1.408 0 0 1-1.087-.325 1.435 1.435 0 0 1-.275-.951v-3.249h-.842v-.675h.867l.225-1.507h.681v1.502h1.168zm1.855 2.128a2.381 2.381 0 0 0 .16.89 1.348 1.348 0 0 0 1.333.867 1.531 1.531 0 0 0 .851-.23 1.031 1.031 0 0 0 .461-.666h.877a1.76 1.76 0 0 1-.421.886 2.102 2.102 0 0 1-.787.545 2.617 2.617 0 0 1-.961.18 2.526 2.526 0 0 1-1.278-.315 2.192 2.192 0 0 1-.862-.906 3.01 3.01 0 0 1-.31-1.416 3.424 3.424 0 0 1 .28-1.432 2.206 2.206 0 0 1 .812-.961 2.325 2.325 0 0 1 1.287-.346 2.077 2.077 0 0 1 1.684.696 2.792 2.792 0 0 1 .586 1.867v.34zm.005-.626h2.815a1.82 1.82 0 0 0-.34-1.121 1.216 1.216 0 0 0-1.043-.456 1.328 1.328 0 0 0-.806.236 1.388 1.388 0 0 0-.476.595 1.801 1.801 0 0 0-.15.746zm6.848 3.099a2 2 0 0 1-1.603-.691 3.041 3.041 0 0 1-.586-2.017 3.21 3.21 0 0 1 .53-1.938 1.844 1.844 0 0 1 1.589-.73 1.982 1.982 0 0 1 .836.16 1.846 1.846 0 0 1 .561.375 1.597 1.597 0 0 1 .3.386v-3.084h.933v7.438h-.707l-.1-1.06a2.098 2.098 0 0 1-.245.475 1.533 1.533 0 0 1-.541.48 1.956 1.956 0 0 1-.967.206zm.165-.711a1.278 1.278 0 0 0 1.122-.476 2.774 2.774 0 0 0 .34-1.567 2.57 2.57 0 0 0-.34-1.401 1.221 1.221 0 0 0-1.102-.5 1.331 1.331 0 0 0-1.042.455 2.144 2.144 0 0 0-.4 1.446 2.68 2.68 0 0 0 .36 1.507 1.206 1.206 0 0 0 1.062.536zm9.159-4.565v.675h-1.257v4.5h-.932v-4.5h-1.092v-.675h1.092v-.801a1.113 1.113 0 0 1 1.257-1.262h.977l.005.656h-.776a.484.484 0 0 0-.431.17.93.93 0 0 0-.116.516v.72zm1.145 5.175v-5.175h.881v.996a1.552 1.552 0 0 1 .616-.826 1.68 1.68 0 0 1 .917-.27 1.554 1.554 0 0 1 .22.014.517.517 0 0 1 .176.05v.897a.573.573 0 0 0-.195-.046 1.55 1.55 0 0 0-.196-.015 1.735 1.735 0 0 0-1.057.236 1.002 1.002 0 0 0-.44.92v3.22zm5.826.1a2.273 2.273 0 0 1-1.729-.685 2.77 2.77 0 0 1-.65-1.982 3.424 3.424 0 0 1 .275-1.422 2.12 2.12 0 0 1 .806-.946 2.357 2.357 0 0 1 1.298-.34 2.21 2.21 0 0 1 1.713.7 2.87 2.87 0 0 1 .641 2.008 3.36 3.36 0 0 1-.27 1.391 2.104 2.104 0 0 1-.792.941 2.339 2.339 0 0 1-1.292.336zm0-.73a1.23 1.23 0 0 0 1.067-.52 2.456 2.456 0 0 0 .37-1.437 3.076 3.076 0 0 0-.15-.997 1.486 1.486 0 0 0-.46-.705 1.408 1.408 0 0 0-1.91.26 2.412 2.412 0 0 0-.375 1.442 3.086 3.086 0 0 0 .15.99 1.502 1.502 0 0 0 .471.706 1.285 1.285 0 0 0 .837.26zm3.566.63v-5.175h.892v.75a1.992 1.992 0 0 1 .586-.595 1.716 1.716 0 0 1 .982-.255 1.9 1.9 0 0 1 .857.215 1.37 1.37 0 0 1 .636.63 1.794 1.794 0 0 1 .651-.61 1.834 1.834 0 0 1 .927-.235 2.05 2.05 0 0 1 .566.085 1.465 1.465 0 0 1 .551.29 1.424 1.424 0 0 1 .41.576 2.355 2.355 0 0 1 .161.94v3.385h-.932v-3.294a1.473 1.473 0 0 0-.15-.731.805.805 0 0 0-.396-.36 1.273 1.273 0 0 0-.516-.106 1.539 1.539 0 0 0-.51.095 1.055 1.055 0 0 0-.462.32.925.925 0 0 0-.19.617v3.459h-.922v-3.565a.787.787 0 0 0-.165-.51.952.952 0 0 0-.406-.31 1.192 1.192 0 0 0-.48-.106 1.411 1.411 0 0 0-.537.11 1.103 1.103 0 0 0-.45.33.916.916 0 0 0-.18.592v3.459zm11.421 1.652a2.006 2.006 0 0 1-.626-.065l-.17-.065v-.6l.526.01a1.421 1.421 0 0 0 .596-.076.737.737 0 0 0 .315-.225 1.329 1.329 0 0 0 .156-.265l.18-.49-2.024-5.051h.937l1.528 3.994 1.518-3.994h.906l-2.184 5.566a2.062 2.062 0 0 1-.711 1.001 1.73 1.73 0 0 1-.947.26zm6.704-1.551a2.272 2.272 0 0 1-1.728-.686 2.77 2.77 0 0 1-.651-1.982 3.425 3.425 0 0 1 .275-1.422 2.116 2.116 0 0 1 .807-.946 2.356 2.356 0 0 1 1.297-.34 2.211 2.211 0 0 1 1.714.7 2.87 2.87 0 0 1 .64 2.008 3.36 3.36 0 0 1-.27 1.391 2.107 2.107 0 0 1-.791.941 2.341 2.341 0 0 1-1.293.336zm0-.731a1.23 1.23 0 0 0 1.067-.52 2.456 2.456 0 0 0 .371-1.437 3.076 3.076 0 0 0-.15-.997 1.49 1.49 0 0 0-.461-.705 1.408 1.408 0 0 0-1.909.26 2.412 2.412 0 0 0-.375 1.442 3.086 3.086 0 0 0 .15.99 1.502 1.502 0 0 0 .47.706 1.284 1.284 0 0 0 .837.26zm5.383.73a2.533 2.533 0 0 1-.992-.2 1.732 1.732 0 0 1-.727-.59 1.665 1.665 0 0 1-.27-.971v-3.514h.927v3.419a1.12 1.12 0 0 0 .31.82 1.287 1.287 0 0 0 .947.316 1.364 1.364 0 0 0 .917-.296 1.108 1.108 0 0 0 .35-.89v-3.37h.922v5.177h-.736l-.095-.992a1.26 1.26 0 0 1-.572.841 1.852 1.852 0 0 1-.981.25zm3.898-.1v-5.175h.882v.996a1.552 1.552 0 0 1 .616-.826 1.68 1.68 0 0 1 .917-.27 1.554 1.554 0 0 1 .22.014.517.517 0 0 1 .175.05v.897a.573.573 0 0 0-.195-.046 1.55 1.55 0 0 0-.195-.015 1.735 1.735 0 0 0-1.057.236 1.002 1.002 0 0 0-.441.92v3.22zM40.272 237.371a1.863 1.863 0 0 1-1.233-.396 1.36 1.36 0 0 1-.476-1.106 1.458 1.458 0 0 1 .601-1.282 3.58 3.58 0 0 1 1.93-.45l.926-.025v-.406a.985.985 0 0 0-.29-.75 1.217 1.217 0 0 0-.882-.28 1.501 1.501 0 0 0-.787.215.96.96 0 0 0-.436.665h-.816a1.443 1.443 0 0 1 .59-1.156 2.467 2.467 0 0 1 1.494-.405 2.29 2.29 0 0 1 1.513.425 1.525 1.525 0 0 1 .506 1.236v3.615h-.792l-.065-.972a1.813 1.813 0 0 1-.766.841 2.24 2.24 0 0 1-1.017.23zm.28-.666a1.528 1.528 0 0 0 .681-.165 1.721 1.721 0 0 0 .561-.42.867.867 0 0 0 .226-.551v-.886l-.772.015a2.91 2.91 0 0 0-1.337.265.858.858 0 0 0-.446.816.836.836 0 0 0 .3.686 1.235 1.235 0 0 0 .787.24zm6.006-4.71a2.127 2.127 0 0 1 1.408.475 1.893 1.893 0 0 1 .676 1.261h-.822a1.183 1.183 0 0 0-.395-.695 1.234 1.234 0 0 0-.862-.296 1.373 1.373 0 0 0-1.082.48 2.207 2.207 0 0 0-.416 1.473 2.447 2.447 0 0 0 .38 1.436 1.307 1.307 0 0 0 1.133.536 1.213 1.213 0 0 0 .857-.3 1.196 1.196 0 0 0 .39-.691h.807a1.819 1.819 0 0 1-.676 1.241 2.17 2.17 0 0 1-1.398.456 2.454 2.454 0 0 1-1.237-.306 2.122 2.122 0 0 1-.842-.9 3.174 3.174 0 0 1-.305-1.462 3.412 3.412 0 0 1 .275-1.417 2.178 2.178 0 0 1 .812-.951 2.372 2.372 0 0 1 1.297-.34zm5.4 0a2.126 2.126 0 0 1 1.408.475 1.893 1.893 0 0 1 .677 1.261h-.822a1.18 1.18 0 0 0-.396-.695 1.233 1.233 0 0 0-.861-.296 1.373 1.373 0 0 0-1.082.48 2.207 2.207 0 0 0-.416 1.473 2.45 2.45 0 0 0 .38 1.436 1.308 1.308 0 0 0 1.133.536 1.213 1.213 0 0 0 .856-.3 1.19 1.19 0 0 0 .391-.691h.807a1.819 1.819 0 0 1-.677 1.241 2.17 2.17 0 0 1-1.397.456 2.456 2.456 0 0 1-1.238-.306 2.122 2.122 0 0 1-.841-.9 3.18 3.18 0 0 1-.306-1.462 3.42 3.42 0 0 1 .276-1.417 2.185 2.185 0 0 1 .811-.951 2.373 2.373 0 0 1 1.298-.34zm5.397 5.376a2.272 2.272 0 0 1-1.728-.686 2.77 2.77 0 0 1-.652-1.982 3.425 3.425 0 0 1 .276-1.422 2.116 2.116 0 0 1 .807-.946 2.356 2.356 0 0 1 1.297-.34 2.211 2.211 0 0 1 1.713.7 2.87 2.87 0 0 1 .641 2.008 3.36 3.36 0 0 1-.27 1.391 2.107 2.107 0 0 1-.792.941 2.341 2.341 0 0 1-1.292.336zm0-.731a1.23 1.23 0 0 0 1.067-.52 2.456 2.456 0 0 0 .37-1.437 3.076 3.076 0 0 0-.15-.997 1.49 1.49 0 0 0-.46-.705 1.408 1.408 0 0 0-1.91.26 2.412 2.412 0 0 0-.375 1.442 3.086 3.086 0 0 0 .15.99 1.501 1.501 0 0 0 .471.706 1.284 1.284 0 0 0 .837.26zm5.382.73a2.533 2.533 0 0 1-.992-.2 1.732 1.732 0 0 1-.726-.59 1.665 1.665 0 0 1-.27-.971v-3.514h.926v3.418a1.12 1.12 0 0 0 .31.821 1.287 1.287 0 0 0 .948.316 1.364 1.364 0 0 0 .916-.296 1.108 1.108 0 0 0 .351-.89v-3.37h.922v5.177h-.737l-.095-.992a1.26 1.26 0 0 1-.57.841 1.853 1.853 0 0 1-.983.25zm3.899-.1v-5.175h.896v.75a1.708 1.708 0 0 1 .596-.575 1.929 1.929 0 0 1 1.027-.25 2.072 2.072 0 0 1 .902.195 1.492 1.492 0 0 1 .661.61 2.01 2.01 0 0 1 .25 1.062v3.383h-.926v-3.293a1.069 1.069 0 0 0-1.142-1.192 1.851 1.851 0 0 0-.656.116 1.125 1.125 0 0 0-.496.34.854.854 0 0 0-.19.57v3.46zm8.17-4.5h-1.168v3.219q0 .415.13.51a.976.976 0 0 0 .501.09h.566v.621a1.506 1.506 0 0 1-.29.06 3.781 3.781 0 0 1-.476.025 1.41 1.41 0 0 1-1.087-.325 1.438 1.438 0 0 1-.276-.951v-3.249h-.841v-.675h.866l.226-1.507h.681v1.502h1.167zm4.662-2.733v.961h-.947v-.96zm-.02 2.058v5.175h-.897v-5.175zm3.468 5.276a2.884 2.884 0 0 1-1.007-.17 1.887 1.887 0 0 1-.772-.521 1.721 1.721 0 0 1-.38-.916h.841a1.048 1.048 0 0 0 .456.685 1.556 1.556 0 0 0 .857.23 1.601 1.601 0 0 0 .841-.194.654.654 0 0 0 .32-.601q0-.546-.685-.71l-1.072-.266a2.373 2.373 0 0 1-1.007-.47 1.121 1.121 0 0 1-.371-.897 1.39 1.39 0 0 1 .49-1.111 2.191 2.191 0 0 1 1.484-.435 2.232 2.232 0 0 1 1.357.38 1.332 1.332 0 0 1 .541 1.106h-.816a.868.868 0 0 0-.336-.585 1.193 1.193 0 0 0-.756-.22 1.465 1.465 0 0 0-.807.2.67.67 0 0 0-.31.61.51.51 0 0 0 .22.436 1.96 1.96 0 0 0 .651.26l1.037.26a1.826 1.826 0 0 1 .742.356 1.274 1.274 0 0 1 .37.505 1.485 1.485 0 0 1 .105.53 1.351 1.351 0 0 1-.526 1.127 2.332 2.332 0 0 1-1.467.41zm11.253-2.859a3.738 3.738 0 0 1-.286 1.522 2.069 2.069 0 0 1-.927.991 4.282 4.282 0 0 1-3.381-.005 2.087 2.087 0 0 1-.922-1.006 3.907 3.907 0 0 1-.28-1.552v-4.43h1.487v4.54a1.582 1.582 0 0 0 .391 1.187 1.418 1.418 0 0 0 1.017.37 1.437 1.437 0 0 0 1.022-.37 1.548 1.548 0 0 0 .4-1.187v-4.54h1.479zm4.174 2.859a4.13 4.13 0 0 1-1.052-.136 3.377 3.377 0 0 1-.947-.405 2.372 2.372 0 0 1-.701-.676 2.02 2.02 0 0 1-.33-.95h1.497a1.168 1.168 0 0 0 .521.755 1.834 1.834 0 0 0 1.007.265 2.19 2.19 0 0 0 1.027-.225.73.73 0 0 0 .436-.686.658.658 0 0 0-.35-.61 2.923 2.923 0 0 0-.878-.306l-1.252-.255a2.372 2.372 0 0 1-1.302-.65 2.064 2.064 0 0 1-.136-2.509 2.38 2.38 0 0 1 1.002-.77 3.602 3.602 0 0 1 1.423-.27 3.731 3.731 0 0 1 1.573.294 2.228 2.228 0 0 1 .972.791 1.995 1.995 0 0 1 .345 1.107h-1.467a.986.986 0 0 0-.446-.801 1.827 1.827 0 0 0-.952-.23 1.559 1.559 0 0 0-.932.25.748.748 0 0 0-.345.635.67.67 0 0 0 .205.511 1.752 1.752 0 0 0 .791.32l1.243.256a3.034 3.034 0 0 1 1.057.385 1.834 1.834 0 0 1 .851 1.231 3.202 3.202 0 0 1 .066.611 1.68 1.68 0 0 1-.366 1.056 2.488 2.488 0 0 1-1.027.741 4.007 4.007 0 0 1-1.533.27zm8.454-8.375h1.267v.996a2.747 2.747 0 0 1 1.082.416 2.114 2.114 0 0 1 .696.745 1.85 1.85 0 0 1 .236.957l-1.478.025a1.39 1.39 0 0 0-.32-.756 1.078 1.078 0 0 0-.832-.276 1.578 1.578 0 0 0-.942.25.748.748 0 0 0-.346.636.633.633 0 0 0 .21.501 2.224 2.224 0 0 0 .807.335l1.168.286a2.407 2.407 0 0 1 1.422.81 2.191 2.191 0 0 1 .441 1.382 1.774 1.774 0 0 1-.586 1.362 2.827 2.827 0 0 1-1.588.665v.896h-1.262v-.89a3.167 3.167 0 0 1-1.664-.636 2.087 2.087 0 0 1-.731-1.467l1.523-.03a1.184 1.184 0 0 0 .516.756 1.832 1.832 0 0 0 1.002.255 1.454 1.454 0 0 0 .886-.255.77.77 0 0 0 .351-.646.702.702 0 0 0-.255-.595 2.008 2.008 0 0 0-.787-.32l-1.187-.256a2.54 2.54 0 0 1-1.328-.656 1.815 1.815 0 0 1-.506-1.326 1.9 1.9 0 0 1 .276-1.042 2.237 2.237 0 0 1 .781-.745 3.193 3.193 0 0 1 1.148-.386zm5.627 8.274v-5.42h-1.293v-.827a2.605 2.605 0 0 0 1.343-.26.956.956 0 0 0 .46-.73h.973v7.237zm5.798-7.338a2.436 2.436 0 0 1 2.04.966 5.504 5.504 0 0 1 .004 5.526 2.435 2.435 0 0 1-2.044.957 2.46 2.46 0 0 1-2.059-.957 5.52 5.52 0 0 1 .01-5.526 2.455 2.455 0 0 1 2.05-.966zm0 6.252a.991.991 0 0 0 .947-.575 4.5 4.5 0 0 0 .3-1.938 4.69 4.69 0 0 0-.305-1.987 1.001 1.001 0 0 0-.947-.6 1.02 1.02 0 0 0-.957.605 4.634 4.634 0 0 0-.31 1.982 4.375 4.375 0 0 0 .31 1.933 1.022 1.022 0 0 0 .962.58zm6.915-6.152h1.438v4.41h1.117v1.227h-1.117v1.601h-1.408l.005-1.601h-3.336v-1.202zm-1.949 4.41h1.984v-2.653zm5.288 2.828v-1.591h1.603v1.591zm5.305.11a3.086 3.086 0 0 1-1.268-.26 2.482 2.482 0 0 1-.951-.73 1.994 1.994 0 0 1-.416-1.112h1.392a1.208 1.208 0 0 0 .401.686 1.176 1.176 0 0 0 .782.26 1.676 1.676 0 0 0 .911-.245 1.47 1.47 0 0 0 .592-.78 3.392 3.392 0 0 0 .14-1.403 1.577 1.577 0 0 1-.656.641 2.195 2.195 0 0 1-1.047.235 2.973 2.973 0 0 1-1.308-.275 2.184 2.184 0 0 1-.892-.79 2.27 2.27 0 0 1-.32-1.222 2.326 2.326 0 0 1 1.292-2.138 3.086 3.086 0 0 1 1.433-.315 2.811 2.811 0 0 1 1.588.44 2.764 2.764 0 0 1 1.027 1.242 4.563 4.563 0 0 1 .36 1.887 4.438 4.438 0 0 1-.816 2.913 2.78 2.78 0 0 1-2.244.967zm.13-3.869a1.366 1.366 0 0 0 .591-.135 1.48 1.48 0 0 0 .476-.35.654.654 0 0 0 .185-.436 1.683 1.683 0 0 0-.345-1.141 1.208 1.208 0 0 0-1.764-.055 1.283 1.283 0 0 0-.34.926 1.16 1.16 0 0 0 .33.88 1.216 1.216 0 0 0 .867.311zm6.58-3.579a2.436 2.436 0 0 1 2.039.966 5.504 5.504 0 0 1 .005 5.526 2.435 2.435 0 0 1-2.044.957 2.46 2.46 0 0 1-2.059-.957 5.52 5.52 0 0 1 .01-5.526 2.456 2.456 0 0 1 2.05-.966zm0 6.252a.991.991 0 0 0 .947-.575 4.5 4.5 0 0 0 .3-1.938 4.69 4.69 0 0 0-.305-1.987 1 1 0 0 0-.947-.6 1.02 1.02 0 0 0-.957.605 4.634 4.634 0 0 0-.31 1.982 4.375 4.375 0 0 0 .31 1.933 1.023 1.023 0 0 0 .962.58zm3.773 1.086v-1.18h1.102v1.18z" style="fill:#36536b"/></g></g></g></g></svg>